Vesper Libre-Regular.ufo
<glyph name="eight" format="1">
  <advance width="1051"/>
  <unicode hex="0038"/>
  <outline>
    <contour>
      <point x="125" y="58"/>
      <point x="338" y="-23"/>
      <point x="538" y="-23" type="curve" smooth="yes"/>
      <point x="755" y="-23"/>
      <point x="926" y="94"/>
      <point x="926" y="288" type="curve" smooth="yes"/>
      <point x="926" y="457"/>
      <point x="824" y="552"/>
      <point x="696" y="623" type="curve"/>
      <point x="796" y="690"/>
      <point x="891" y="783"/>
      <point x="891" y="929" type="curve" smooth="yes"/>
      <point x="891" y="1106"/>
      <point x="718" y="1212"/>
      <point x="523" y="1212" type="curve" smooth="yes"/>
      <point x="305" y="1212"/>
      <point x="156" y="1076"/>
      <point x="156" y="910" type="curve" smooth="yes"/>
      <point x="156" y="753"/>
      <point x="243" y="667"/>
      <point x="358" y="600" type="curve"/>
      <point x="235" y="529"/>
      <point x="125" y="433"/>
      <point x="125" y="277" type="curve" smooth="yes"/>
    </contour>
    <contour>
      <point x="550" y="699"/>
      <point x="427" y="766"/>
      <point x="379" y="816" type="curve" smooth="yes"/>
      <point x="335" y="861"/>
      <point x="323" y="913"/>
      <point x="323" y="959" type="curve" smooth="yes"/>
      <point x="323" y="1005"/>
      <point x="335" y="1060"/>
      <point x="364" y="1086" type="curve" smooth="yes"/>
      <point x="392" y="1111"/>
      <point x="433" y="1116"/>
      <point x="471" y="1116" type="curve" smooth="yes"/>
      <point x="604" y="1116"/>
      <point x="719" y="1030"/>
      <point x="719" y="883" type="curve" smooth="yes"/>
      <point x="719" y="797"/>
      <point x="656" y="697"/>
      <point x="632" y="659" type="curve"/>
    </contour>
    <contour>
      <point x="307" y="422"/>
      <point x="369" y="501"/>
      <point x="419" y="566" type="curve"/>
      <point x="500" y="529"/>
      <point x="648" y="447"/>
      <point x="710" y="375" type="curve" smooth="yes"/>
      <point x="748" y="331"/>
      <point x="762" y="282"/>
      <point x="762" y="227" type="curve" smooth="yes"/>
      <point x="762" y="189"/>
      <point x="755" y="152"/>
      <point x="730" y="129" type="curve" smooth="yes"/>
      <point x="686" y="87"/>
      <point x="625" y="84"/>
      <point x="567" y="84" type="curve" smooth="yes"/>
      <point x="429" y="84"/>
      <point x="307" y="188"/>
      <point x="307" y="323" type="curve" smooth="yes"/>
    </contour>
  </outline>
</glyph>
<glyph name="C" format="1">
  <advance width="1248"/>
  <unicode hex="0043"/>
  <outline>
    <contour>
      <point x="923" y="-35"/>
      <point x="1056" y="34"/>
      <point x="1201" y="173" type="curve"/>
      <point x="1156" y="242" type="line"/>
      <point x="1109" y="219"/>
      <point x="868" y="126"/>
      <point x="762" y="126" type="curve" smooth="yes"/>
      <point x="640" y="126"/>
      <point x="522" y="176"/>
      <point x="431" y="294" type="curve" smooth="yes"/>
      <point x="351" y="398"/>
      <point x="310" y="559"/>
      <point x="310" y="705" type="curve" smooth="yes"/>
      <point x="310" y="969"/>
      <point x="378" y="1133"/>
      <point x="459" y="1205" type="curve" smooth="yes"/>
      <point x="507" y="1247"/>
      <point x="601" y="1283"/>
      <point x="703" y="1283" type="curve" smooth="yes"/>
      <point x="812" y="1283"/>
      <point x="880" y="1264"/>
      <point x="961" y="1229" type="curve"/>
      <point x="1055" y="1021" type="line"/>
      <point x="1151" y="1044" type="line"/>
      <point x="1113" y="1410" type="line"/>
      <point x="985" y="1392" type="line"/>
      <point x="914" y="1406"/>
      <point x="840" y="1419"/>
      <point x="766" y="1419" type="curve" smooth="yes"/>
      <point x="615" y="1419"/>
      <point x="494" y="1384"/>
      <point x="384" y="1300" type="curve" smooth="yes"/>
      <point x="202" y="1160"/>
      <point x="111" y="904"/>
      <point x="111" y="625" type="curve" smooth="yes"/>
      <point x="111" y="216"/>
      <point x="352" y="-35"/>
      <point x="711" y="-35" type="curve" smooth="yes"/>
    </contour>
    <contour>
      <point x="703" y="1384" type="move" name="top"/>
    </contour>
    <contour>
      <point x="714" y="0" type="move" name="bottom"/>
    </contour>
  </outline>
</glyph>
<glyph name="I" format="1">
  <advance width="720"/>
  <unicode hex="0049"/>
  <outline>
    <contour>
      <point x="85" y="87" type="line"/>
      <point x="68" y="0" type="line"/>
      <point x="628" y="0" type="line"/>
      <point x="648" y="84" type="line"/>
      <point x="455" y="140" type="line"/>
      <point x="455" y="1244" type="line"/>
      <point x="636" y="1299" type="line"/>
      <point x="652" y="1384" type="line"/>
      <point x="92" y="1384" type="line"/>
      <point x="75" y="1301" type="line"/>
      <point x="263" y="1246" type="line"/>
      <point x="263" y="140" type="line"/>
    </contour>
    <contour>
      <point x="518" y="10" type="move" name="ogonek"/>
    </contour>
    <contour>
      <point x="359" y="0" type="move" name="bottom"/>
    </contour>
    <contour>
      <point x="360" y="1384" type="move" name="top"/>
    </contour>
  </outline>
</glyph>
<glyph name="X" format="1">
  <advance width="1346"/>
  <unicode hex="0058"/>
  <outline>
    <contour>
      <point x="1178" y="132" type="line"/>
      <point x="777" y="702" type="line"/>
      <point x="1163" y="1252" type="line"/>
      <point x="1299" y="1286" type="line"/>
      <point x="1318" y="1384" type="line"/>
      <point x="848" y="1384" type="line"/>
      <point x="831" y="1301" type="line"/>
      <point x="1003" y="1249" type="line"/>
      <point x="714" y="794" type="line"/>
      <point x="414" y="1248" type="line"/>
      <point x="563" y="1296" type="line"/>
      <point x="578" y="1384" type="line"/>
      <point x="50" y="1384" type="line"/>
      <point x="32" y="1284" type="line"/>
      <point x="172" y="1252" type="line"/>
      <point x="573" y="675" type="line"/>
      <point x="181" y="136" type="line"/>
      <point x="43" y="93" type="line"/>
      <point x="27" y="0" type="line"/>
      <point x="496" y="0" type="line"/>
      <point x="515" y="83" type="line"/>
      <point x="342" y="135" type="line"/>
      <point x="635" y="584" type="line"/>
      <point x="935" y="136" type="line"/>
      <point x="787" y="88" type="line"/>
      <point x="772" y="0" type="line"/>
      <point x="1305" y="0" type="line"/>
      <point x="1320" y="89" type="line"/>
    </contour>
  </outline>
</glyph>
<glyph name="b" format="1">
  <advance width="1087"/>
  <unicode hex="0062"/>
  <outline>
    <contour>
      <point x="326" y="104" type="line"/>
      <point x="403" y="6"/>
      <point x="477" y="-25"/>
      <point x="585" y="-25" type="curve" smooth="yes"/>
      <point x="712" y="-25"/>
      <point x="802" y="45"/>
      <point x="868" y="121" type="curve" smooth="yes"/>
      <point x="954" y="220"/>
      <point x="1004" y="357"/>
      <point x="1004" y="507" type="curve" smooth="yes"/>
      <point x="1004" y="733"/>
      <point x="923" y="975"/>
      <point x="675" y="975" type="curve" smooth="yes"/>
      <point x="569" y="975"/>
      <point x="431" y="895"/>
      <point x="347" y="827" type="curve"/>
      <point x="347" y="1472" type="line"/>
      <point x="24" y="1412" type="line"/>
      <point x="16" y="1365" type="line"/>
      <point x="169" y="1287" type="line"/>
      <point x="169" y="211" type="line"/>
      <point x="75" y="37" type="line"/>
      <point x="123" y="-25" type="line"/>
    </contour>
    <contour>
      <point x="347" y="771" type="line"/>
      <point x="433" y="800"/>
      <point x="574" y="830"/>
      <point x="627" y="830" type="curve" smooth="yes"/>
      <point x="651" y="830"/>
      <point x="674" y="823"/>
      <point x="689" y="812" type="curve" smooth="yes"/>
      <point x="776" y="747"/>
      <point x="829" y="605"/>
      <point x="829" y="452" type="curve" smooth="yes"/>
      <point x="829" y="339"/>
      <point x="797" y="158"/>
      <point x="745" y="135" type="curve"/>
      <point x="725" y="125"/>
      <point x="689" y="119"/>
      <point x="646" y="119" type="curve" smooth="yes"/>
      <point x="552" y="119"/>
      <point x="424" y="147"/>
      <point x="347" y="240" type="curve"/>
    </contour>
  </outline>
</glyph>
<glyph name="j" format="1">
  <advance width="519"/>
  <unicode hex="006A"/>
  <outline>
    <contour>
      <point x="374" y="1196"/>
      <point x="395" y="1327"/>
      <point x="371" y="1356" type="curve" smooth="yes"/>
      <point x="350" y="1382"/>
      <point x="226" y="1404"/>
      <point x="190" y="1379" type="curve" smooth="yes"/>
      <point x="162" y="1359"/>
      <point x="143" y="1228"/>
      <point x="168" y="1197" type="curve" smooth="yes"/>
      <point x="193" y="1165"/>
      <point x="323" y="1156"/>
      <point x="347" y="1175" type="curve" smooth="yes"/>
    </contour>
    <contour>
      <point x="191" y="776" type="line"/>
      <point x="191" y="0" type="line" smooth="yes"/>
      <point x="191" y="-239"/>
      <point x="183" y="-332"/>
      <point x="89" y="-439" type="curve"/>
      <point x="44" y="-263" type="line"/>
      <point x="19" y="-252"/>
      <point x="-1" y="-249"/>
      <point x="-19" y="-249" type="curve" smooth="yes"/>
      <point x="-68" y="-249"/>
      <point x="-141" y="-321"/>
      <point x="-141" y="-382" type="curve" smooth="yes"/>
      <point x="-141" y="-467"/>
      <point x="-30" y="-500"/>
      <point x="54" y="-500" type="curve" smooth="yes"/>
      <point x="331" y="-500"/>
      <point x="370" y="-212"/>
      <point x="370" y="28" type="curve" smooth="yes"/>
      <point x="370" y="965" type="line"/>
      <point x="45" y="899" type="line"/>
      <point x="37" y="854" type="line"/>
    </contour>
  </outline>
</glyph>
<glyph name="s" format="1">
  <advance width="824"/>
  <unicode hex="0073"/>
  <outline>
    <contour>
      <point x="553" y="730" type="line"/>
      <point x="569" y="722"/>
      <point x="592" y="716"/>
      <point x="615" y="716" type="curve" smooth="yes"/>
      <point x="667" y="716"/>
      <point x="732" y="774"/>
      <point x="732" y="835" type="curve" smooth="yes"/>
      <point x="732" y="880"/>
      <point x="694" y="912"/>
      <point x="663" y="931" type="curve" smooth="yes"/>
      <point x="616" y="958"/>
      <point x="551" y="975"/>
      <point x="473" y="975" type="curve" smooth="yes"/>
      <point x="285" y="975"/>
      <point x="104" y="894"/>
      <point x="104" y="704" type="curve" smooth="yes"/>
      <point x="104" y="591"/>
      <point x="164" y="511"/>
      <point x="249" y="464" type="curve" smooth="yes"/>
      <point x="336" y="416"/>
      <point x="446" y="403"/>
      <point x="520" y="354" type="curve" smooth="yes"/>
      <point x="575" y="318"/>
      <point x="592" y="275"/>
      <point x="592" y="228" type="curve" smooth="yes"/>
      <point x="592" y="194"/>
      <point x="583" y="165"/>
      <point x="556" y="148" type="curve" smooth="yes"/>
      <point x="483" y="101"/>
      <point x="344" y="88"/>
      <point x="247" y="88" type="curve"/>
      <point x="210" y="281" type="line"/>
      <point x="105" y="305" type="line"/>
      <point x="60" y="86" type="line"/>
      <point x="132" y="29"/>
      <point x="214" y="-25"/>
      <point x="393" y="-25" type="curve" smooth="yes"/>
      <point x="591" y="-25"/>
      <point x="751" y="77"/>
      <point x="751" y="288" type="curve" smooth="yes"/>
      <point x="751" y="386"/>
      <point x="708" y="454"/>
      <point x="646" y="493" type="curve" smooth="yes"/>
      <point x="552" y="552"/>
      <point x="438" y="561"/>
      <point x="349" y="608" type="curve" smooth="yes"/>
      <point x="298" y="635"/>
      <point x="250" y="677"/>
      <point x="250" y="738" type="curve" smooth="yes"/>
      <point x="250" y="773"/>
      <point x="262" y="795"/>
      <point x="280" y="808" type="curve" smooth="yes"/>
      <point x="342" y="853"/>
      <point x="443" y="880"/>
      <point x="523" y="886" type="curve"/>
    </contour>
    <contour>
      <point x="432" y="950" type="move" name="top"/>
    </contour>
    <contour>
      <point x="402" y="0" type="move" name="bottom"/>
    </contour>
  </outline>
</glyph>
<glyph name="sterling" format="1">
  <advance width="1292"/>
  <unicode hex="00A3"/>
  <outline>
    <contour>
      <point x="1013" y="739" type="line"/>
      <point x="540" y="739" type="line"/>
      <point x="568" y="931" type="line" smooth="yes"/>
      <point x="590" y="1089"/>
      <point x="621" y="1156"/>
      <point x="622" y="1157" type="curve"/>
      <point x="649" y="1205"/>
      <point x="744" y="1242"/>
      <point x="916" y="1242" type="curve" smooth="yes"/>
      <point x="937" y="1242"/>
      <point x="959" y="1241"/>
      <point x="981" y="1239" type="curve"/>
      <point x="1087" y="1007" type="line"/>
      <point x="1183" y="1030" type="line"/>
      <point x="1152" y="1342" type="line"/>
      <point x="1046" y="1336" type="line"/>
      <point x="1022" y="1342"/>
      <point x="930" y="1365"/>
      <point x="847" y="1365" type="curve" smooth="yes"/>
      <point x="587" y="1365"/>
      <point x="407" y="1216"/>
      <point x="375" y="988" type="curve" smooth="yes"/>
      <point x="340" y="739" type="line"/>
      <point x="125" y="739" type="line"/>
      <point x="102" y="631" type="line"/>
      <point x="321" y="601" type="line"/>
      <point x="256" y="141" type="line"/>
      <point x="81" y="86" type="line"/>
      <point x="63" y="0" type="line"/>
      <point x="1096" y="0" type="line"/>
      <point x="1162" y="321" type="line"/>
      <point x="1088" y="339" type="line"/>
      <point x="961" y="154" type="line"/>
      <point x="449" y="100" type="line"/>
      <point x="518" y="582" type="line"/>
      <point x="1002" y="652" type="line"/>
    </contour>
  </outline>
</glyph>
<glyph name="registered" format="1">
  <advance width="1204"/>
  <unicode hex="00AE"/>
  <outline>
    <contour>
      <point x="893" y="541"/>
      <point x="1118" y="760"/>
      <point x="1118" y="1064" type="curve" smooth="yes"/>
      <point x="1118" y="1365"/>
      <point x="881" y="1594"/>
      <point x="617" y="1594" type="curve" smooth="yes"/>
      <point x="308" y="1594"/>
      <point x="87" y="1370"/>
      <point x="87" y="1065" type="curve" smooth="yes"/>
      <point x="87" y="769"/>
      <point x="322" y="541"/>
      <point x="592" y="541" type="curve" smooth="yes"/>
    </contour>
    <contour>
      <point x="204" y="1294"/>
      <point x="351" y="1497"/>
      <point x="557" y="1497" type="curve" smooth="yes"/>
      <point x="814" y="1497"/>
      <point x="999" y="1305"/>
      <point x="999" y="1036" type="curve" smooth="yes"/>
      <point x="999" y="833"/>
      <point x="849" y="639"/>
      <point x="650" y="639" type="curve" smooth="yes"/>
      <point x="382" y="639"/>
      <point x="204" y="845"/>
      <point x="204" y="1097" type="curve" smooth="yes"/>
    </contour>
    <contour>
      <point x="361" y="806" type="line"/>
      <point x="620" y="806" type="line"/>
      <point x="637" y="861" type="line"/>
      <point x="544" y="884" type="line"/>
      <point x="544" y="1315" type="line"/>
      <point x="612" y="1307"/>
      <point x="707" y="1289"/>
      <point x="707" y="1213" type="curve" smooth="yes"/>
      <point x="707" y="1160"/>
      <point x="665" y="1118"/>
      <point x="588" y="1088" type="curve"/>
      <point x="715" y="847" type="line"/>
      <point x="707" y="806" type="line"/>
      <point x="883" y="806" type="line"/>
      <point x="895" y="851" type="line"/>
      <point x="822" y="884" type="line"/>
      <point x="709" y="1073" type="line"/>
      <point x="794" y="1108"/>
      <point x="824" y="1153"/>
      <point x="824" y="1222" type="curve" smooth="yes"/>
      <point x="824" y="1269"/>
      <point x="791" y="1318"/>
      <point x="751" y="1339" type="curve" smooth="yes"/>
      <point x="691" y="1371"/>
      <point x="604" y="1377"/>
      <point x="534" y="1377" type="curve" smooth="yes"/>
      <point x="373" y="1377" type="line"/>
      <point x="357" y="1318" type="line"/>
      <point x="435" y="1296" type="line"/>
      <point x="435" y="886" type="line"/>
      <point x="375" y="866" type="line"/>
    </contour>
  </outline>
</glyph>
<glyph name="onequarter" format="1">
  <advance width="1504"/>
  <unicode hex="00BC"/>
  <outline>
    <contour>
      <point x="825" y="204" type="line"/>
      <point x="1144" y="204" type="line"/>
      <point x="1144" y="-60" type="line"/>
      <point x="1294" y="-26" type="line"/>
      <point x="1294" y="204" type="line"/>
      <point x="1370" y="204" type="line"/>
      <point x="1386" y="310" type="line"/>
      <point x="1293" y="307" type="line"/>
      <point x="1293" y="450" type="line"/>
      <point x="1139" y="415" type="line"/>
      <point x="1139" y="298" type="line"/>
      <point x="959" y="293" type="line"/>
      <point x="1271" y="733" type="line"/>
      <point x="1114" y="759" type="line"/>
      <point x="794" y="257" type="line"/>
    </contour>
    <component base="onesuperior" yOffset="-261"/>
    <component base="fraction" xOffset="576"/>
  </outline>
</glyph>
<glyph name="Eth" format="1">
  <advance width="1429"/>
  <unicode hex="00D0"/>
  <outline>
    <contour>
      <point x="725" y="636" type="line"/>
      <point x="749" y="757" type="line"/>
      <point x="125" y="757" type="line"/>
      <point x="94" y="614" type="line"/>
    </contour>
    <component base="D" xOffset="1"/>
  </outline>
</glyph>
<glyph name="Oslash" format="1">
  <advance width="1405"/>
  <unicode hex="00D8"/>
  <outline>
    <contour>
      <point x="1105" y="1456" type="line"/>
      <point x="965" y="1509" type="line"/>
      <point x="918" y="1391" type="line"/>
      <point x="862" y="1410"/>
      <point x="803" y="1419"/>
      <point x="743" y="1419" type="curve" smooth="yes"/>
      <point x="313" y="1419"/>
      <point x="90" y="1041"/>
      <point x="90" y="623" type="curve" smooth="yes"/>
      <point x="90" y="349"/>
      <point x="203" y="148"/>
      <point x="375" y="44" type="curve"/>
      <point x="317" y="-100" type="line"/>
      <point x="457" y="-152" type="line"/>
      <point x="513" y="-14" type="line"/>
      <point x="563" y="-28"/>
      <point x="616" y="-35"/>
      <point x="672" y="-35" type="curve" smooth="yes"/>
      <point x="1079" y="-35"/>
      <point x="1316" y="335"/>
      <point x="1316" y="762" type="curve" smooth="yes"/>
      <point x="1316" y="1023"/>
      <point x="1209" y="1218"/>
      <point x="1052" y="1325" type="curve"/>
    </contour>
    <contour>
      <point x="310" y="415"/>
      <point x="295" y="598"/>
      <point x="295" y="766" type="curve" smooth="yes"/>
      <point x="295" y="886"/>
      <point x="328" y="1095"/>
      <point x="411" y="1177" type="curve" smooth="yes"/>
      <point x="475" y="1238"/>
      <point x="581" y="1266"/>
      <point x="661" y="1266" type="curve" smooth="yes"/>
      <point x="727" y="1266"/>
      <point x="791" y="1250"/>
      <point x="849" y="1221" type="curve"/>
      <point x="453" y="238" type="line"/>
      <point x="435" y="253"/>
      <point x="419" y="271"/>
      <point x="404" y="289" type="curve"/>
    </contour>
    <contour>
      <point x="937" y="146"/>
      <point x="833" y="120"/>
      <point x="750" y="120" type="curve" smooth="yes"/>
      <point x="690" y="120"/>
      <point x="633" y="133"/>
      <point x="581" y="155" type="curve"/>
      <point x="973" y="1129" type="line"/>
      <point x="1011" y="1090"/>
      <point x="1042" y="1043"/>
      <point x="1064" y="990" type="curve" smooth="yes"/>
      <point x="1106" y="888"/>
      <point x="1111" y="768"/>
      <point x="1111" y="617" type="curve" smooth="yes"/>
      <point x="1111" y="497"/>
      <point x="1078" y="299"/>
      <point x="1000" y="214" type="curve" smooth="yes"/>
    </contour>
    <contour>
      <point x="703" y="1384" type="move" name="top"/>
    </contour>
  </outline>
</glyph>
<glyph name="Aogonek" format="1">
  <advance width="1337"/>
  <unicode hex="0104"/>
  <outline>
    <contour>
      <point x="1052" y="-2"/>
      <point x="1100" y="0"/>
      <point x="1158" y="0" type="curve" smooth="yes"/>
      <point x="1321" y="0" type="line"/>
      <point x="1344" y="101" type="line"/>
      <point x="1208" y="133" type="line"/>
      <point x="715" y="1420" type="line"/>
      <point x="596" y="1384" type="line"/>
      <point x="146" y="142" type="line"/>
      <point x="-7" y="95" type="line"/>
      <point x="-30" y="0" type="line"/>
      <point x="469" y="0" type="line"/>
      <point x="487" y="83" type="line"/>
      <point x="282" y="138" type="line"/>
      <point x="383" y="440" type="line"/>
      <point x="542" y="440"/>
      <point x="742" y="441"/>
      <point x="878" y="454" type="curve"/>
      <point x="992" y="150" type="line" smooth="yes"/>
      <point x="998" y="134"/>
      <point x="1001" y="118"/>
      <point x="1001" y="105" type="curve" smooth="yes"/>
      <point x="1001" y="68"/>
      <point x="984" y="33"/>
      <point x="956" y="11" type="curve" smooth="yes"/>
      <point x="829" y="-94"/>
      <point x="725" y="-149"/>
      <point x="725" y="-286" type="curve" smooth="yes"/>
      <point x="725" y="-405"/>
      <point x="822" y="-475"/>
      <point x="927" y="-475" type="curve" smooth="yes"/>
      <point x="1016" y="-475"/>
      <point x="1092" y="-419"/>
      <point x="1169" y="-351" type="curve"/>
      <point x="1144" y="-314" type="line"/>
      <point x="1095" y="-341"/>
      <point x="1033" y="-355"/>
      <point x="990" y="-355" type="curve" smooth="yes"/>
      <point x="973" y="-355"/>
      <point x="956" y="-350"/>
      <point x="940" y="-342" type="curve" smooth="yes"/>
      <point x="900" y="-321"/>
      <point x="872" y="-277"/>
      <point x="872" y="-236" type="curve" smooth="yes"/>
      <point x="872" y="-168"/>
      <point x="958" y="-86"/>
      <point x="1004" y="-45" type="curve" smooth="yes"/>
    </contour>
    <contour>
      <point x="426" y="568" type="line"/>
      <point x="489" y="757"/>
      <point x="551" y="949"/>
      <point x="614" y="1155" type="curve"/>
      <point x="835" y="568" type="line"/>
    </contour>
  </outline>
</glyph>
<glyph name="aogonek" format="1">
  <advance width="972"/>
  <unicode hex="0105"/>
  <outline>
    <contour>
      <point x="68" y="125"/>
      <point x="138" y="-25"/>
      <point x="326" y="-25" type="curve" smooth="yes"/>
      <point x="437" y="-25"/>
      <point x="595" y="68"/>
      <point x="638" y="132" type="curve"/>
      <point x="660" y="112"/>
      <point x="693" y="43"/>
      <point x="708" y="5" type="curve"/>
      <point x="586" y="-49"/>
      <point x="450" y="-138"/>
      <point x="450" y="-288" type="curve" smooth="yes"/>
      <point x="450" y="-407"/>
      <point x="547" y="-476"/>
      <point x="652" y="-476" type="curve" smooth="yes"/>
      <point x="741" y="-476"/>
      <point x="817" y="-421"/>
      <point x="892" y="-355" type="curve"/>
      <point x="871" y="-315" type="line"/>
      <point x="820" y="-338"/>
      <point x="759" y="-356"/>
      <point x="716" y="-356" type="curve" smooth="yes"/>
      <point x="697" y="-356"/>
      <point x="679" y="-351"/>
      <point x="663" y="-342" type="curve" smooth="yes"/>
      <point x="624" y="-320"/>
      <point x="598" y="-277"/>
      <point x="598" y="-237" type="curve" smooth="yes"/>
      <point x="598" y="-123"/>
      <point x="708" y="-39"/>
      <point x="949" y="32" type="curve"/>
      <point x="963" y="94" type="line"/>
      <point x="880" y="116"/>
      <point x="820" y="147"/>
      <point x="790" y="202" type="curve"/>
      <point x="790" y="674" type="line" smooth="yes"/>
      <point x="790" y="846"/>
      <point x="724" y="975"/>
      <point x="530" y="975" type="curve" smooth="yes"/>
      <point x="473" y="975"/>
      <point x="294" y="938"/>
      <point x="187" y="879" type="curve" smooth="yes"/>
      <point x="144" y="855"/>
      <point x="103" y="823"/>
      <point x="103" y="779" type="curve" smooth="yes"/>
      <point x="103" y="720"/>
      <point x="168" y="671"/>
      <point x="220" y="671" type="curve" smooth="yes"/>
      <point x="243" y="671"/>
      <point x="264" y="677"/>
      <point x="281" y="686" type="curve"/>
      <point x="315" y="868" type="line"/>
      <point x="334" y="872"/>
      <point x="358" y="875"/>
      <point x="382" y="875" type="curve" smooth="yes"/>
      <point x="430" y="875"/>
      <point x="481" y="867"/>
      <point x="510" y="851" type="curve" smooth="yes"/>
      <point x="601" y="802"/>
      <point x="611" y="665"/>
      <point x="611" y="575" type="curve" smooth="yes"/>
      <point x="611" y="521" type="line"/>
      <point x="585" y="523"/>
      <point x="558" y="524"/>
      <point x="531" y="524" type="curve" smooth="yes"/>
      <point x="442" y="524"/>
      <point x="302" y="511"/>
      <point x="218" y="475" type="curve" smooth="yes"/>
      <point x="111" y="430"/>
      <point x="68" y="371"/>
      <point x="68" y="241" type="curve" smooth="yes"/>
    </contour>
    <contour>
      <point x="300" y="133"/>
      <point x="252" y="223"/>
      <point x="252" y="291" type="curve" smooth="yes"/>
      <point x="252" y="316"/>
      <point x="255" y="341"/>
      <point x="271" y="357" type="curve"/>
      <point x="295" y="383"/>
      <point x="394" y="443"/>
      <point x="611" y="458" type="curve"/>
      <point x="611" y="165" type="line"/>
      <point x="558" y="138"/>
      <point x="453" y="106"/>
      <point x="390" y="106" type="curve" smooth="yes"/>
      <point x="377" y="106"/>
      <point x="365" y="108"/>
      <point x="356" y="112" type="curve"/>
    </contour>
  </outline>
</glyph>
<glyph name="dcroat" format="1">
  <advance width="1104"/>
  <unicode hex="0111"/>
  <outline>
    <contour>
      <point x="842" y="1095" type="line"/>
      <point x="1066" y="1100" type="line"/>
      <point x="1087" y="1206" type="line"/>
      <point x="842" y="1200" type="line"/>
      <point x="524" y="1206" type="line"/>
      <point x="498" y="1092" type="line"/>
    </contour>
    <component base="d"/>
  </outline>
</glyph>
<glyph name="Lslash" format="1">
  <advance width="1191"/>
  <unicode hex="0141"/>
  <outline>
    <contour>
      <point x="978" y="895" type="line"/>
      <point x="947" y="1018" type="line"/>
      <point x="48" y="616" type="line"/>
      <point x="76" y="486" type="line"/>
    </contour>
    <component base="L"/>
  </outline>
</glyph>
<glyph name="OE" format="1">
  <advance width="1905"/>
  <unicode hex="0152"/>
  <outline>
    <contour>
      <point x="1779" y="0" type="line"/>
      <point x="1855" y="322" type="line"/>
      <point x="1780" y="339" type="line"/>
      <point x="1658" y="155" type="line"/>
      <point x="1159" y="99" type="line"/>
      <point x="1159" y="659" type="line"/>
      <point x="1247" y="645"/>
      <point x="1339" y="640"/>
      <point x="1432" y="639" type="curve"/>
      <point x="1473" y="478" type="line"/>
      <point x="1546" y="463" type="line"/>
      <point x="1564" y="912" type="line"/>
      <point x="1492" y="933" type="line"/>
      <point x="1434" y="765" type="line"/>
      <point x="1339" y="761"/>
      <point x="1248" y="754"/>
      <point x="1159" y="741" type="curve"/>
      <point x="1159" y="1296" type="line"/>
      <point x="1593" y="1246" type="line"/>
      <point x="1692" y="1023" type="line"/>
      <point x="1781" y="1046" type="line"/>
      <point x="1747" y="1397" type="line"/>
      <point x="1620" y="1384" type="line"/>
      <point x="938" y="1384" type="line"/>
      <point x="876" y="1407"/>
      <point x="811" y="1419"/>
      <point x="743" y="1419" type="curve" smooth="yes"/>
      <point x="313" y="1419"/>
      <point x="90" y="1041"/>
      <point x="90" y="623" type="curve" smooth="yes"/>
      <point x="90" y="211"/>
      <point x="345" y="-35"/>
      <point x="672" y="-35" type="curve" smooth="yes"/>
      <point x="746" y="-35"/>
      <point x="814" y="-22"/>
      <point x="877" y="0" type="curve"/>
    </contour>
    <contour>
      <point x="624" y="124"/>
      <point x="495" y="189"/>
      <point x="414" y="290" type="curve" smooth="yes"/>
      <point x="313" y="416"/>
      <point x="295" y="598"/>
      <point x="295" y="766" type="curve" smooth="yes"/>
      <point x="295" y="886"/>
      <point x="329" y="1094"/>
      <point x="412" y="1176" type="curve" smooth="yes"/>
      <point x="476" y="1237"/>
      <point x="571" y="1262"/>
      <point x="651" y="1262" type="curve" smooth="yes"/>
      <point x="768" y="1262"/>
      <point x="883" y="1226"/>
      <point x="967" y="1151" type="curve"/>
      <point x="967" y="185" type="line"/>
      <point x="907" y="140"/>
      <point x="829" y="124"/>
      <point x="760" y="124" type="curve" smooth="yes"/>
    </contour>
    <contour>
      <point x="953" y="1384" type="move" name="top"/>
    </contour>
  </outline>
</glyph>
<glyph name="oe" format="1">
  <advance width="1553"/>
  <unicode hex="0153"/>
  <outline>
    <contour>
      <point x="1036" y="119"/>
      <point x="919" y="300"/>
      <point x="906" y="489" type="curve"/>
      <point x="1412" y="489" type="line" smooth="yes"/>
      <point x="1437" y="489"/>
      <point x="1446" y="501"/>
      <point x="1453" y="523" type="curve" smooth="yes"/>
      <point x="1468" y="568"/>
      <point x="1475" y="614"/>
      <point x="1475" y="657" type="curve" smooth="yes"/>
      <point x="1475" y="832"/>
      <point x="1363" y="975"/>
      <point x="1160" y="975" type="curve" smooth="yes"/>
      <point x="1023" y="975"/>
      <point x="910" y="906"/>
      <point x="836" y="795" type="curve"/>
      <point x="762" y="918"/>
      <point x="636" y="975"/>
      <point x="495" y="975" type="curve" smooth="yes"/>
      <point x="245" y="975"/>
      <point x="74" y="713"/>
      <point x="74" y="436" type="curve" smooth="yes"/>
      <point x="74" y="115"/>
      <point x="264" y="-25"/>
      <point x="500" y="-25" type="curve" smooth="yes"/>
      <point x="620" y="-25"/>
      <point x="728" y="48"/>
      <point x="802" y="159" type="curve"/>
      <point x="871" y="29"/>
      <point x="989" y="-25"/>
      <point x="1118" y="-25" type="curve" smooth="yes"/>
      <point x="1264" y="-25"/>
      <point x="1409" y="88"/>
      <point x="1470" y="158" type="curve"/>
      <point x="1446" y="190" type="line"/>
      <point x="1422" y="178"/>
      <point x="1285" y="119"/>
      <point x="1179" y="119" type="curve" smooth="yes"/>
    </contour>
    <contour>
      <point x="1008" y="857"/>
      <point x="1046" y="859"/>
      <point x="1072" y="859" type="curve" smooth="yes"/>
      <point x="1200" y="859"/>
      <point x="1307" y="770"/>
      <point x="1307" y="598" type="curve"/>
      <point x="906" y="564" type="line"/>
      <point x="913" y="708"/>
      <point x="959" y="802"/>
      <point x="989" y="833" type="curve"/>
    </contour>
    <contour>
      <point x="655" y="124"/>
      <point x="599" y="109"/>
      <point x="548" y="109" type="curve" smooth="yes"/>
      <point x="339" y="109"/>
      <point x="248" y="356"/>
      <point x="248" y="573" type="curve" smooth="yes"/>
      <point x="248" y="656"/>
      <point x="270" y="759"/>
      <point x="300" y="794" type="curve"/>
      <point x="326" y="822"/>
      <point x="357" y="845"/>
      <point x="429" y="845" type="curve" smooth="yes"/>
      <point x="601" y="845"/>
      <point x="741" y="673"/>
      <point x="741" y="386" type="curve" smooth="yes"/>
      <point x="741" y="323"/>
      <point x="727" y="202"/>
      <point x="689" y="162" type="curve" smooth="yes"/>
    </contour>
    <contour>
      <point x="777" y="950" type="move" name="top"/>
    </contour>
  </outline>
</glyph>
<glyph name="Uogonek" format="1">
  <advance width="1466"/>
  <unicode hex="0172"/>
  <outline>
    <contour>
      <point x="412" y="1235" type="line"/>
      <point x="603" y="1282" type="line"/>
      <point x="624" y="1384" type="line"/>
      <point x="65" y="1384" type="line"/>
      <point x="45" y="1302" type="line"/>
      <point x="219" y="1246" type="line"/>
      <point x="219" y="469" type="line" smooth="yes"/>
      <point x="219" y="174"/>
      <point x="383" y="-35"/>
      <point x="730" y="-35" type="curve" smooth="yes"/>
      <point x="765" y="-35"/>
      <point x="817" y="-32"/>
      <point x="853" y="-25" type="curve"/>
      <point x="816" y="-45"/>
      <point x="768" y="-76"/>
      <point x="739" y="-105" type="curve" smooth="yes"/>
      <point x="688" y="-156"/>
      <point x="655" y="-215"/>
      <point x="655" y="-287" type="curve" smooth="yes"/>
      <point x="655" y="-406"/>
      <point x="751" y="-475"/>
      <point x="857" y="-475" type="curve" smooth="yes"/>
      <point x="946" y="-475"/>
      <point x="1021" y="-420"/>
      <point x="1097" y="-353" type="curve"/>
      <point x="1074" y="-313" type="line"/>
      <point x="1021" y="-338"/>
      <point x="963" y="-355"/>
      <point x="920" y="-355" type="curve" smooth="yes"/>
      <point x="907" y="-355"/>
      <point x="895" y="-353"/>
      <point x="884" y="-349" type="curve" smooth="yes"/>
      <point x="837" y="-331"/>
      <point x="802" y="-282"/>
      <point x="802" y="-236" type="curve" smooth="yes"/>
      <point x="802" y="-161"/>
      <point x="906" y="-66"/>
      <point x="1014" y="14" type="curve" smooth="yes"/>
      <point x="1141" y="109"/>
      <point x="1251" y="224"/>
      <point x="1251" y="472" type="curve" smooth="yes"/>
      <point x="1251" y="1242" type="line"/>
      <point x="1400" y="1297" type="line"/>
      <point x="1421" y="1384" type="line"/>
      <point x="929" y="1384" type="line"/>
      <point x="908" y="1301" type="line"/>
      <point x="1108" y="1242" type="line"/>
      <point x="1108" y="477" type="line" smooth="yes"/>
      <point x="1108" y="249"/>
      <point x="1009" y="103"/>
      <point x="811" y="103" type="curve" smooth="yes"/>
      <point x="579" y="103"/>
      <point x="412" y="286"/>
      <point x="412" y="536" type="curve" smooth="yes"/>
    </contour>
  </outline>
</glyph>
<glyph name="candrabindudeva" format="1">
  <advance width="512"/>
  <unicode hex="0901"/>
  <note>
    dCandrabindu
  </note>
  <outline>
    <component base="ecandravowelsigndeva" xOffset="86" yOffset="10"/>
    <component base="anusvaradeva" xOffset="6" yOffset="210"/>
    <contour>
      <point x="256" y="1187" type="move" name="_top"/>
    </contour>
  </outline>
</glyph>
<glyph name="adeva" format="1">
  <advance width="1441"/>
  <unicode hex="0905"/>
  <note>
    dA
  </note>
  <outline>
    <contour>
      <point x="1443" y="1187" type="line"/>
      <point x="927" y="1187" type="line"/>
      <point x="981" y="1053" type="line"/>
      <point x="1130" y="1053" type="line"/>
      <point x="1130" y="720" type="line"/>
      <point x="1085" y="658"/>
      <point x="990" y="616"/>
      <point x="893" y="616" type="curve" smooth="yes"/>
      <point x="833" y="616"/>
      <point x="759" y="625"/>
      <point x="691" y="665" type="curve"/>
      <point x="762" y="724"/>
      <point x="801" y="803"/>
      <point x="801" y="896" type="curve" smooth="yes"/>
      <point x="801" y="1047"/>
      <point x="664" y="1198"/>
      <point x="489" y="1198" type="curve" smooth="yes"/>
      <point x="371" y="1198"/>
      <point x="253" y="1134"/>
      <point x="169" y="1037" type="curve"/>
      <point x="279" y="905" type="line"/>
      <point x="368" y="1012"/>
      <point x="485" y="1083"/>
      <point x="571" y="1083" type="curve" smooth="yes"/>
      <point x="614" y="1083"/>
      <point x="647" y="1075"/>
      <point x="659" y="1062" type="curve" smooth="yes"/>
      <point x="673" y="1047"/>
      <point x="683" y="1012"/>
      <point x="683" y="976" type="curve" smooth="yes"/>
      <point x="682" y="842"/>
      <point x="602" y="773"/>
      <point x="370" y="707" type="curve"/>
      <point x="459" y="569" type="line"/>
      <point x="515" y="578"/>
      <point x="565" y="593"/>
      <point x="608" y="614" type="curve"/>
      <point x="691" y="549"/>
      <point x="734" y="473"/>
      <point x="734" y="381" type="curve" smooth="yes"/>
      <point x="734" y="265"/>
      <point x="640" y="172"/>
      <point x="509" y="172" type="curve" smooth="yes"/>
      <point x="367" y="172"/>
      <point x="253" y="270"/>
      <point x="108" y="516" type="curve"/>
      <point x="18" y="474" type="line"/>
      <point x="149" y="180"/>
      <point x="325" y="28"/>
      <point x="549" y="31" type="curve" smooth="yes"/>
      <point x="740" y="33"/>
      <point x="892" y="149"/>
      <point x="895" y="333" type="curve" smooth="yes"/>
      <point x="896" y="406"/>
      <point x="872" y="467"/>
      <point x="820" y="526" type="curve"/>
      <point x="878" y="502"/>
      <point x="935" y="488"/>
      <point x="983" y="488" type="curve" smooth="yes"/>
      <point x="1041" y="488"/>
      <point x="1092" y="502"/>
      <point x="1130" y="528" type="curve"/>
      <point x="1130" y="-38" type="line"/>
      <point x="1284" y="-100" type="line"/>
      <point x="1284" y="1053" type="line"/>
      <point x="1493" y="1053" type="line"/>
    </contour>
    <contour>
      <point x="123" y="0" type="move" name="nukta"/>
    </contour>
    <contour>
      <point x="1207" y="0" type="move" name="bottom"/>
    </contour>
    <contour>
      <point x="1207" y="1187" type="move" name="top"/>
    </contour>
  </outline>
</glyph>
<glyph name="aadeva" format="1">
  <advance width="1973"/>
  <unicode hex="0906"/>
  <note>
    dAa
  </note>
  <outline>
    <component base="adeva"/>
    <component base="uni093E" xOffset="1469"/>
    <contour>
      <point x="31" y="0" type="move" name="nukta"/>
    </contour>
    <contour>
      <point x="1731" y="0" type="move" name="bottom"/>
    </contour>
    <contour>
      <point x="1731" y="1187" type="move" name="top"/>
    </contour>
  </outline>
</glyph>
<glyph name="iideva" format="1">
  <advance width="966"/>
  <unicode hex="0908"/>
  <note>
    dIi
  </note>
  <outline>
    <component base="ideva"/>
    <component base="uni0930094D" xOffset="408"/>
    <contour>
      <point x="809" y="1100" type="move" name="top"/>
    </contour>
  </outline>
</glyph>
<glyph name="khadeva" format="1">
  <advance width="1516"/>
  <unicode hex="0916"/>
  <note>
    dKha
  </note>
  <outline>
    <contour>
      <point x="1516" y="1187" type="line"/>
      <point x="-52" y="1187" type="line"/>
      <point x="2" y="1053" type="line"/>
      <point x="341" y="1053" type="line"/>
      <point x="352" y="983"/>
      <point x="359" y="909"/>
      <point x="359" y="842" type="curve" smooth="yes"/>
      <point x="359" y="755"/>
      <point x="346" y="681"/>
      <point x="326" y="641" type="curve"/>
      <point x="189" y="706" type="line"/>
      <point x="83" y="663" type="line"/>
      <point x="85" y="643"/>
      <point x="88" y="622"/>
      <point x="92" y="598" type="curve" smooth="yes"/>
      <point x="117" y="471"/>
      <point x="180" y="296"/>
      <point x="297" y="158" type="curve" smooth="yes"/>
      <point x="421" y="10"/>
      <point x="596" y="-72"/>
      <point x="817" y="-72" type="curve" smooth="yes"/>
      <point x="886" y="-72"/>
      <point x="936" y="-63"/>
      <point x="1024" y="-35" type="curve"/>
      <point x="961" y="127" type="line"/>
      <point x="859" y="89"/>
      <point x="815" y="82"/>
      <point x="755" y="82" type="curve" smooth="yes"/>
      <point x="568" y="82"/>
      <point x="385" y="152"/>
      <point x="251" y="427" type="curve"/>
      <point x="468" y="487"/>
      <point x="531" y="613"/>
      <point x="531" y="771" type="curve" smooth="yes"/>
      <point x="531" y="848"/>
      <point x="511" y="969"/>
      <point x="482" y="1053" type="curve"/>
      <point x="1187" y="1053" type="line"/>
      <point x="1187" y="732" type="line"/>
      <point x="1106" y="793"/>
      <point x="999" y="826"/>
      <point x="912" y="826" type="curve" smooth="yes"/>
      <point x="697" y="826"/>
      <point x="594" y="711"/>
      <point x="594" y="559" type="curve" smooth="yes"/>
      <point x="594" y="362"/>
      <point x="779" y="211"/>
      <point x="992" y="211" type="curve" smooth="yes"/>
      <point x="1046" y="211"/>
      <point x="1126" y="226"/>
      <point x="1187" y="263" type="curve"/>
      <point x="1187" y="-39" type="line"/>
      <point x="1341" y="-102" type="line"/>
      <point x="1341" y="1053" type="line"/>
      <point x="1568" y="1053" type="line"/>
    </contour>
    <contour>
      <point x="848" y="312"/>
      <point x="834" y="316"/>
      <point x="828" y="321" type="curve"/>
      <point x="788" y="360"/>
      <point x="764" y="425"/>
      <point x="764" y="513" type="curve" smooth="yes"/>
      <point x="764" y="631"/>
      <point x="839" y="697"/>
      <point x="950" y="697" type="curve" smooth="yes"/>
      <point x="1026" y="697"/>
      <point x="1117" y="677"/>
      <point x="1187" y="644" type="curve"/>
      <point x="1187" y="486" type="line"/>
      <point x="1123" y="372"/>
      <point x="996" y="312"/>
      <point x="868" y="312" type="curve" smooth="yes"/>
    </contour>
    <contour>
      <point x="167" y="0" type="move" name="nukta"/>
    </contour>
    <contour>
      <point x="1264" y="0" type="move" name="bottom"/>
    </contour>
    <contour>
      <point x="1264" y="1187" type="move" name="top"/>
    </contour>
  </outline>
</glyph>
<glyph name="tthadeva" format="1">
  <advance width="1157"/>
  <unicode hex="0920"/>
  <note>
    dTtha
  </note>
  <outline>
    <contour>
      <point x="865" y="722"/>
      <point x="872" y="772"/>
      <point x="872" y="830" type="curve" smooth="yes"/>
      <point x="872" y="917"/>
      <point x="857" y="999"/>
      <point x="841" y="1053" type="curve"/>
      <point x="1209" y="1053" type="line"/>
      <point x="1157" y="1187" type="line"/>
      <point x="-52" y="1187" type="line"/>
      <point x="2" y="1053" type="line"/>
      <point x="710" y="1053" type="line"/>
      <point x="712" y="1025"/>
      <point x="714" y="988"/>
      <point x="714" y="947" type="curve" smooth="yes"/>
      <point x="714" y="884"/>
      <point x="710" y="839"/>
      <point x="697" y="807" type="curve"/>
      <point x="507" y="807" type="line" smooth="yes"/>
      <point x="165" y="807"/>
      <point x="108" y="655"/>
      <point x="108" y="516" type="curve" smooth="yes"/>
      <point x="108" y="209"/>
      <point x="346" y="18"/>
      <point x="638" y="18" type="curve" smooth="yes"/>
      <point x="798" y="18"/>
      <point x="913" y="58"/>
      <point x="986" y="132" type="curve" smooth="yes"/>
      <point x="1042" y="190"/>
      <point x="1071" y="269"/>
      <point x="1071" y="349" type="curve" smooth="yes"/>
      <point x="1071" y="488"/>
      <point x="967" y="624"/>
      <point x="845" y="693" type="curve"/>
    </contour>
    <contour>
      <point x="739" y="172"/>
      <point x="633" y="159"/>
      <point x="552" y="159" type="curve" smooth="yes"/>
      <point x="447" y="159"/>
      <point x="371" y="179"/>
      <point x="345" y="204" type="curve" smooth="yes"/>
      <point x="315" y="234"/>
      <point x="281" y="309"/>
      <point x="277" y="415" type="curve"/>
      <point x="277" y="585"/>
      <point x="354" y="666"/>
      <point x="515" y="666" type="curve" smooth="yes"/>
      <point x="791" y="666" type="line"/>
      <point x="852" y="610"/>
      <point x="910" y="513"/>
      <point x="910" y="396" type="curve" smooth="yes"/>
      <point x="910" y="312"/>
      <point x="871" y="256"/>
      <point x="813" y="219" type="curve" smooth="yes"/>
    </contour>
    <contour>
      <point x="85" y="60" type="move" name="nukta"/>
    </contour>
    <contour>
      <point x="664" y="60" type="move" name="bottom"/>
    </contour>
    <contour>
      <point x="761" y="1187" type="move" name="top"/>
    </contour>
  </outline>
</glyph>
<glyph name="ddhadeva" format="1">
  <advance width="1106"/>
  <unicode hex="0922"/>
  <note>
    dDdha
  </note>
  <outline>
    <contour>
      <point x="881" y="700" type="line"/>
      <point x="885" y="790"/>
      <point x="877" y="950"/>
      <point x="854" y="1053" type="curve"/>
      <point x="1158" y="1053" type="line"/>
      <point x="1105" y="1187" type="line"/>
      <point x="-52" y="1187" type="line"/>
      <point x="3" y="1053" type="line"/>
      <point x="726" y="1053" type="line"/>
      <point x="730" y="1011"/>
      <point x="732" y="954"/>
      <point x="732" y="913" type="curve" smooth="yes"/>
      <point x="732" y="889"/>
      <point x="731" y="852"/>
      <point x="730" y="840" type="curve"/>
      <point x="429" y="840" type="line" smooth="yes"/>
      <point x="194" y="840"/>
      <point x="67" y="700"/>
      <point x="67" y="513" type="curve" smooth="yes"/>
      <point x="67" y="330"/>
      <point x="166" y="195"/>
      <point x="294" y="100" type="curve" smooth="yes"/>
      <point x="376" y="37"/>
      <point x="514" y="-8"/>
      <point x="635" y="-8" type="curve" smooth="yes"/>
      <point x="934" y="-8"/>
      <point x="1028" y="149"/>
      <point x="1028" y="301" type="curve" smooth="yes"/>
      <point x="1028" y="404"/>
      <point x="887" y="566"/>
      <point x="743" y="566" type="curve" smooth="yes"/>
      <point x="612" y="566"/>
      <point x="495" y="491"/>
      <point x="495" y="349" type="curve" smooth="yes"/>
      <point x="495" y="271"/>
      <point x="524" y="188"/>
      <point x="558" y="125" type="curve"/>
      <point x="478" y="123"/>
      <point x="369" y="136"/>
      <point x="310" y="187" type="curve" smooth="yes"/>
      <point x="262" y="229"/>
      <point x="234" y="340"/>
      <point x="234" y="438" type="curve" smooth="yes"/>
      <point x="234" y="623"/>
      <point x="325" y="700"/>
      <point x="518" y="700" type="curve" smooth="yes"/>
    </contour>
    <contour>
      <point x="620" y="290"/>
      <point x="670" y="435"/>
      <point x="833" y="435" type="curve" smooth="yes"/>
      <point x="854" y="435"/>
      <point x="874" y="432"/>
      <point x="881" y="426" type="curve" smooth="yes"/>
      <point x="889" y="419"/>
      <point x="901" y="392"/>
      <point x="901" y="355" type="curve" smooth="yes"/>
      <point x="901" y="222"/>
      <point x="745" y="137"/>
      <point x="618" y="126" type="curve"/>
    </contour>
    <contour>
      <point x="79" y="30" type="move" name="nukta"/>
    </contour>
    <contour>
      <point x="658" y="30" type="move" name="bottom"/>
    </contour>
    <contour>
      <point x="790" y="1187" type="move" name="top"/>
    </contour>
  </outline>
</glyph>
<glyph name="thadeva" format="1">
  <advance width="1221"/>
  <unicode hex="0925"/>
  <note>
    dTha
  </note>
  <outline>
    <contour>
      <point x="1221" y="1187" type="line"/>
      <point x="660" y="1187" type="line"/>
      <point x="715" y="1053" type="line"/>
      <point x="924" y="1053" type="line"/>
      <point x="924" y="634" type="line"/>
      <point x="852" y="450"/>
      <point x="694" y="370"/>
      <point x="543" y="370" type="curve" smooth="yes"/>
      <point x="447" y="370"/>
      <point x="370" y="421"/>
      <point x="317" y="476" type="curve"/>
      <point x="515" y="593"/>
      <point x="620" y="720"/>
      <point x="620" y="890" type="curve" smooth="yes"/>
      <point x="620" y="1002"/>
      <point x="558" y="1220"/>
      <point x="332" y="1220" type="curve" smooth="yes"/>
      <point x="205" y="1220"/>
      <point x="120" y="1137"/>
      <point x="120" y="1012" type="curve" smooth="yes"/>
      <point x="120" y="883"/>
      <point x="194" y="795"/>
      <point x="392" y="742" type="curve"/>
      <point x="336" y="685"/>
      <point x="248" y="630"/>
      <point x="114" y="570" type="curve"/>
      <point x="157" y="447"/>
      <point x="305" y="232"/>
      <point x="604" y="232" type="curve" smooth="yes"/>
      <point x="732" y="232"/>
      <point x="837" y="261"/>
      <point x="924" y="341" type="curve"/>
      <point x="924" y="-39" type="line"/>
      <point x="1078" y="-102" type="line"/>
      <point x="1078" y="1053" type="line"/>
      <point x="1273" y="1053" type="line"/>
    </contour>
    <contour>
      <point x="270" y="1050"/>
      <point x="303" y="1102"/>
      <point x="384" y="1102" type="curve" smooth="yes"/>
      <point x="407" y="1102"/>
      <point x="434" y="1098"/>
      <point x="460" y="1081" type="curve" smooth="yes"/>
      <point x="469" y="1075"/>
      <point x="482" y="1039"/>
      <point x="482" y="972" type="curve" smooth="yes"/>
      <point x="482" y="913"/>
      <point x="472" y="860"/>
      <point x="444" y="810" type="curve"/>
      <point x="317" y="852"/>
      <point x="270" y="914"/>
      <point x="270" y="992" type="curve" smooth="yes"/>
    </contour>
    <contour>
      <point x="373" y="0" type="move" name="nukta"/>
    </contour>
    <contour>
      <point x="1001" y="0" type="move" name="bottom"/>
    </contour>
    <contour>
      <point x="1001" y="1187" type="move" name="top"/>
    </contour>
  </outline>
</glyph>
<glyph name="dhadeva" format="1">
  <advance width="1212"/>
  <unicode hex="0927"/>
  <note>
    dDha
  </note>
  <outline>
    <contour>
      <point x="1212" y="1187" type="line"/>
      <point x="667" y="1187" type="line"/>
      <point x="721" y="1053" type="line"/>
      <point x="905" y="1053" type="line"/>
      <point x="905" y="546" type="line"/>
      <point x="844" y="374"/>
      <point x="682" y="259"/>
      <point x="496" y="259" type="curve" smooth="yes"/>
      <point x="455" y="259"/>
      <point x="393" y="270"/>
      <point x="376" y="284" type="curve" smooth="yes"/>
      <point x="363" y="295"/>
      <point x="331" y="342"/>
      <point x="331" y="420" type="curve" smooth="yes"/>
      <point x="331" y="546"/>
      <point x="451" y="620"/>
      <point x="660" y="646" type="curve"/>
      <point x="586" y="793" type="line"/>
      <point x="505" y="786"/>
      <point x="421" y="777"/>
      <point x="335" y="718" type="curve"/>
      <point x="267" y="774"/>
      <point x="239" y="845"/>
      <point x="239" y="908" type="curve" smooth="yes"/>
      <point x="239" y="1009"/>
      <point x="321" y="1082"/>
      <point x="432" y="1082" type="curve" smooth="yes"/>
      <point x="478" y="1082"/>
      <point x="515" y="1077"/>
      <point x="596" y="1038" type="curve"/>
      <point x="527" y="1175" type="line"/>
      <point x="489" y="1191"/>
      <point x="431" y="1207"/>
      <point x="366" y="1207" type="curve" smooth="yes"/>
      <point x="202" y="1207"/>
      <point x="82" y="1105"/>
      <point x="82" y="967" type="curve" smooth="yes"/>
      <point x="82" y="832"/>
      <point x="159" y="727"/>
      <point x="280" y="672" type="curve"/>
      <point x="229" y="620"/>
      <point x="202" y="554"/>
      <point x="202" y="492" type="curve" smooth="yes"/>
      <point x="202" y="287"/>
      <point x="402" y="126"/>
      <point x="580" y="126" type="curve" smooth="yes"/>
      <point x="688" y="126"/>
      <point x="815" y="163"/>
      <point x="905" y="260" type="curve"/>
      <point x="905" y="-39" type="line"/>
      <point x="1059" y="-102" type="line"/>
      <point x="1059" y="1053" type="line"/>
      <point x="1264" y="1053" type="line"/>
    </contour>
    <contour>
      <point x="253" y="0" type="move" name="nukta"/>
    </contour>
    <contour>
      <point x="982" y="0" type="move" name="bottom"/>
    </contour>
    <contour>
      <point x="982" y="1187" type="move" name="top"/>
    </contour>
  </outline>
</glyph>
<glyph name="uni092B" format="1">
  <advance width="1542"/>
  <unicode hex="092B"/>
  <note>
    dPha
  </note>
  <outline>
    <contour>
      <point x="1280" y="740"/>
      <point x="1212" y="779"/>
      <point x="1137" y="779" type="curve" smooth="yes"/>
      <point x="1065" y="779"/>
      <point x="970" y="754"/>
      <point x="877" y="684" type="curve"/>
      <point x="877" y="1053" type="line"/>
      <point x="1594" y="1053" type="line"/>
      <point x="1542" y="1187" type="line"/>
      <point x="-52" y="1187" type="line"/>
      <point x="2" y="1053" type="line"/>
      <point x="133" y="1053" type="line"/>
      <point x="133" y="625" type="line" smooth="yes"/>
      <point x="133" y="340"/>
      <point x="421" y="285"/>
      <point x="513" y="285" type="curve" smooth="yes"/>
      <point x="577" y="285"/>
      <point x="655" y="302"/>
      <point x="722" y="353" type="curve"/>
      <point x="722" y="-39" type="line"/>
      <point x="877" y="-102" type="line"/>
      <point x="877" y="462" type="line"/>
      <point x="959" y="551"/>
      <point x="1093" y="653"/>
      <point x="1220" y="639" type="curve" smooth="yes"/>
      <point x="1279" y="634"/>
      <point x="1322" y="612"/>
      <point x="1327" y="585" type="curve" smooth="yes"/>
      <point x="1330" y="568"/>
      <point x="1332" y="550"/>
      <point x="1332" y="533" type="curve" smooth="yes"/>
      <point x="1332" y="423"/>
      <point x="1262" y="297"/>
      <point x="1113" y="170" type="curve"/>
      <point x="1272" y="52" type="line"/>
      <point x="1395" y="144"/>
      <point x="1463" y="292"/>
      <point x="1463" y="415" type="curve" smooth="yes"/>
      <point x="1463" y="533"/>
      <point x="1421" y="607"/>
      <point x="1343" y="681" type="curve" smooth="yes"/>
    </contour>
    <contour>
      <point x="722" y="597" type="line"/>
      <point x="680" y="510"/>
      <point x="575" y="404"/>
      <point x="439" y="404" type="curve" smooth="yes"/>
      <point x="392" y="404"/>
      <point x="343" y="414"/>
      <point x="332" y="433" type="curve" smooth="yes"/>
      <point x="310" y="470"/>
      <point x="297" y="533"/>
      <point x="297" y="599" type="curve" smooth="yes"/>
      <point x="297" y="1053" type="line"/>
      <point x="722" y="1053" type="line"/>
    </contour>
    <contour>
      <point x="216" y="140" type="move" name="nukta"/>
    </contour>
    <contour>
      <point x="800" y="0" type="move" name="bottom"/>
    </contour>
    <contour>
      <point x="800" y="1187" type="move" name="top"/>
    </contour>
  </outline>
</glyph>
<glyph name="radeva" format="1">
  <advance width="758"/>
  <unicode hex="0930"/>
  <note>
    dRa
  </note>
  <outline>
    <contour>
      <point x="461" y="491"/>
      <point x="609" y="615"/>
      <point x="609" y="803" type="curve" smooth="yes"/>
      <point x="609" y="881"/>
      <point x="585" y="981"/>
      <point x="561" y="1053" type="curve"/>
      <point x="810" y="1053" type="line"/>
      <point x="762" y="1187" type="line"/>
      <point x="-52" y="1187" type="line"/>
      <point x="2" y="1053" type="line"/>
      <point x="437" y="1053" type="line"/>
      <point x="447" y="995"/>
      <point x="454" y="951"/>
      <point x="454" y="898" type="curve" smooth="yes"/>
      <point x="454" y="798"/>
      <point x="422" y="712"/>
      <point x="298" y="630" type="curve"/>
      <point x="190" y="685" type="line"/>
      <point x="68" y="607" type="line"/>
      <point x="158" y="274"/>
      <point x="414" y="42"/>
      <point x="597" y="-79" type="curve"/>
      <point x="697" y="67" type="line"/>
      <point x="530" y="156"/>
      <point x="403" y="223"/>
      <point x="264" y="396" type="curve"/>
    </contour>
    <contour>
      <point x="496" y="1187" type="move" name="top"/>
    </contour>
    <contour>
      <point x="477" y="40" type="move" name="bottom"/>
    </contour>
  </outline>
</glyph>
<glyph name="sadeva" format="1">
  <advance width="1264"/>
  <unicode hex="0938"/>
  <note>
    dSa
  </note>
  <outline>
    <contour>
      <point x="1264" y="1187" type="line"/>
      <point x="-52" y="1187" type="line"/>
      <point x="2" y="1053" type="line"/>
      <point x="349" y="1053" type="line"/>
      <point x="368" y="984"/>
      <point x="378" y="922"/>
      <point x="378" y="854" type="curve" smooth="yes"/>
      <point x="378" y="777"/>
      <point x="356" y="692"/>
      <point x="289" y="635" type="curve"/>
      <point x="176" y="689" type="line"/>
      <point x="73" y="637" type="line"/>
      <point x="134" y="355"/>
      <point x="288" y="74"/>
      <point x="543" y="-102" type="curve"/>
      <point x="634" y="34" type="line"/>
      <point x="439" y="158"/>
      <point x="339" y="262"/>
      <point x="258" y="419" type="curve"/>
      <point x="316" y="444"/>
      <point x="363" y="473"/>
      <point x="400" y="503" type="curve"/>
      <point x="505" y="442"/>
      <point x="595" y="409"/>
      <point x="702" y="409" type="curve" smooth="yes"/>
      <point x="783" y="409"/>
      <point x="851" y="411"/>
      <point x="958" y="452" type="curve"/>
      <point x="958" y="-39" type="line"/>
      <point x="1112" y="-102" type="line"/>
      <point x="1112" y="1053" type="line"/>
      <point x="1316" y="1053" type="line"/>
    </contour>
    <contour>
      <point x="958" y="675" type="line"/>
      <point x="876" y="571"/>
      <point x="756" y="553"/>
      <point x="651" y="553" type="curve" smooth="yes"/>
      <point x="585" y="553"/>
      <point x="517" y="567"/>
      <point x="476" y="585" type="curve"/>
      <point x="522" y="651"/>
      <point x="539" y="724"/>
      <point x="539" y="796" type="curve" smooth="yes"/>
      <point x="539" y="871"/>
      <point x="511" y="974"/>
      <point x="476" y="1053" type="curve"/>
      <point x="958" y="1053" type="line"/>
    </contour>
    <contour>
      <point x="105" y="0" type="move" name="nukta"/>
    </contour>
    <contour>
      <point x="1035" y="0" type="move" name="bottom"/>
    </contour>
    <contour>
      <point x="1035" y="1187" type="move" name="top"/>
    </contour>
  </outline>
</glyph>
<glyph name="uni093A" format="1">
  <advance width="600"/>
  <unicode hex="093A"/>
  <outline>
    <contour>
      <point x="380" y="1135" type="line"/>
      <point x="380" y="1367" type="line"/>
      <point x="226" y="1431" type="line"/>
      <point x="226" y="1135" type="line"/>
    </contour>
    <contour>
      <point x="300" y="1187" type="move" name="_top"/>
    </contour>
  </outline>
</glyph>
<glyph name="udattadeva" format="1">
  <advance width="512"/>
  <unicode hex="0951"/>
  <note>
    dUdatta
  </note>
  <outline>
    <contour>
      <point x="298" y="1282" type="line"/>
      <point x="298" y="1845" type="line"/>
      <point x="187" y="1845" type="line"/>
      <point x="187" y="1282" type="line"/>
    </contour>
    <contour>
      <point x="256" y="950" type="move" name="_top"/>
    </contour>
  </outline>
</glyph>
<glyph name="acutedeva" format="1">
  <advance width="0"/>
  <unicode hex="0954"/>
  <note>
    dAcuteaccent
  </note>
  <outline>
    <contour>
      <point x="-753" y="1292" type="line"/>
      <point x="-323" y="1690" type="line"/>
      <point x="-427" y="1772" type="line"/>
      <point x="-829" y="1372" type="line"/>
    </contour>
  </outline>
</glyph>
<glyph name="onedeva" format="1">
  <advance width="846"/>
  <unicode hex="0967"/>
  <note>
    dOne
  </note>
  <outline>
    <contour>
      <point x="641" y="630"/>
      <point x="726" y="820"/>
      <point x="726" y="1004" type="curve" smooth="yes"/>
      <point x="726" y="1159"/>
      <point x="566" y="1299"/>
      <point x="390" y="1299" type="curve" smooth="yes"/>
      <point x="215" y="1299"/>
      <point x="120" y="1202"/>
      <point x="120" y="1076" type="curve" smooth="yes"/>
      <point x="120" y="930"/>
      <point x="209" y="848"/>
      <point x="462" y="761" type="curve"/>
      <point x="391" y="663"/>
      <point x="281" y="564"/>
      <point x="125" y="453" type="curve"/>
      <point x="417" y="315"/>
      <point x="490" y="259"/>
      <point x="490" y="174" type="curve" smooth="yes"/>
      <point x="490" y="138"/>
      <point x="472" y="111"/>
      <point x="399" y="41" type="curve"/>
      <point x="565" y="-41" type="line"/>
      <point x="634" y="36"/>
      <point x="651" y="69"/>
      <point x="651" y="125" type="curve" smooth="yes"/>
      <point x="651" y="208"/>
      <point x="593" y="263"/>
      <point x="362" y="397" type="curve"/>
    </contour>
    <contour>
      <point x="293" y="1118"/>
      <point x="346" y="1190"/>
      <point x="442" y="1190" type="curve" smooth="yes"/>
      <point x="484" y="1190"/>
      <point x="522" y="1181"/>
      <point x="535" y="1172" type="curve"/>
      <point x="547" y="1165"/>
      <point x="563" y="1124"/>
      <point x="565" y="1075" type="curve" smooth="yes"/>
      <point x="567" y="984"/>
      <point x="546" y="900"/>
      <point x="498" y="817" type="curve"/>
      <point x="340" y="887"/>
      <point x="293" y="966"/>
      <point x="293" y="1046" type="curve" smooth="yes"/>
    </contour>
  </outline>
</glyph>
<glyph name="fourdeva" format="1">
  <advance width="1127"/>
  <unicode hex="096A"/>
  <note>
    dFour
  </note>
  <outline>
    <contour>
      <point x="1033" y="1129"/>
      <point x="791" y="1288"/>
      <point x="718" y="1302" type="curve"/>
      <point x="638" y="1279" type="line"/>
      <point x="818" y="1179"/>
      <point x="890" y="1097"/>
      <point x="888" y="991" type="curve" smooth="yes"/>
      <point x="887" y="884"/>
      <point x="807" y="782"/>
      <point x="581" y="596" type="curve"/>
      <point x="347" y="758"/>
      <point x="288" y="833"/>
      <point x="286" y="958" type="curve" smooth="yes"/>
      <point x="285" y="1051"/>
      <point x="341" y="1112"/>
      <point x="467" y="1177" type="curve"/>
      <point x="326" y="1286" type="line"/>
      <point x="183" y="1210"/>
      <point x="117" y="1119"/>
      <point x="117" y="997" type="curve" smooth="yes"/>
      <point x="116" y="849"/>
      <point x="219" y="731"/>
      <point x="513" y="541" type="curve"/>
      <point x="342" y="399"/>
      <point x="298" y="341"/>
      <point x="296" y="272" type="curve" smooth="yes"/>
      <point x="294" y="207"/>
      <point x="319" y="159"/>
      <point x="377" y="111" type="curve" smooth="yes"/>
      <point x="439" y="59"/>
      <point x="542" y="24"/>
      <point x="634" y="24" type="curve" smooth="yes"/>
      <point x="784" y="24"/>
      <point x="884" y="108"/>
      <point x="884" y="234" type="curve" smooth="yes"/>
      <point x="884" y="336"/>
      <point x="846" y="401"/>
      <point x="704" y="508" type="curve"/>
      <point x="956" y="719"/>
      <point x="1033" y="819"/>
      <point x="1033" y="929" type="curve"/>
    </contour>
    <contour>
      <point x="503" y="95"/>
      <point x="476" y="100"/>
      <point x="467" y="108" type="curve" smooth="yes"/>
      <point x="451" y="122"/>
      <point x="441" y="160"/>
      <point x="441" y="203" type="curve" smooth="yes"/>
      <point x="441" y="268"/>
      <point x="481" y="321"/>
      <point x="639" y="454" type="curve"/>
      <point x="713" y="394"/>
      <point x="735" y="345"/>
      <point x="735" y="268" type="curve" smooth="yes"/>
      <point x="735" y="164"/>
      <point x="655" y="95"/>
      <point x="534" y="95" type="curve" smooth="yes"/>
    </contour>
  </outline>
</glyph>
<glyph name="eightdeva" format="1">
  <advance width="990"/>
  <unicode hex="096E"/>
  <note>
    dEight
  </note>
  <outline>
    <contour>
      <point x="84" y="200"/>
      <point x="251" y="-5"/>
      <point x="517" y="-5" type="curve" smooth="yes"/>
      <point x="679" y="-5"/>
      <point x="788" y="33"/>
      <point x="908" y="98" type="curve"/>
      <point x="830" y="266" type="line"/>
      <point x="724" y="203"/>
      <point x="608" y="150"/>
      <point x="450" y="150" type="curve" smooth="yes"/>
      <point x="337" y="150"/>
      <point x="259" y="180"/>
      <point x="247" y="199" type="curve" smooth="yes"/>
      <point x="234" y="221"/>
      <point x="227" y="248"/>
      <point x="226" y="301" type="curve" smooth="yes"/>
      <point x="224" y="449"/>
      <point x="424" y="790"/>
      <point x="764" y="1220" type="curve"/>
      <point x="611" y="1274" type="line"/>
      <point x="204" y="740"/>
      <point x="84" y="533"/>
      <point x="84" y="369" type="curve" smooth="yes"/>
    </contour>
  </outline>
</glyph>
<glyph name="uni0975" format="1">
  <advance width="1973"/>
  <unicode hex="0975"/>
  <outline>
    <contour>
      <point x="1777" y="1183" type="line"/>
      <point x="1777" y="1373"/>
      <point x="1716" y="1507"/>
      <point x="1594" y="1559" type="curve" smooth="yes"/>
      <point x="1470" y="1611"/>
      <point x="1308" y="1611"/>
      <point x="1202" y="1658" type="curve" smooth="yes"/>
      <point x="1132" y="1689"/>
      <point x="1103" y="1729"/>
      <point x="1042" y="1865" type="curve"/>
      <point x="996" y="1809" type="line"/>
      <point x="1005" y="1683"/>
      <point x="1032" y="1584"/>
      <point x="1172" y="1518" type="curve" smooth="yes"/>
      <point x="1286" y="1465"/>
      <point x="1452" y="1476"/>
      <point x="1557" y="1441" type="curve" smooth="yes"/>
      <point x="1653" y="1409"/>
      <point x="1689" y="1349"/>
      <point x="1712" y="1268" type="curve"/>
      <point x="1662" y="1343"/>
      <point x="1595" y="1393"/>
      <point x="1513" y="1403" type="curve" smooth="yes"/>
      <point x="1380" y="1419"/>
      <point x="1224" y="1374"/>
      <point x="1109" y="1390" type="curve" smooth="yes"/>
      <point x="1038" y="1399"/>
      <point x="989" y="1436"/>
      <point x="898" y="1542" type="curve"/>
      <point x="871" y="1485" type="line"/>
      <point x="899" y="1385"/>
      <point x="977" y="1282"/>
      <point x="1124" y="1257" type="curve" smooth="yes"/>
      <point x="1249" y="1234"/>
      <point x="1415" y="1280"/>
      <point x="1520" y="1275" type="curve" smooth="yes"/>
      <point x="1634" y="1269"/>
      <point x="1683" y="1225"/>
      <point x="1765" y="1054" type="curve"/>
      <point x="1787" y="1105" type="line"/>
      <point x="1780" y="1128"/>
      <point x="1772" y="1151"/>
      <point x="1763" y="1172" type="curve"/>
    </contour>
    <component base="aadeva"/>
  </outline>
</glyph>
<glyph name="uni097A" format="1">
  <advance width="1142"/>
  <unicode hex="097A"/>
  <outline>
    <contour>
      <point x="354" y="992"/>
      <point x="396" y="928"/>
      <point x="417" y="901" type="curve" smooth="yes"/>
      <point x="721" y="514" type="line"/>
      <point x="742" y="490"/>
      <point x="759" y="468"/>
      <point x="775" y="453" type="curve"/>
      <point x="802" y="481"/>
      <point x="821" y="503"/>
      <point x="846" y="536" type="curve"/>
      <point x="841" y="545"/>
      <point x="835" y="555"/>
      <point x="826" y="566" type="curve" smooth="yes"/>
      <point x="491" y="986" type="line" smooth="yes"/>
      <point x="475" y="1006"/>
      <point x="432" y="1057"/>
      <point x="410" y="1070" type="curve"/>
      <point x="372" y="1042"/>
      <point x="357" y="1029"/>
      <point x="340" y="1018" type="curve"/>
    </contour>
    <component base="uni092F"/>
  </outline>
</glyph>
<glyph name="uni097C" format="1">
  <advance width="1334"/>
  <unicode hex="097C"/>
  <note>
    dJja
  </note>
  <outline>
    <contour>
      <point x="1334" y="1187" type="line"/>
      <point x="-52" y="1187" type="line"/>
      <point x="2" y="1053" type="line"/>
      <point x="1050" y="1053" type="line"/>
      <point x="1050" y="768" type="line"/>
      <point x="439" y="768" type="line"/>
      <point x="474" y="667" type="line"/>
      <point x="610" y="611"/>
      <point x="706" y="541"/>
      <point x="706" y="422" type="curve" smooth="yes"/>
      <point x="706" y="327"/>
      <point x="648" y="255"/>
      <point x="533" y="255" type="curve" smooth="yes"/>
      <point x="338" y="255"/>
      <point x="194" y="487"/>
      <point x="111" y="727" type="curve"/>
      <point x="28" y="697" type="line"/>
      <point x="127" y="314"/>
      <point x="310" y="91"/>
      <point x="569" y="91" type="curve" smooth="yes"/>
      <point x="745" y="91"/>
      <point x="878" y="201"/>
      <point x="878" y="360" type="curve" smooth="yes"/>
      <point x="878" y="463"/>
      <point x="810" y="562"/>
      <point x="696" y="625" type="curve"/>
      <point x="1050" y="625" type="line"/>
      <point x="1050" y="-13" type="line"/>
      <point x="56" y="-13" type="line"/>
      <point x="98" y="-124" type="line"/>
      <point x="1204" y="-124" type="line"/>
      <point x="1204" y="1053" type="line"/>
      <point x="1386" y="1053" type="line"/>
    </contour>
  </outline>
</glyph>
<glyph name="increment" format="1">
  <advance width="1300"/>
  <unicode hex="2206"/>
  <outline>
    <contour>
      <point x="76" y="92" type="line"/>
      <point x="98" y="0" type="line"/>
      <point x="1196" y="0" type="line"/>
      <point x="1218" y="90" type="line"/>
      <point x="737" y="1419" type="line"/>
      <point x="633" y="1419" type="line"/>
    </contour>
    <contour>
      <point x="241" y="124" type="line"/>
      <point x="646" y="1089" type="line"/>
      <point x="972" y="171" type="line"/>
    </contour>
  </outline>
</glyph>
<glyph name="radical" format="1">
  <advance width="1287"/>
  <unicode hex="221A"/>
  <outline>
    <contour>
      <point x="289" y="829" type="line"/>
      <point x="725" y="-136" type="line"/>
      <point x="831" y="-111" type="line"/>
      <point x="1279" y="1677" type="line"/>
      <point x="1149" y="1677" type="line"/>
      <point x="775" y="194" type="line"/>
      <point x="419" y="991" type="line"/>
      <point x="62" y="824" type="line"/>
      <point x="104" y="744" type="line"/>
    </contour>
  </outline>
</glyph>
<glyph name="dottedcircle" format="1">
  <advance width="1152"/>
  <unicode hex="25CC"/>
  <outline>
    <contour>
      <point x="601" y="907"/>
      <point x="662" y="969"/>
      <point x="662" y="994" type="curve" smooth="yes"/>
      <point x="662" y="1019"/>
      <point x="601" y="1080"/>
      <point x="576" y="1080" type="curve" smooth="yes"/>
      <point x="551" y="1080"/>
      <point x="490" y="1019"/>
      <point x="490" y="994" type="curve" smooth="yes"/>
      <point x="490" y="969"/>
      <point x="551" y="907"/>
      <point x="576" y="907" type="curve" smooth="yes"/>
    </contour>
    <contour>
      <point x="290" y="779"/>
      <point x="351" y="840"/>
      <point x="351" y="865" type="curve" smooth="yes"/>
      <point x="351" y="889"/>
      <point x="290" y="950"/>
      <point x="266" y="950" type="curve" smooth="yes"/>
      <point x="241" y="950"/>
      <point x="180" y="889"/>
      <point x="180" y="865" type="curve" smooth="yes"/>
      <point x="180" y="840"/>
      <point x="241" y="779"/>
      <point x="266" y="779" type="curve" smooth="yes"/>
    </contour>
    <contour>
      <point x="800" y="840"/>
      <point x="862" y="779"/>
      <point x="887" y="779" type="curve" smooth="yes"/>
      <point x="911" y="779"/>
      <point x="972" y="840"/>
      <point x="972" y="865" type="curve" smooth="yes"/>
      <point x="972" y="889"/>
      <point x="911" y="950"/>
      <point x="887" y="950" type="curve" smooth="yes"/>
      <point x="862" y="950"/>
      <point x="800" y="889"/>
      <point x="800" y="865" type="curve" smooth="yes"/>
    </contour>
    <contour>
      <point x="161" y="468"/>
      <point x="223" y="529"/>
      <point x="223" y="554" type="curve" smooth="yes"/>
      <point x="223" y="579"/>
      <point x="161" y="640"/>
      <point x="136" y="640" type="curve" smooth="yes"/>
      <point x="112" y="640"/>
      <point x="50" y="579"/>
      <point x="50" y="554" type="curve" smooth="yes"/>
      <point x="50" y="529"/>
      <point x="112" y="468"/>
      <point x="136" y="468" type="curve" smooth="yes"/>
    </contour>
    <contour>
      <point x="930" y="529"/>
      <point x="991" y="468"/>
      <point x="1015" y="468" type="curve" smooth="yes"/>
      <point x="1041" y="468"/>
      <point x="1102" y="529"/>
      <point x="1102" y="554" type="curve" smooth="yes"/>
      <point x="1102" y="579"/>
      <point x="1041" y="640"/>
      <point x="1015" y="640" type="curve" smooth="yes"/>
      <point x="991" y="640"/>
      <point x="930" y="579"/>
      <point x="930" y="554" type="curve" smooth="yes"/>
    </contour>
    <contour>
      <point x="180" y="218"/>
      <point x="241" y="157"/>
      <point x="266" y="157" type="curve" smooth="yes"/>
      <point x="290" y="157"/>
      <point x="351" y="218"/>
      <point x="351" y="242" type="curve" smooth="yes"/>
      <point x="351" y="268"/>
      <point x="290" y="329"/>
      <point x="266" y="329" type="curve" smooth="yes"/>
      <point x="241" y="329"/>
      <point x="180" y="268"/>
      <point x="180" y="242" type="curve" smooth="yes"/>
    </contour>
    <contour>
      <point x="800" y="218"/>
      <point x="862" y="157"/>
      <point x="887" y="157" type="curve" smooth="yes"/>
      <point x="911" y="157"/>
      <point x="972" y="218"/>
      <point x="972" y="242" type="curve" smooth="yes"/>
      <point x="972" y="268"/>
      <point x="911" y="329"/>
      <point x="887" y="329" type="curve" smooth="yes"/>
      <point x="862" y="329"/>
      <point x="800" y="268"/>
      <point x="800" y="242" type="curve" smooth="yes"/>
    </contour>
    <contour>
      <point x="490" y="89"/>
      <point x="551" y="28"/>
      <point x="576" y="28" type="curve" smooth="yes"/>
      <point x="601" y="28"/>
      <point x="662" y="89"/>
      <point x="662" y="115" type="curve" smooth="yes"/>
      <point x="662" y="139"/>
      <point x="601" y="201"/>
      <point x="576" y="201" type="curve" smooth="yes"/>
      <point x="551" y="201"/>
      <point x="490" y="139"/>
      <point x="490" y="115" type="curve" smooth="yes"/>
    </contour>
  </outline>
</glyph>
<glyph name="fi" format="1">
  <advance width="1229"/>
  <unicode hex="FB01"/>
  <outline>
    <contour>
      <point x="76" y="87" type="line"/>
      <point x="58" y="0" type="line"/>
      <point x="565" y="0" type="line"/>
      <point x="581" y="79" type="line"/>
      <point x="400" y="126" type="line"/>
      <point x="400" y="813" type="line"/>
      <point x="720" y="845" type="line"/>
      <point x="769" y="835"/>
      <point x="824" y="807"/>
      <point x="858" y="772" type="curve"/>
      <point x="858" y="127" type="line"/>
      <point x="710" y="84" type="line"/>
      <point x="695" y="0" type="line"/>
      <point x="1199" y="0" type="line"/>
      <point x="1215" y="77" type="line"/>
      <point x="1036" y="126" type="line"/>
      <point x="1036" y="960" type="line"/>
      <point x="400" y="950" type="line"/>
      <point x="401" y="1230"/>
      <point x="499" y="1366"/>
      <point x="708" y="1366" type="curve" smooth="yes"/>
      <point x="735" y="1366"/>
      <point x="765" y="1365"/>
      <point x="795" y="1360" type="curve"/>
      <point x="839" y="1189" type="line"/>
      <point x="856" y="1181"/>
      <point x="881" y="1172"/>
      <point x="905" y="1172" type="curve" smooth="yes"/>
      <point x="971" y="1172"/>
      <point x="1037" y="1246"/>
      <point x="1037" y="1305" type="curve" smooth="yes"/>
      <point x="1037" y="1358"/>
      <point x="991" y="1391"/>
      <point x="959" y="1410" type="curve" smooth="yes"/>
      <point x="908" y="1440"/>
      <point x="808" y="1472"/>
      <point x="711" y="1472" type="curve" smooth="yes"/>
      <point x="567" y="1472"/>
      <point x="485" y="1450"/>
      <point x="405" y="1398" type="curve" smooth="yes"/>
      <point x="257" y="1299"/>
      <point x="222" y="1127"/>
      <point x="222" y="950" type="curve"/>
      <point x="74" y="950" type="line"/>
      <point x="56" y="861" type="line"/>
      <point x="222" y="811" type="line"/>
      <point x="222" y="136" type="line"/>
    </contour>
  </outline>
</glyph>
<glyph name="breve.case" format="1">
  <advance width="1024"/>
  <outline>
    <contour>
      <point x="683" y="1492"/>
      <point x="767" y="1606"/>
      <point x="767" y="1703" type="curve" smooth="yes"/>
      <point x="767" y="1731"/>
      <point x="761" y="1754"/>
      <point x="748" y="1766" type="curve"/>
      <point x="645" y="1766" type="line"/>
      <point x="641" y="1653"/>
      <point x="564" y="1603"/>
      <point x="511" y="1603" type="curve" smooth="yes"/>
      <point x="459" y="1603"/>
      <point x="382" y="1653"/>
      <point x="378" y="1765" type="curve"/>
      <point x="277" y="1766" type="line"/>
      <point x="263" y="1757"/>
      <point x="256" y="1733"/>
      <point x="256" y="1702" type="curve" smooth="yes"/>
      <point x="256" y="1608"/>
      <point x="340" y="1492"/>
      <point x="511" y="1492" type="curve" smooth="yes"/>
    </contour>
    <contour>
      <point x="512" y="1384" type="move" name="_top"/>
    </contour>
  </outline>
</glyph>
<glyph name="dadeva_uuvowelsigndeva" format="1">
  <advance width="1198"/>
  <note>
    dDMatraUu
  </note>
  <outline>
    <contour>
      <point x="1100" y="-144"/>
      <point x="1033" y="-70"/>
      <point x="949" y="-26" type="curve" smooth="yes"/>
      <point x="895" y="2"/>
      <point x="850" y="47"/>
      <point x="805" y="129" type="curve"/>
      <point x="816" y="135"/>
      <point x="828" y="142"/>
      <point x="839" y="149" type="curve" smooth="yes"/>
      <point x="904" y="190"/>
      <point x="991" y="275"/>
      <point x="991" y="320" type="curve" smooth="yes"/>
      <point x="991" y="328"/>
      <point x="989" y="334"/>
      <point x="984" y="340" type="curve" smooth="yes"/>
      <point x="927" y="408"/>
      <point x="807" y="470"/>
      <point x="724" y="470" type="curve" smooth="yes"/>
      <point x="672" y="470"/>
      <point x="636" y="448"/>
      <point x="636" y="391" type="curve" smooth="yes"/>
      <point x="636" y="355"/>
      <point x="652" y="288"/>
      <point x="671" y="242" type="curve"/>
      <point x="613" y="206"/>
      <point x="506" y="183"/>
      <point x="417" y="196" type="curve" smooth="yes"/>
      <point x="384" y="200"/>
      <point x="353" y="208"/>
      <point x="324" y="221" type="curve" smooth="yes"/>
      <point x="291" y="236"/>
      <point x="246" y="348"/>
      <point x="246" y="446" type="curve" smooth="yes"/>
      <point x="246" y="556"/>
      <point x="268" y="668"/>
      <point x="496" y="668" type="curve" smooth="yes"/>
      <point x="832" y="668" type="line"/>
      <point x="848" y="734"/>
      <point x="854" y="785"/>
      <point x="854" y="836" type="curve" smooth="yes"/>
      <point x="854" y="901"/>
      <point x="844" y="964"/>
      <point x="825" y="1053" type="curve"/>
      <point x="1249" y="1053" type="line"/>
      <point x="1197" y="1187" type="line"/>
      <point x="-52" y="1187" type="line"/>
      <point x="2" y="1053" type="line"/>
      <point x="690" y="1053" type="line"/>
      <point x="694" y="1009"/>
      <point x="698" y="966"/>
      <point x="696" y="919" type="curve" smooth="yes"/>
      <point x="695" y="892"/>
      <point x="695" y="859"/>
      <point x="687" y="816" type="curve"/>
      <point x="488" y="816" type="line" smooth="yes"/>
      <point x="145" y="816"/>
      <point x="79" y="660"/>
      <point x="79" y="518" type="curve" smooth="yes"/>
      <point x="79" y="210"/>
      <point x="319" y="60"/>
      <point x="547" y="60" type="curve" smooth="yes"/>
      <point x="610" y="60"/>
      <point x="664" y="69"/>
      <point x="715" y="87" type="curve"/>
      <point x="726" y="55"/>
      <point x="738" y="28"/>
      <point x="752" y="4" type="curve"/>
      <point x="630" y="-13"/>
      <point x="534" y="-88"/>
      <point x="534" y="-210" type="curve" smooth="yes"/>
      <point x="534" y="-343"/>
      <point x="686" y="-466"/>
      <point x="803" y="-466" type="curve" smooth="yes"/>
      <point x="878" y="-466"/>
      <point x="934" y="-441"/>
      <point x="992" y="-383" type="curve"/>
      <point x="917" y="-261" type="line"/>
      <point x="854" y="-308"/>
      <point x="814" y="-330"/>
      <point x="753" y="-330" type="curve" smooth="yes"/>
      <point x="711" y="-330"/>
      <point x="675" y="-320"/>
      <point x="668" y="-314" type="curve"/>
      <point x="660" y="-308"/>
      <point x="655" y="-273"/>
      <point x="655" y="-254" type="curve" smooth="yes"/>
      <point x="655" y="-168"/>
      <point x="732" y="-128"/>
      <point x="834" y="-128" type="curve" smooth="yes"/>
      <point x="972" y="-128"/>
      <point x="1056" y="-253"/>
      <point x="1196" y="-440" type="curve"/>
      <point x="1250" y="-391" type="line"/>
      <point x="1239" y="-356"/>
      <point x="1191" y="-273"/>
      <point x="1152" y="-216" type="curve" smooth="yes"/>
    </contour>
    <contour>
      <point x="748" y="1187" type="move" name="top"/>
    </contour>
  </outline>
</glyph>
<glyph name="hungarumlaut.case" format="1">
  <advance width="1024"/>
  <outline>
    <contour>
      <point x="218" y="1605" type="line"/>
      <point x="255" y="1460" type="line"/>
      <point x="515" y="1698" type="line"/>
      <point x="495" y="1800" type="line"/>
      <point x="384" y="1800" type="line"/>
    </contour>
    <contour>
      <point x="515" y="1605" type="line"/>
      <point x="553" y="1460" type="line"/>
      <point x="812" y="1698" type="line"/>
      <point x="792" y="1800" type="line"/>
      <point x="681" y="1800" type="line"/>
    </contour>
    <contour>
      <point x="460" y="1384" type="move" name="_top"/>
    </contour>
  </outline>
</glyph>
<glyph name="jhadeva_uvowelsigndeva" format="1">
  <advance width="1403"/>
  <outline>
    <contour>
      <point x="1255" y="1053" type="line"/>
      <point x="1453" y="1053" type="line"/>
      <point x="1404" y="1187" type="line"/>
      <point x="-52" y="1187" type="line"/>
      <point x="3" y="1053" type="line"/>
      <point x="628" y="1053" type="line"/>
      <point x="632" y="1022"/>
      <point x="634" y="990"/>
      <point x="634" y="954" type="curve" smooth="yes"/>
      <point x="634" y="928"/>
      <point x="633" y="903"/>
      <point x="631" y="889" type="curve"/>
      <point x="407" y="889" type="line" smooth="yes"/>
      <point x="302" y="889"/>
      <point x="149" y="862"/>
      <point x="149" y="702" type="curve" smooth="yes"/>
      <point x="149" y="605"/>
      <point x="261" y="387"/>
      <point x="483" y="387" type="curve" smooth="yes"/>
      <point x="643" y="387"/>
      <point x="704" y="437"/>
      <point x="788" y="437" type="curve" smooth="yes"/>
      <point x="802" y="437"/>
      <point x="810" y="395"/>
      <point x="809" y="355" type="curve" smooth="yes"/>
      <point x="806" y="211"/>
      <point x="616" y="139"/>
      <point x="489" y="139" type="curve" smooth="yes"/>
      <point x="465" y="139"/>
      <point x="442" y="140"/>
      <point x="413" y="145" type="curve"/>
      <point x="355" y="256"/>
      <point x="324" y="311"/>
      <point x="295" y="311" type="curve" smooth="yes"/>
      <point x="230" y="311"/>
      <point x="128" y="244"/>
      <point x="128" y="167" type="curve" smooth="yes"/>
      <point x="128" y="103"/>
      <point x="236" y="46"/>
      <point x="345" y="16" type="curve"/>
      <point x="420" y="-146"/>
      <point x="504" y="-268"/>
      <point x="624" y="-268" type="curve" smooth="yes"/>
      <point x="675" y="-268"/>
      <point x="711" y="-260"/>
      <point x="764" y="-225" type="curve"/>
      <point x="697" y="-92" type="line"/>
      <point x="661" y="-113"/>
      <point x="648" y="-120"/>
      <point x="612" y="-120" type="curve" smooth="yes"/>
      <point x="555" y="-120"/>
      <point x="507" y="-90"/>
      <point x="461" y="-3" type="curve"/>
      <point x="482" y="-4" type="line" smooth="yes"/>
      <point x="717" y="-4"/>
      <point x="920" y="93"/>
      <point x="920" y="314" type="curve" smooth="yes"/>
      <point x="920" y="335"/>
      <point x="915" y="363"/>
      <point x="905" y="392" type="curve"/>
      <point x="948" y="377"/>
      <point x="992" y="373"/>
      <point x="1034" y="387" type="curve"/>
      <point x="1056" y="391"/>
      <point x="1079" y="398"/>
      <point x="1101" y="406" type="curve"/>
      <point x="1101" y="-30" type="line"/>
      <point x="1070" y="-42"/>
      <point x="1037" y="-61"/>
      <point x="1002" y="-89" type="curve"/>
      <point x="1090" y="-205" type="line"/>
      <point x="1163" y="-155"/>
      <point x="1226" y="-135"/>
      <point x="1272" y="-135" type="curve" smooth="yes"/>
      <point x="1317" y="-135"/>
      <point x="1367" y="-152"/>
      <point x="1378" y="-170" type="curve" smooth="yes"/>
      <point x="1383" y="-178"/>
      <point x="1387" y="-210"/>
      <point x="1386" y="-225" type="curve" smooth="yes"/>
      <point x="1382" y="-321"/>
      <point x="1307" y="-389"/>
      <point x="1182" y="-389" type="curve" smooth="yes"/>
      <point x="1052" y="-389"/>
      <point x="959" y="-302"/>
      <point x="888" y="-201" type="curve"/>
      <point x="813" y="-253" type="line"/>
      <point x="881" y="-361"/>
      <point x="999" y="-520"/>
      <point x="1215" y="-520" type="curve" smooth="yes"/>
      <point x="1375" y="-520"/>
      <point x="1488" y="-425"/>
      <point x="1488" y="-274" type="curve" smooth="yes"/>
      <point x="1488" y="-142"/>
      <point x="1370" y="-34"/>
      <point x="1255" y="-14" type="curve"/>
    </contour>
    <contour>
      <point x="885" y="501"/>
      <point x="861" y="503"/>
      <point x="837" y="508" type="curve"/>
      <point x="815" y="533"/>
      <point x="788" y="554"/>
      <point x="757" y="566" type="curve" smooth="yes"/>
      <point x="740" y="572"/>
      <point x="724" y="576"/>
      <point x="706" y="576" type="curve" smooth="yes"/>
      <point x="596" y="576"/>
      <point x="446" y="522"/>
      <point x="377" y="522" type="curve" smooth="yes"/>
      <point x="354" y="522"/>
      <point x="338" y="522"/>
      <point x="328" y="534" type="curve"/>
      <point x="313" y="554"/>
      <point x="302" y="594"/>
      <point x="302" y="623" type="curve" smooth="yes"/>
      <point x="302" y="670"/>
      <point x="311" y="741"/>
      <point x="426" y="741" type="curve" smooth="yes"/>
      <point x="783" y="741" type="line"/>
      <point x="789" y="787"/>
      <point x="791" y="812"/>
      <point x="791" y="843" type="curve" smooth="yes"/>
      <point x="791" y="917"/>
      <point x="782" y="993"/>
      <point x="766" y="1053" type="curve"/>
      <point x="1101" y="1053" type="line"/>
      <point x="1101" y="562" type="line"/>
      <point x="1043" y="524"/>
      <point x="976" y="502"/>
      <point x="908" y="501" type="curve" smooth="yes"/>
    </contour>
    <contour>
      <point x="1178" y="1187" type="move" name="top"/>
    </contour>
  </outline>
</glyph>
<glyph name="radeva.post2" format="1">
  <advance width="0"/>
  <outline>
    <contour>
      <point x="-324" y="477" type="line"/>
      <point x="-917" y="55" type="line"/>
      <point x="-794" y="-88" type="line"/>
      <point x="-260" y="392" type="line"/>
    </contour>
  </outline>
</glyph>
<glyph name="radeva_uvowelsigndeva" format="1">
  <advance width="972"/>
  <note>
    dRMatraU
  </note>
  <outline>
    <contour>
      <point x="683" y="1187" type="line"/>
      <point x="739" y="1053" type="line"/>
      <point x="1022" y="1053" type="line"/>
      <point x="973" y="1187" type="line"/>
    </contour>
    <contour>
      <point x="454" y="520" type="line"/>
      <point x="532" y="596"/>
      <point x="609" y="629"/>
      <point x="696" y="629" type="curve"/>
      <point x="722" y="630"/>
      <point x="748" y="627"/>
      <point x="768" y="613" type="curve"/>
      <point x="777" y="606"/>
      <point x="787" y="580"/>
      <point x="787" y="557" type="curve" smooth="yes"/>
      <point x="787" y="461"/>
      <point x="733" y="411"/>
      <point x="603" y="318" type="curve"/>
      <point x="747" y="195" type="line"/>
      <point x="884" y="309"/>
      <point x="913" y="350"/>
      <point x="913" y="452" type="curve"/>
      <point x="912" y="603"/>
      <point x="774" y="752"/>
      <point x="618" y="752" type="curve" smooth="yes"/>
      <point x="521" y="751"/>
      <point x="457" y="731"/>
      <point x="370" y="640" type="curve"/>
    </contour>
    <component base="radeva"/>
    <contour>
      <point x="509" y="1187" type="move" name="top"/>
    </contour>
  </outline>
</glyph>
<glyph name="ring.case" format="1">
  <advance width="1024"/>
  <outline>
    <contour>
      <point x="620" y="1326"/>
      <point x="697" y="1402"/>
      <point x="697" y="1510" type="curve" smooth="yes"/>
      <point x="697" y="1612"/>
      <point x="610" y="1679"/>
      <point x="517" y="1679" type="curve" smooth="yes"/>
      <point x="401" y="1679"/>
      <point x="327" y="1599"/>
      <point x="327" y="1494" type="curve" smooth="yes"/>
      <point x="327" y="1391"/>
      <point x="411" y="1326"/>
      <point x="510" y="1326" type="curve" smooth="yes"/>
    </contour>
    <contour>
      <point x="460" y="1419"/>
      <point x="433" y="1465"/>
      <point x="433" y="1511" type="curve" smooth="yes"/>
      <point x="433" y="1551"/>
      <point x="460" y="1588"/>
      <point x="503" y="1588" type="curve" smooth="yes"/>
      <point x="558" y="1588"/>
      <point x="589" y="1543"/>
      <point x="589" y="1493" type="curve" smooth="yes"/>
      <point x="589" y="1451"/>
      <point x="563" y="1419"/>
      <point x="519" y="1419" type="curve" smooth="yes"/>
    </contour>
    <contour>
      <point x="512" y="1384" type="move" name="_top"/>
    </contour>
  </outline>
</glyph>
<glyph name="uni0915094D" format="1">
  <advance width="1122"/>
  <note>
    dK.half
  </note>
  <outline>
    <contour>
      <point x="1322" y="751" type="line"/>
      <point x="1255" y="808"/>
      <point x="1176" y="826"/>
      <point x="1121" y="826" type="curve" smooth="yes"/>
      <point x="1022" y="826"/>
      <point x="930" y="782"/>
      <point x="836" y="688" type="curve"/>
      <point x="836" y="1053" type="line"/>
      <point x="1174" y="1053" type="line"/>
      <point x="1123" y="1187" type="line"/>
      <point x="-56" y="1187" type="line"/>
      <point x="-1" y="1053" type="line"/>
      <point x="685" y="1053" type="line"/>
      <point x="685" y="716" type="line"/>
      <point x="593" y="793"/>
      <point x="482" y="844"/>
      <point x="387" y="844" type="curve" smooth="yes"/>
      <point x="167" y="844"/>
      <point x="63" y="709"/>
      <point x="63" y="546" type="curve" smooth="yes"/>
      <point x="63" y="355"/>
      <point x="237" y="170"/>
      <point x="420" y="170" type="curve" smooth="yes"/>
      <point x="483" y="170"/>
      <point x="575" y="180"/>
      <point x="685" y="258" type="curve"/>
      <point x="685" y="-39" type="line"/>
      <point x="836" y="-101" type="line"/>
      <point x="836" y="438" type="line"/>
      <point x="952" y="616"/>
      <point x="1084" y="706"/>
      <point x="1182" y="706" type="curve" smooth="yes"/>
      <point x="1258" y="706"/>
      <point x="1302" y="682"/>
      <point x="1377" y="616" type="curve"/>
    </contour>
    <contour>
      <point x="685" y="486" type="line"/>
      <point x="586" y="338"/>
      <point x="436" y="289"/>
      <point x="340" y="289" type="curve" smooth="yes"/>
      <point x="321" y="289"/>
      <point x="295" y="292"/>
      <point x="290" y="298" type="curve"/>
      <point x="250" y="340"/>
      <point x="223" y="418"/>
      <point x="223" y="504" type="curve" smooth="yes"/>
      <point x="223" y="624"/>
      <point x="312" y="705"/>
      <point x="437" y="705" type="curve" smooth="yes"/>
      <point x="535" y="705"/>
      <point x="600" y="679"/>
      <point x="685" y="624" type="curve"/>
    </contour>
  </outline>
</glyph>
<glyph name="uni0915094D0930.alt" format="1">
  <advance width="1466"/>
  <note>
    dKRa.alt
  </note>
  <outline>
    <contour>
      <point x="1035" y="776"/>
      <point x="957" y="758"/>
      <point x="862" y="673" type="curve"/>
      <point x="862" y="1053" type="line"/>
      <point x="1517" y="1053" type="line"/>
      <point x="1468" y="1187" type="line"/>
      <point x="-56" y="1187" type="line"/>
      <point x="-1" y="1053" type="line"/>
      <point x="708" y="1053" type="line"/>
      <point x="708" y="637" type="line"/>
      <point x="664" y="675" type="line" smooth="yes"/>
      <point x="523" y="795"/>
      <point x="415" y="838"/>
      <point x="327" y="838" type="curve" smooth="yes"/>
      <point x="224" y="838"/>
      <point x="146" y="813"/>
      <point x="19" y="702" type="curve"/>
      <point x="133" y="567" type="line"/>
      <point x="265" y="680"/>
      <point x="310" y="689"/>
      <point x="361" y="689" type="curve" smooth="yes"/>
      <point x="432" y="689"/>
      <point x="503" y="663"/>
      <point x="676" y="525" type="curve"/>
      <point x="103" y="106" type="line"/>
      <point x="227" y="-28" type="line"/>
      <point x="708" y="394" type="line"/>
      <point x="708" y="-39" type="line"/>
      <point x="862" y="-102" type="line"/>
      <point x="862" y="454" type="line"/>
      <point x="985" y="605"/>
      <point x="1096" y="656"/>
      <point x="1183" y="656" type="curve" smooth="yes"/>
      <point x="1260" y="656"/>
      <point x="1303" y="615"/>
      <point x="1309" y="597" type="curve"/>
      <point x="1311" y="592"/>
      <point x="1312" y="583"/>
      <point x="1312" y="576" type="curve" smooth="yes"/>
      <point x="1312" y="433"/>
      <point x="1229" y="311"/>
      <point x="1018" y="184" type="curve"/>
      <point x="1160" y="66" type="line"/>
      <point x="1315" y="178"/>
      <point x="1430" y="302"/>
      <point x="1430" y="452" type="curve" smooth="yes"/>
      <point x="1430" y="608"/>
      <point x="1281" y="776"/>
      <point x="1119" y="776" type="curve" smooth="yes"/>
    </contour>
    <contour>
      <point x="785" y="1187" type="move" name="top"/>
    </contour>
    <contour>
      <point x="785" y="0" type="move" name="bottom"/>
    </contour>
  </outline>
</glyph>
<glyph name="uni0917094D0930" format="1">
  <advance width="1204"/>
  <note>
    dGRa
  </note>
  <outline>
    <contour>
      <point x="867" y="458" type="line"/>
      <point x="246" y="47" type="line"/>
      <point x="365" y="-98" type="line"/>
      <point x="925" y="368" type="line"/>
    </contour>
    <component base="gadeva"/>
  </outline>
</glyph>
<glyph name="uni0918094D0928" format="1">
  <advance width="1221"/>
  <note>
    dGhNa
  </note>
  <outline>
    <contour>
      <point x="1224" y="1187" type="line"/>
      <point x="-60" y="1187" type="line"/>
      <point x="-1" y="1053" type="line"/>
      <point x="134" y="1053" type="line"/>
      <point x="101" y="1013"/>
      <point x="82" y="962"/>
      <point x="82" y="903" type="curve" smooth="yes"/>
      <point x="82" y="788"/>
      <point x="157" y="712"/>
      <point x="249" y="661" type="curve"/>
      <point x="239" y="651"/>
      <point x="230" y="640"/>
      <point x="221" y="628" type="curve" smooth="yes"/>
      <point x="192" y="589"/>
      <point x="168" y="539"/>
      <point x="168" y="493" type="curve" smooth="yes"/>
      <point x="168" y="278"/>
      <point x="372" y="151"/>
      <point x="535" y="132" type="curve"/>
      <point x="375" y="29"/>
      <point x="335" y="1"/>
      <point x="335" y="-34" type="curve" smooth="yes"/>
      <point x="335" y="-39"/>
      <point x="336" y="-44"/>
      <point x="339" y="-49" type="curve"/>
      <point x="383" y="-110"/>
      <point x="461" y="-140"/>
      <point x="554" y="-146" type="curve" smooth="yes"/>
      <point x="586" y="-149"/>
      <point x="627" y="-136"/>
      <point x="626" y="-103" type="curve"/>
      <point x="626" y="-62"/>
      <point x="602" y="2"/>
      <point x="584" y="28" type="curve"/>
      <point x="677" y="96"/>
      <point x="764" y="153"/>
      <point x="869" y="228" type="curve"/>
      <point x="874" y="232" type="line" smooth="yes"/>
      <point x="883" y="239"/>
      <point x="893" y="247"/>
      <point x="903" y="256" type="curve"/>
      <point x="903" y="-40" type="line"/>
      <point x="1057" y="-101" type="line"/>
      <point x="1057" y="1053" type="line"/>
      <point x="1273" y="1053" type="line"/>
    </contour>
    <contour>
      <point x="399" y="258"/>
      <point x="351" y="270"/>
      <point x="341" y="280" type="curve" smooth="yes"/>
      <point x="330" y="291"/>
      <point x="299" y="324"/>
      <point x="296" y="393" type="curve"/>
      <point x="296" y="528"/>
      <point x="425" y="618"/>
      <point x="639" y="645" type="curve"/>
      <point x="562" y="785" type="line"/>
      <point x="515" y="785"/>
      <point x="403" y="772"/>
      <point x="308" y="709" type="curve"/>
      <point x="262" y="757"/>
      <point x="246" y="813"/>
      <point x="246" y="870" type="curve" smooth="yes"/>
      <point x="246" y="963"/>
      <point x="313" y="1053"/>
      <point x="426" y="1053" type="curve" smooth="yes"/>
      <point x="903" y="1053" type="line"/>
      <point x="903" y="512" type="line"/>
      <point x="763" y="318"/>
      <point x="609" y="258"/>
      <point x="438" y="258" type="curve" smooth="yes"/>
    </contour>
    <contour>
      <point x="980" y="1187" type="move" name="top"/>
    </contour>
    <contour>
      <point x="980" y="0" type="move" name="bottom"/>
    </contour>
  </outline>
</glyph>
<glyph name="uni0919094D0915094D0930" format="1">
  <advance width="1302"/>
  <note>
    dNgKRa
  </note>
  <outline>
    <contour>
      <point x="605" y="-266" type="line"/>
      <point x="160" y="-512" type="line"/>
      <point x="264" y="-653" type="line"/>
      <point x="656" y="-335" type="line"/>
    </contour>
    <component base="uni0919094D0915"/>
    <contour>
      <point x="819" y="1187" type="move" name="top"/>
    </contour>
    <contour>
      <point x="691" y="-470" type="move" name="bottom"/>
    </contour>
  </outline>
</glyph>
<glyph name="uni0919094D0918" format="1">
  <advance width="1296"/>
  <note>
    dNgGha
  </note>
  <outline>
    <contour>
      <point x="855" y="669"/>
      <point x="830" y="674"/>
      <point x="807" y="674" type="curve" smooth="yes"/>
      <point x="705" y="674"/>
      <point x="543" y="613"/>
      <point x="472" y="613" type="curve" smooth="yes"/>
      <point x="449" y="613"/>
      <point x="437" y="616"/>
      <point x="427" y="626" type="curve"/>
      <point x="412" y="637"/>
      <point x="399" y="667"/>
      <point x="399" y="708" type="curve" smooth="yes"/>
      <point x="399" y="755"/>
      <point x="429" y="784"/>
      <point x="503" y="784" type="curve" smooth="yes"/>
      <point x="921" y="784" type="line"/>
      <point x="930" y="850"/>
      <point x="929" y="853"/>
      <point x="929" y="904" type="curve" smooth="yes"/>
      <point x="929" y="936"/>
      <point x="922" y="998"/>
      <point x="907" y="1053" type="curve"/>
      <point x="1348" y="1053" type="line"/>
      <point x="1299" y="1187" type="line"/>
      <point x="-52" y="1187" type="line"/>
      <point x="4" y="1053" type="line"/>
      <point x="753" y="1053" type="line"/>
      <point x="756" y="1024"/>
      <point x="758" y="993"/>
      <point x="758" y="975" type="curve" smooth="yes"/>
      <point x="758" y="945"/>
      <point x="757" y="930"/>
      <point x="755" y="915" type="curve"/>
      <point x="466" y="915" type="line" smooth="yes"/>
      <point x="358" y="915"/>
      <point x="231" y="895"/>
      <point x="231" y="767" type="curve" smooth="yes"/>
      <point x="231" y="669"/>
      <point x="380" y="477"/>
      <point x="588" y="477" type="curve" smooth="yes"/>
      <point x="688" y="477"/>
      <point x="837" y="533"/>
      <point x="878" y="540" type="curve" smooth="yes"/>
      <point x="884" y="541"/>
      <point x="892" y="542"/>
      <point x="898" y="537" type="curve" smooth="yes"/>
      <point x="903" y="533"/>
      <point x="911" y="515"/>
      <point x="911" y="475" type="curve" smooth="yes"/>
      <point x="911" y="399"/>
      <point x="812" y="317"/>
      <point x="651" y="317" type="curve" smooth="yes"/>
      <point x="518" y="317"/>
      <point x="356" y="332"/>
      <point x="153" y="635" type="curve"/>
      <point x="67" y="589" type="line"/>
      <point x="136" y="464"/>
      <point x="221" y="364"/>
      <point x="316" y="293" type="curve"/>
      <point x="257" y="261"/>
      <point x="210" y="212"/>
      <point x="210" y="135" type="curve" smooth="yes"/>
      <point x="210" y="60"/>
      <point x="264" y="11"/>
      <point x="326" y="-23" type="curve"/>
      <point x="319" y="-28"/>
      <point x="312" y="-33"/>
      <point x="306" y="-38" type="curve" smooth="yes"/>
      <point x="265" y="-73"/>
      <point x="239" y="-118"/>
      <point x="239" y="-176" type="curve" smooth="yes"/>
      <point x="239" y="-338"/>
      <point x="443" y="-460"/>
      <point x="553" y="-460" type="curve" smooth="yes"/>
      <point x="688" y="-460"/>
      <point x="774" y="-417"/>
      <point x="833" y="-368" type="curve"/>
      <point x="833" y="-513" type="line"/>
      <point x="969" y="-572" type="line"/>
      <point x="969" y="256" type="line"/>
      <point x="1011" y="299"/>
      <point x="1034" y="354"/>
      <point x="1034" y="417" type="curve" smooth="yes"/>
      <point x="1034" y="491"/>
      <point x="980" y="603"/>
      <point x="876" y="657" type="curve"/>
    </contour>
    <contour>
      <point x="1090" y="818"/>
      <point x="993" y="741"/>
      <point x="993" y="691" type="curve" smooth="yes"/>
      <point x="993" y="666"/>
      <point x="1075" y="561"/>
      <point x="1117" y="561" type="curve" smooth="yes"/>
      <point x="1147" y="561"/>
      <point x="1249" y="641"/>
      <point x="1249" y="689" type="curve" smooth="yes"/>
      <point x="1249" y="712"/>
      <point x="1165" y="818"/>
      <point x="1123" y="818" type="curve" smooth="yes"/>
    </contour>
    <contour>
      <point x="455" y="-336"/>
      <point x="414" y="-330"/>
      <point x="400" y="-321" type="curve"/>
      <point x="388" y="-312"/>
      <point x="371" y="-286"/>
      <point x="370" y="-249" type="curve"/>
      <point x="370" y="-189"/>
      <point x="431" y="-108"/>
      <point x="684" y="-72" type="curve"/>
      <point x="616" y="65" type="line"/>
      <point x="531" y="56"/>
      <point x="451" y="39"/>
      <point x="387" y="11" type="curve"/>
      <point x="362" y="42"/>
      <point x="354" y="76"/>
      <point x="355" y="108" type="curve" smooth="yes"/>
      <point x="357" y="162"/>
      <point x="399" y="195"/>
      <point x="449" y="215" type="curve"/>
      <point x="527" y="180"/>
      <point x="609" y="162"/>
      <point x="692" y="162" type="curve" smooth="yes"/>
      <point x="744" y="162"/>
      <point x="792" y="168"/>
      <point x="833" y="180" type="curve"/>
      <point x="833" y="-156" type="line"/>
      <point x="755" y="-256"/>
      <point x="616" y="-336"/>
      <point x="491" y="-336" type="curve" smooth="yes"/>
    </contour>
    <contour>
      <point x="823" y="1187" type="move" name="top"/>
    </contour>
    <contour>
      <point x="901" y="-470" type="move" name="bottom"/>
    </contour>
  </outline>
</glyph>
<glyph name="uni0919094D0918094D0930" format="1">
  <advance width="1296"/>
  <note>
    dNgGhRa
  </note>
  <outline>
    <contour>
      <point x="813" y="-243" type="line"/>
      <point x="319" y="-539" type="line"/>
      <point x="423" y="-681" type="line"/>
      <point x="880" y="-330" type="line"/>
    </contour>
    <component base="uni0919094D0918"/>
    <contour>
      <point x="819" y="1187" type="move" name="top"/>
    </contour>
    <contour>
      <point x="911" y="-490" type="move" name="bottom"/>
    </contour>
  </outline>
</glyph>
<glyph name="uni0919094D092E" format="1">
  <advance width="1297"/>
  <note>
    dNgMa
  </note>
  <outline>
    <contour>
      <point x="855" y="669"/>
      <point x="830" y="674"/>
      <point x="807" y="674" type="curve" smooth="yes"/>
      <point x="705" y="674"/>
      <point x="543" y="613"/>
      <point x="472" y="613" type="curve" smooth="yes"/>
      <point x="449" y="613"/>
      <point x="437" y="616"/>
      <point x="427" y="626" type="curve"/>
      <point x="412" y="637"/>
      <point x="399" y="667"/>
      <point x="399" y="708" type="curve" smooth="yes"/>
      <point x="399" y="755"/>
      <point x="429" y="784"/>
      <point x="503" y="784" type="curve" smooth="yes"/>
      <point x="920" y="784" type="line"/>
      <point x="930" y="851"/>
      <point x="929" y="846"/>
      <point x="929" y="904" type="curve" smooth="yes"/>
      <point x="929" y="936"/>
      <point x="922" y="998"/>
      <point x="907" y="1053" type="curve"/>
      <point x="1349" y="1053" type="line"/>
      <point x="1299" y="1187" type="line"/>
      <point x="-52" y="1187" type="line"/>
      <point x="4" y="1053" type="line"/>
      <point x="753" y="1053" type="line"/>
      <point x="756" y="1024"/>
      <point x="758" y="993"/>
      <point x="758" y="975" type="curve" smooth="yes"/>
      <point x="758" y="945"/>
      <point x="757" y="930"/>
      <point x="755" y="915" type="curve"/>
      <point x="466" y="915" type="line" smooth="yes"/>
      <point x="358" y="915"/>
      <point x="231" y="895"/>
      <point x="231" y="767" type="curve" smooth="yes"/>
      <point x="231" y="669"/>
      <point x="380" y="477"/>
      <point x="588" y="477" type="curve" smooth="yes"/>
      <point x="688" y="477"/>
      <point x="837" y="533"/>
      <point x="878" y="540" type="curve" smooth="yes"/>
      <point x="884" y="541"/>
      <point x="892" y="542"/>
      <point x="898" y="537" type="curve" smooth="yes"/>
      <point x="903" y="533"/>
      <point x="911" y="515"/>
      <point x="911" y="475" type="curve" smooth="yes"/>
      <point x="911" y="399"/>
      <point x="812" y="317"/>
      <point x="651" y="317" type="curve" smooth="yes"/>
      <point x="522" y="317"/>
      <point x="321" y="383"/>
      <point x="152" y="636" type="curve"/>
      <point x="66" y="590" type="line"/>
      <point x="145" y="448"/>
      <point x="243" y="340"/>
      <point x="352" y="268" type="curve"/>
      <point x="352" y="-63" type="line"/>
      <point x="342" y="-63" type="line" smooth="yes"/>
      <point x="303" y="-63"/>
      <point x="187" y="-70"/>
      <point x="187" y="-118" type="curve" smooth="yes"/>
      <point x="187" y="-198"/>
      <point x="363" y="-372"/>
      <point x="432" y="-372" type="curve" smooth="yes"/>
      <point x="489" y="-372"/>
      <point x="496" y="-276"/>
      <point x="496" y="-206" type="curve"/>
      <point x="815" y="-206" type="line"/>
      <point x="815" y="-509" type="line"/>
      <point x="959" y="-558" type="line"/>
      <point x="959" y="246" type="line"/>
      <point x="1008" y="290"/>
      <point x="1034" y="349"/>
      <point x="1034" y="417" type="curve" smooth="yes"/>
      <point x="1034" y="491"/>
      <point x="980" y="603"/>
      <point x="876" y="657" type="curve"/>
    </contour>
    <contour>
      <point x="1080" y="828"/>
      <point x="983" y="751"/>
      <point x="983" y="701" type="curve" smooth="yes"/>
      <point x="983" y="676"/>
      <point x="1065" y="571"/>
      <point x="1107" y="571" type="curve" smooth="yes"/>
      <point x="1137" y="571"/>
      <point x="1239" y="651"/>
      <point x="1239" y="699" type="curve" smooth="yes"/>
      <point x="1239" y="722"/>
      <point x="1155" y="828"/>
      <point x="1113" y="828" type="curve" smooth="yes"/>
    </contour>
    <contour>
      <point x="815" y="-68" type="line"/>
      <point x="494" y="-68" type="line"/>
      <point x="494" y="196" type="line"/>
      <point x="558" y="174"/>
      <point x="625" y="162"/>
      <point x="692" y="162" type="curve" smooth="yes"/>
      <point x="737" y="162"/>
      <point x="778" y="167"/>
      <point x="815" y="175" type="curve"/>
    </contour>
    <contour>
      <point x="823" y="1187" type="move" name="top"/>
    </contour>
    <contour>
      <point x="887" y="-460" type="move" name="bottom"/>
    </contour>
  </outline>
</glyph>
<glyph name="uni091A094D" format="1">
  <advance width="813"/>
  <note>
    dC.half
  </note>
  <outline>
    <contour>
      <point x="813" y="1187" type="line"/>
      <point x="-58" y="1187" type="line"/>
      <point x="0" y="1053" type="line"/>
      <point x="864" y="1053" type="line"/>
    </contour>
    <contour>
      <point x="976" y="567" type="line"/>
      <point x="830" y="348"/>
      <point x="661" y="269"/>
      <point x="506" y="269" type="curve" smooth="yes"/>
      <point x="465" y="269"/>
      <point x="421" y="280"/>
      <point x="405" y="294" type="curve" smooth="yes"/>
      <point x="390" y="307"/>
      <point x="374" y="347"/>
      <point x="374" y="405" type="curve" smooth="yes"/>
      <point x="374" y="541"/>
      <point x="466" y="661"/>
      <point x="699" y="663" type="curve" smooth="yes"/>
      <point x="721" y="663" type="line"/>
      <point x="668" y="804" type="line"/>
      <point x="31" y="804" type="line"/>
      <point x="86" y="663" type="line"/>
      <point x="334" y="663" type="line"/>
      <point x="263" y="620"/>
      <point x="217" y="553"/>
      <point x="217" y="457" type="curve" smooth="yes"/>
      <point x="217" y="423"/>
      <point x="226" y="383"/>
      <point x="249" y="347" type="curve" smooth="yes"/>
      <point x="330" y="219"/>
      <point x="490" y="136"/>
      <point x="637" y="136" type="curve" smooth="yes"/>
      <point x="781" y="136"/>
      <point x="935" y="220"/>
      <point x="1063" y="397" type="curve"/>
    </contour>
  </outline>
</glyph>
<glyph name="uni091A094D091A" format="1">
  <advance width="2006"/>
  <note>
    dCCa
  </note>
  <outline>
    <contour>
      <point x="2057" y="1053" type="line"/>
      <point x="2005" y="1187" type="line"/>
      <point x="-55" y="1187" type="line"/>
      <point x="0" y="1053" type="line"/>
      <point x="1661" y="1053" type="line"/>
      <point x="1661" y="537" type="line"/>
      <point x="1588" y="360"/>
      <point x="1442" y="269"/>
      <point x="1285" y="269" type="curve" smooth="yes"/>
      <point x="1244" y="269"/>
      <point x="1200" y="280"/>
      <point x="1184" y="294" type="curve" smooth="yes"/>
      <point x="1169" y="307"/>
      <point x="1153" y="347"/>
      <point x="1153" y="405" type="curve" smooth="yes"/>
      <point x="1153" y="541"/>
      <point x="1259" y="661"/>
      <point x="1478" y="663" type="curve" smooth="yes"/>
      <point x="1499" y="663" type="line"/>
      <point x="1446" y="804" type="line"/>
      <point x="814" y="804" type="line"/>
      <point x="869" y="663" type="line"/>
      <point x="1116" y="663" type="line"/>
      <point x="983" y="461"/>
      <point x="809" y="269"/>
      <point x="566" y="269" type="curve" smooth="yes"/>
      <point x="525" y="269"/>
      <point x="481" y="280"/>
      <point x="465" y="294" type="curve" smooth="yes"/>
      <point x="450" y="307"/>
      <point x="434" y="347"/>
      <point x="434" y="405" type="curve" smooth="yes"/>
      <point x="434" y="541"/>
      <point x="526" y="661"/>
      <point x="759" y="663" type="curve" smooth="yes"/>
      <point x="774" y="663" type="line"/>
      <point x="722" y="804" type="line"/>
      <point x="92" y="804" type="line"/>
      <point x="145" y="663" type="line"/>
      <point x="394" y="663" type="line"/>
      <point x="323" y="620"/>
      <point x="277" y="553"/>
      <point x="277" y="457" type="curve" smooth="yes"/>
      <point x="277" y="423"/>
      <point x="286" y="383"/>
      <point x="309" y="347" type="curve" smooth="yes"/>
      <point x="390" y="219"/>
      <point x="550" y="136"/>
      <point x="697" y="136" type="curve" smooth="yes"/>
      <point x="815" y="136"/>
      <point x="947" y="206"/>
      <point x="1050" y="316" type="curve"/>
      <point x="1124" y="221"/>
      <point x="1253" y="138"/>
      <point x="1368" y="138" type="curve" smooth="yes"/>
      <point x="1486" y="138"/>
      <point x="1579" y="165"/>
      <point x="1661" y="248" type="curve"/>
      <point x="1661" y="-39" type="line"/>
      <point x="1815" y="-102" type="line"/>
      <point x="1815" y="1053" type="line"/>
    </contour>
    <contour>
      <point x="1738" y="1187" type="move" name="top"/>
    </contour>
    <contour>
      <point x="1738" y="0" type="move" name="bottom"/>
    </contour>
  </outline>
</glyph>
<glyph name="uni091A094D0932.loclMAR" format="1">
  <advance width="1214"/>
  <note>
    dCLa.MAR
  </note>
  <outline>
    <contour>
      <point x="1036" y="1053" type="line"/>
      <point x="1268" y="1053" type="line"/>
      <point x="1217" y="1187" type="line"/>
      <point x="-57" y="1187" type="line"/>
      <point x="0" y="1053" type="line"/>
      <point x="882" y="1053" type="line"/>
      <point x="882" y="655" type="line"/>
      <point x="786" y="508"/>
      <point x="663" y="447"/>
      <point x="506" y="447" type="curve" smooth="yes"/>
      <point x="465" y="447"/>
      <point x="419" y="455"/>
      <point x="405" y="466" type="curve"/>
      <point x="394" y="474"/>
      <point x="374" y="532"/>
      <point x="374" y="571" type="curve" smooth="yes"/>
      <point x="374" y="670"/>
      <point x="455" y="744"/>
      <point x="626" y="753" type="curve"/>
      <point x="720" y="753" type="line"/>
      <point x="670" y="884" type="line"/>
      <point x="54" y="884" type="line"/>
      <point x="106" y="753" type="line"/>
      <point x="310" y="753" type="line"/>
      <point x="258" y="725"/>
      <point x="227" y="685"/>
      <point x="227" y="620" type="curve" smooth="yes"/>
      <point x="227" y="586"/>
      <point x="238" y="555"/>
      <point x="261" y="517" type="curve" smooth="yes"/>
      <point x="330" y="402"/>
      <point x="462" y="326"/>
      <point x="589" y="326" type="curve" smooth="yes"/>
      <point x="711" y="326"/>
      <point x="800" y="351"/>
      <point x="882" y="422" type="curve"/>
      <point x="882" y="187" type="line"/>
      <point x="797" y="186"/>
      <point x="726" y="152"/>
      <point x="668" y="97" type="curve"/>
      <point x="573" y="162"/>
      <point x="493" y="194"/>
      <point x="418" y="194" type="curve" smooth="yes"/>
      <point x="285" y="194"/>
      <point x="142" y="119"/>
      <point x="142" y="-65" type="curve" smooth="yes"/>
      <point x="142" y="-253"/>
      <point x="291" y="-399"/>
      <point x="538" y="-515" type="curve"/>
      <point x="575" y="-437" type="line"/>
      <point x="386" y="-327"/>
      <point x="305" y="-218"/>
      <point x="305" y="-85" type="curve" smooth="yes"/>
      <point x="305" y="33"/>
      <point x="404" y="76"/>
      <point x="482" y="76" type="curve" smooth="yes"/>
      <point x="522" y="76"/>
      <point x="565" y="68"/>
      <point x="620" y="44" type="curve"/>
      <point x="581" y="-9"/>
      <point x="557" y="-69"/>
      <point x="543" y="-159" type="curve"/>
      <point x="682" y="-208" type="line"/>
      <point x="763" y="63"/>
      <point x="888" y="75"/>
      <point x="951" y="75" type="curve" smooth="yes"/>
      <point x="986" y="75"/>
      <point x="1027" y="63"/>
      <point x="1038" y="54" type="curve" smooth="yes"/>
      <point x="1054" y="40"/>
      <point x="1059" y="-14"/>
      <point x="1059" y="-39" type="curve" smooth="yes"/>
      <point x="1059" y="-195"/>
      <point x="947" y="-287"/>
      <point x="764" y="-411" type="curve"/>
      <point x="910" y="-526" type="line"/>
      <point x="1081" y="-399"/>
      <point x="1185" y="-285"/>
      <point x="1185" y="-117" type="curve" smooth="yes"/>
      <point x="1185" y="-33"/>
      <point x="1125" y="75"/>
      <point x="1036" y="137" type="curve"/>
    </contour>
    <contour>
      <point x="959" y="1187" type="move" name="top"/>
    </contour>
    <contour>
      <point x="918" y="-360" type="move" name="bottom"/>
    </contour>
  </outline>
</glyph>
<glyph name="uni091B094D0928" format="1">
  <advance width="1243"/>
  <note>
    dChNa
  </note>
  <outline>
    <contour>
      <point x="982" y="987"/>
      <point x="973" y="1021"/>
      <point x="960" y="1053" type="curve"/>
      <point x="1295" y="1053" type="line"/>
      <point x="1246" y="1187" type="line"/>
      <point x="-52" y="1187" type="line"/>
      <point x="3" y="1053" type="line"/>
      <point x="96" y="1053" type="line"/>
      <point x="81" y="1029"/>
      <point x="72" y="1001"/>
      <point x="72" y="968" type="curve" smooth="yes"/>
      <point x="72" y="899"/>
      <point x="118" y="839"/>
      <point x="225" y="797" type="curve"/>
      <point x="156" y="751"/>
      <point x="108" y="686"/>
      <point x="108" y="597" type="curve" smooth="yes"/>
      <point x="108" y="425"/>
      <point x="318" y="228"/>
      <point x="615" y="228" type="curve" smooth="yes"/>
      <point x="662" y="228"/>
      <point x="707" y="232"/>
      <point x="749" y="239" type="curve"/>
      <point x="749" y="95" type="line"/>
      <point x="348" y="95" type="line" smooth="yes"/>
      <point x="308" y="95"/>
      <point x="263" y="94"/>
      <point x="237" y="85" type="curve" smooth="yes"/>
      <point x="218" y="79"/>
      <point x="212" y="60"/>
      <point x="212" y="48" type="curve" smooth="yes"/>
      <point x="212" y="-50"/>
      <point x="314" y="-176"/>
      <point x="398" y="-204" type="curve"/>
      <point x="402" y="-205"/>
      <point x="410" y="-207"/>
      <point x="416" y="-207" type="curve" smooth="yes"/>
      <point x="425" y="-207"/>
      <point x="434" y="-205"/>
      <point x="443" y="-198" type="curve" smooth="yes"/>
      <point x="474" y="-174"/>
      <point x="491" y="-102"/>
      <point x="496" y="-43" type="curve"/>
      <point x="749" y="-43" type="line"/>
      <point x="749" y="-349" type="line"/>
      <point x="903" y="-410" type="line"/>
      <point x="903" y="286" type="line"/>
      <point x="1064" y="360"/>
      <point x="1154" y="500"/>
      <point x="1154" y="662" type="curve" smooth="yes"/>
      <point x="1154" y="787"/>
      <point x="1092" y="906"/>
      <point x="982" y="955" type="curve"/>
    </contour>
    <contour>
      <point x="456" y="351"/>
      <point x="377" y="351"/>
      <point x="349" y="366" type="curve" smooth="yes"/>
      <point x="330" y="376"/>
      <point x="263" y="432"/>
      <point x="263" y="532" type="curve" smooth="yes"/>
      <point x="263" y="653"/>
      <point x="412" y="702"/>
      <point x="577" y="720" type="curve"/>
      <point x="499" y="877" type="line"/>
      <point x="432" y="873"/>
      <point x="362" y="860"/>
      <point x="300" y="835" type="curve"/>
      <point x="255" y="867"/>
      <point x="241" y="899"/>
      <point x="241" y="937" type="curve" smooth="yes"/>
      <point x="241" y="1037"/>
      <point x="317" y="1053"/>
      <point x="430" y="1053" type="curve" smooth="yes"/>
      <point x="853" y="1053" type="line"/>
      <point x="854" y="1039"/>
      <point x="855" y="1023"/>
      <point x="855" y="1004" type="curve" smooth="yes"/>
      <point x="855" y="995"/>
      <point x="854" y="986"/>
      <point x="853" y="977" type="curve"/>
      <point x="743" y="971"/>
      <point x="657" y="908"/>
      <point x="649" y="804" type="curve"/>
      <point x="649" y="659"/>
      <point x="742" y="597"/>
      <point x="963" y="546" type="curve"/>
      <point x="867" y="421"/>
      <point x="674" y="351"/>
      <point x="505" y="351" type="curve" smooth="yes"/>
    </contour>
    <contour>
      <point x="1010" y="841"/>
      <point x="1023" y="804"/>
      <point x="1023" y="717" type="curve" smooth="yes"/>
      <point x="1023" y="678"/>
      <point x="1015" y="642"/>
      <point x="1001" y="609" type="curve"/>
      <point x="895" y="639"/>
      <point x="811" y="677"/>
      <point x="811" y="771" type="curve" smooth="yes"/>
      <point x="811" y="847"/>
      <point x="856" y="885"/>
      <point x="929" y="885" type="curve" smooth="yes"/>
      <point x="945" y="885"/>
      <point x="988" y="879"/>
      <point x="994" y="868" type="curve"/>
    </contour>
    <contour>
      <point x="888" y="1187" type="move" name="top"/>
    </contour>
    <contour>
      <point x="826" y="-290" type="move" name="bottom"/>
    </contour>
  </outline>
</glyph>
<glyph name="uni091F094D091F094D092F" format="1">
  <advance width="2196"/>
  <note>
    dTtTtYa
  </note>
  <outline>
    <contour>
      <point x="2199" y="1187" type="line"/>
      <point x="1040" y="1187" type="line"/>
      <point x="1094" y="1053" type="line"/>
      <point x="1891" y="1053" type="line"/>
      <point x="1891" y="489" type="line"/>
      <point x="1813" y="332"/>
      <point x="1649" y="250"/>
      <point x="1506" y="250" type="curve" smooth="yes"/>
      <point x="1413" y="250"/>
      <point x="1354" y="271"/>
      <point x="1285" y="319" type="curve"/>
      <point x="1526" y="412"/>
      <point x="1622" y="517"/>
      <point x="1622" y="640" type="curve" smooth="yes"/>
      <point x="1622" y="728"/>
      <point x="1539" y="882"/>
      <point x="1371" y="882" type="curve" smooth="yes"/>
      <point x="764" y="882" type="line"/>
      <point x="824" y="738" type="line"/>
      <point x="1397" y="738" type="line" smooth="yes"/>
      <point x="1478" y="738"/>
      <point x="1514" y="724"/>
      <point x="1519" y="706" type="curve" smooth="yes"/>
      <point x="1530" y="666"/>
      <point x="1349" y="516"/>
      <point x="1123" y="446" type="curve"/>
      <point x="1236" y="195"/>
      <point x="1400" y="104"/>
      <point x="1565" y="98" type="curve"/>
      <point x="1664" y="98"/>
      <point x="1766" y="118"/>
      <point x="1891" y="221" type="curve"/>
      <point x="1891" y="-39" type="line"/>
      <point x="2045" y="-102" type="line"/>
      <point x="2045" y="1053" type="line"/>
      <point x="2248" y="1053" type="line"/>
    </contour>
    <component base="uni091F094D091F"/>
    <contour>
      <point x="1964" y="1187" type="move" name="top"/>
    </contour>
    <contour>
      <point x="1964" y="0" type="move" name="bottom"/>
    </contour>
  </outline>
</glyph>
<glyph name="uni091F094D0935" format="1">
  <advance width="1123"/>
  <note>
    dTtVa
  </note>
  <outline>
    <contour>
      <point x="437" y="336"/>
      <point x="341" y="376"/>
      <point x="324" y="391" type="curve"/>
      <point x="293" y="423"/>
      <point x="280" y="484"/>
      <point x="280" y="562" type="curve" smooth="yes"/>
      <point x="280" y="677"/>
      <point x="352" y="737"/>
      <point x="496" y="737" type="curve" smooth="yes"/>
      <point x="886" y="737" type="line"/>
      <point x="898" y="772"/>
      <point x="903" y="809"/>
      <point x="903" y="854" type="curve" smooth="yes"/>
      <point x="903" y="908"/>
      <point x="892" y="971"/>
      <point x="869" y="1053" type="curve"/>
      <point x="1175" y="1053" type="line"/>
      <point x="1124" y="1187" type="line"/>
      <point x="-56" y="1187" type="line"/>
      <point x="0" y="1053" type="line"/>
      <point x="731" y="1053" type="line"/>
      <point x="733" y="1030"/>
      <point x="733" y="1007"/>
      <point x="733" y="984" type="curve" smooth="yes"/>
      <point x="733" y="955"/>
      <point x="729" y="911"/>
      <point x="718" y="878" type="curve"/>
      <point x="442" y="878" type="line" smooth="yes"/>
      <point x="137" y="878"/>
      <point x="103" y="745"/>
      <point x="103" y="626" type="curve" smooth="yes"/>
      <point x="103" y="382"/>
      <point x="362" y="204"/>
      <point x="614" y="204" type="curve" smooth="yes"/>
      <point x="807" y="204"/>
      <point x="943" y="276"/>
      <point x="1070" y="428" type="curve"/>
      <point x="945" y="548" type="line"/>
      <point x="799" y="389"/>
      <point x="673" y="336"/>
      <point x="527" y="336" type="curve" smooth="yes"/>
    </contour>
    <component base="vadeva.post"/>
    <contour>
      <point x="763" y="1187" type="move" name="top"/>
    </contour>
    <contour>
      <point x="816" y="-430" type="move" name="bottom"/>
    </contour>
  </outline>
</glyph>
<glyph name="uni0921094D0921" format="1">
  <advance width="1094"/>
  <note>
    dDdDda
  </note>
  <outline>
    <contour>
      <point x="1030" y="491"/>
      <point x="976" y="603"/>
      <point x="872" y="657" type="curve"/>
      <point x="851" y="669"/>
      <point x="826" y="674"/>
      <point x="803" y="674" type="curve" smooth="yes"/>
      <point x="701" y="674"/>
      <point x="539" y="613"/>
      <point x="468" y="613" type="curve" smooth="yes"/>
      <point x="445" y="613"/>
      <point x="433" y="616"/>
      <point x="423" y="626" type="curve"/>
      <point x="408" y="637"/>
      <point x="395" y="667"/>
      <point x="395" y="708" type="curve" smooth="yes"/>
      <point x="395" y="755"/>
      <point x="425" y="784"/>
      <point x="499" y="784" type="curve" smooth="yes"/>
      <point x="917" y="784" type="line"/>
      <point x="922" y="824"/>
      <point x="925" y="864"/>
      <point x="925" y="903" type="curve"/>
      <point x="924" y="954"/>
      <point x="917" y="1004"/>
      <point x="903" y="1053" type="curve"/>
      <point x="1146" y="1053" type="line"/>
      <point x="1095" y="1187" type="line"/>
      <point x="-55" y="1187" type="line"/>
      <point x="-0" y="1053" type="line"/>
      <point x="749" y="1053" type="line"/>
      <point x="752" y="1024"/>
      <point x="754" y="993"/>
      <point x="754" y="975" type="curve" smooth="yes"/>
      <point x="754" y="945"/>
      <point x="753" y="930"/>
      <point x="751" y="915" type="curve"/>
      <point x="462" y="915" type="line" smooth="yes"/>
      <point x="354" y="915"/>
      <point x="227" y="895"/>
      <point x="227" y="767" type="curve" smooth="yes"/>
      <point x="227" y="669"/>
      <point x="376" y="477"/>
      <point x="584" y="477" type="curve" smooth="yes"/>
      <point x="684" y="477"/>
      <point x="833" y="533"/>
      <point x="874" y="540" type="curve" smooth="yes"/>
      <point x="880" y="541"/>
      <point x="888" y="542"/>
      <point x="894" y="537" type="curve" smooth="yes"/>
      <point x="899" y="533"/>
      <point x="907" y="515"/>
      <point x="907" y="475" type="curve" smooth="yes"/>
      <point x="907" y="399"/>
      <point x="808" y="317"/>
      <point x="647" y="317" type="curve" smooth="yes"/>
      <point x="518" y="317"/>
      <point x="323" y="374"/>
      <point x="150" y="635" type="curve"/>
      <point x="61" y="589" type="line"/>
      <point x="221" y="308"/>
      <point x="447" y="162"/>
      <point x="688" y="162" type="curve" smooth="yes"/>
      <point x="704" y="162"/>
      <point x="719" y="163"/>
      <point x="734" y="164" type="curve"/>
      <point x="735" y="149"/>
      <point x="736" y="135"/>
      <point x="736" y="126" type="curve" smooth="yes"/>
      <point x="736" y="96"/>
      <point x="735" y="82"/>
      <point x="732" y="68" type="curve"/>
      <point x="453" y="68" type="line" smooth="yes"/>
      <point x="349" y="68"/>
      <point x="229" y="48"/>
      <point x="229" y="-75" type="curve" smooth="yes"/>
      <point x="229" y="-170"/>
      <point x="372" y="-353"/>
      <point x="566" y="-353" type="curve" smooth="yes"/>
      <point x="663" y="-353"/>
      <point x="810" y="-299"/>
      <point x="852" y="-292" type="curve" smooth="yes"/>
      <point x="857" y="-291"/>
      <point x="863" y="-290"/>
      <point x="869" y="-295" type="curve"/>
      <point x="873" y="-299"/>
      <point x="881" y="-318"/>
      <point x="881" y="-355" type="curve" smooth="yes"/>
      <point x="881" y="-430"/>
      <point x="787" y="-507"/>
      <point x="633" y="-507" type="curve" smooth="yes"/>
      <point x="504" y="-507"/>
      <point x="321" y="-454"/>
      <point x="153" y="-202" type="curve"/>
      <point x="69" y="-245" type="line"/>
      <point x="222" y="-514"/>
      <point x="441" y="-656"/>
      <point x="667" y="-656" type="curve" smooth="yes"/>
      <point x="877" y="-656"/>
      <point x="1000" y="-555"/>
      <point x="1000" y="-412" type="curve" smooth="yes"/>
      <point x="1000" y="-339"/>
      <point x="949" y="-233"/>
      <point x="850" y="-181" type="curve"/>
      <point x="827" y="-170"/>
      <point x="805" y="-165"/>
      <point x="781" y="-165" type="curve" smooth="yes"/>
      <point x="685" y="-165"/>
      <point x="529" y="-223"/>
      <point x="456" y="-223" type="curve" smooth="yes"/>
      <point x="439" y="-223"/>
      <point x="427" y="-221"/>
      <point x="415" y="-211" type="curve" smooth="yes"/>
      <point x="401" y="-199"/>
      <point x="391" y="-171"/>
      <point x="391" y="-132" type="curve" smooth="yes"/>
      <point x="391" y="-87"/>
      <point x="418" y="-59"/>
      <point x="491" y="-59" type="curve" smooth="yes"/>
      <point x="891" y="-59" type="line"/>
      <point x="898" y="-25"/>
      <point x="901" y="11"/>
      <point x="901" y="48" type="curve"/>
      <point x="900" y="98"/>
      <point x="893" y="148"/>
      <point x="878" y="198" type="curve"/>
      <point x="976" y="240"/>
      <point x="1030" y="319"/>
      <point x="1030" y="417" type="curve"/>
    </contour>
    <contour>
      <point x="819" y="1187" type="move" name="top"/>
    </contour>
    <contour>
      <point x="617" y="-570" type="move" name="bottom"/>
    </contour>
  </outline>
</glyph>
<glyph name="uni0922094D0922094D092F" format="1">
  <advance width="2144"/>
  <note>
    dDdhDdhYa
  </note>
  <outline>
    <contour>
      <point x="2145" y="1187" type="line"/>
      <point x="1007" y="1187" type="line"/>
      <point x="1064" y="1053" type="line"/>
      <point x="1847" y="1053" type="line"/>
      <point x="1842" y="489" type="line"/>
      <point x="1837" y="489" type="line"/>
      <point x="1759" y="352"/>
      <point x="1605" y="265"/>
      <point x="1462" y="265" type="curve" smooth="yes"/>
      <point x="1369" y="265"/>
      <point x="1300" y="299"/>
      <point x="1231" y="359" type="curve"/>
      <point x="1472" y="449"/>
      <point x="1578" y="549"/>
      <point x="1578" y="652" type="curve" smooth="yes"/>
      <point x="1578" y="740"/>
      <point x="1495" y="929"/>
      <point x="1287" y="929" type="curve" smooth="yes"/>
      <point x="758" y="929" type="line"/>
      <point x="818" y="795" type="line"/>
      <point x="1303" y="795" type="line" smooth="yes"/>
      <point x="1378" y="795"/>
      <point x="1424" y="774"/>
      <point x="1437" y="745" type="curve" smooth="yes"/>
      <point x="1453" y="709"/>
      <point x="1382" y="570"/>
      <point x="1070" y="487" type="curve"/>
      <point x="1186" y="238"/>
      <point x="1348" y="114"/>
      <point x="1531" y="108" type="curve" smooth="yes"/>
      <point x="1630" y="105"/>
      <point x="1743" y="124"/>
      <point x="1837" y="207" type="curve"/>
      <point x="1839" y="207" type="line"/>
      <point x="1837" y="-39" type="line"/>
      <point x="1991" y="-102" type="line"/>
      <point x="2001" y="1053" type="line"/>
      <point x="2195" y="1053" type="line"/>
    </contour>
    <component base="uni0922094D0922"/>
    <contour>
      <point x="1924" y="1187" type="move" name="top"/>
    </contour>
    <contour>
      <point x="1924" y="0" type="move" name="bottom"/>
    </contour>
  </outline>
</glyph>
<glyph name="uni0923094D0930" format="1">
  <advance width="1375"/>
  <note>
    dNnRa
  </note>
  <outline>
    <contour>
      <point x="1378" y="1187" type="line"/>
      <point x="-56" y="1187" type="line"/>
      <point x="0" y="1053" type="line"/>
      <point x="138" y="1053" type="line"/>
      <point x="138" y="647" type="line" smooth="yes"/>
      <point x="138" y="402"/>
      <point x="435" y="329"/>
      <point x="548" y="329" type="curve" smooth="yes"/>
      <point x="756" y="329"/>
      <point x="830" y="451"/>
      <point x="830" y="658" type="curve" smooth="yes"/>
      <point x="830" y="1053" type="line"/>
      <point x="1057" y="1053" type="line"/>
      <point x="1057" y="444" type="line"/>
      <point x="519" y="41" type="line"/>
      <point x="650" y="-93" type="line"/>
      <point x="1057" y="290" type="line"/>
      <point x="1057" y="-40" type="line"/>
      <point x="1211" y="-101" type="line"/>
      <point x="1211" y="1053" type="line"/>
      <point x="1427" y="1053" type="line"/>
    </contour>
    <contour>
      <point x="671" y="721" type="line" smooth="yes"/>
      <point x="671" y="536"/>
      <point x="600" y="449"/>
      <point x="435" y="449" type="curve" smooth="yes"/>
      <point x="394" y="449"/>
      <point x="345" y="464"/>
      <point x="329" y="480" type="curve" smooth="yes"/>
      <point x="306" y="503"/>
      <point x="298" y="578"/>
      <point x="298" y="643" type="curve" smooth="yes"/>
      <point x="298" y="1053" type="line"/>
      <point x="671" y="1053" type="line"/>
    </contour>
    <contour>
      <point x="1134" y="1187" type="move" name="top"/>
    </contour>
    <contour>
      <point x="1134" y="0" type="move" name="bottom"/>
    </contour>
  </outline>
</glyph>
<glyph name="uni0924094D0924094D" format="1">
  <advance width="721"/>
  <note>
    dTT.half
  </note>
  <outline>
    <contour>
      <point x="770" y="1053" type="line"/>
      <point x="718" y="1187" type="line"/>
      <point x="-55" y="1187" type="line"/>
      <point x="0" y="1053" type="line"/>
    </contour>
    <contour>
      <point x="987" y="667" type="line"/>
      <point x="940" y="814" type="line"/>
      <point x="-27" y="814" type="line"/>
      <point x="29" y="667" type="line"/>
      <point x="193" y="667" type="line"/>
      <point x="167" y="626"/>
      <point x="153" y="579"/>
      <point x="153" y="528" type="curve" smooth="yes"/>
      <point x="153" y="333"/>
      <point x="274" y="148"/>
      <point x="531" y="-93" type="curve"/>
      <point x="593" y="-13" type="line"/>
      <point x="409" y="203"/>
      <point x="338" y="357"/>
      <point x="338" y="476" type="curve" smooth="yes"/>
      <point x="338" y="582"/>
      <point x="387" y="667"/>
      <point x="527" y="667" type="curve" smooth="yes"/>
    </contour>
  </outline>
</glyph>
<glyph name="uni0925094D0930" format="1">
  <advance width="1152"/>
  <note>
    dThRa
  </note>
  <outline>
    <contour>
      <point x="988" y="1053" type="line"/>
      <point x="1204" y="1053" type="line"/>
      <point x="1155" y="1187" type="line"/>
      <point x="577" y="1187" type="line"/>
      <point x="630" y="1053" type="line"/>
      <point x="834" y="1053" type="line"/>
      <point x="834" y="494" type="line"/>
      <point x="752" y="412"/>
      <point x="660" y="370"/>
      <point x="534" y="370" type="curve" smooth="yes"/>
      <point x="438" y="370"/>
      <point x="351" y="421"/>
      <point x="298" y="476" type="curve"/>
      <point x="496" y="593"/>
      <point x="601" y="720"/>
      <point x="601" y="890" type="curve" smooth="yes"/>
      <point x="601" y="1002"/>
      <point x="539" y="1220"/>
      <point x="313" y="1220" type="curve" smooth="yes"/>
      <point x="186" y="1220"/>
      <point x="101" y="1137"/>
      <point x="101" y="1012" type="curve" smooth="yes"/>
      <point x="101" y="882"/>
      <point x="175" y="795"/>
      <point x="374" y="741" type="curve"/>
      <point x="318" y="685"/>
      <point x="230" y="629"/>
      <point x="94" y="567" type="curve"/>
      <point x="113" y="499"/>
      <point x="280" y="246"/>
      <point x="570" y="233" type="curve"/>
      <point x="294" y="38" type="line" smooth="yes"/>
      <point x="284" y="31"/>
      <point x="282" y="16"/>
      <point x="291" y="5" type="curve" smooth="yes"/>
      <point x="375" y="-92" type="line" smooth="yes"/>
      <point x="383" y="-101"/>
      <point x="392" y="-105"/>
      <point x="401" y="-105" type="curve" smooth="yes"/>
      <point x="409" y="-105"/>
      <point x="417" y="-102"/>
      <point x="425" y="-94" type="curve"/>
      <point x="834" y="280" type="line"/>
      <point x="834" y="-40" type="line"/>
      <point x="988" y="-101" type="line"/>
      <point x="988" y="393" type="line"/>
      <point x="1003" y="407"/>
      <point x="1017" y="421"/>
      <point x="1032" y="436" type="curve"/>
      <point x="988" y="499" type="line"/>
    </contour>
    <contour>
      <point x="251" y="1050"/>
      <point x="284" y="1102"/>
      <point x="365" y="1102" type="curve" smooth="yes"/>
      <point x="388" y="1102"/>
      <point x="415" y="1098"/>
      <point x="441" y="1081" type="curve" smooth="yes"/>
      <point x="450" y="1075"/>
      <point x="463" y="1039"/>
      <point x="463" y="972" type="curve" smooth="yes"/>
      <point x="463" y="911"/>
      <point x="454" y="859"/>
      <point x="426" y="809" type="curve"/>
      <point x="298" y="851"/>
      <point x="251" y="913"/>
      <point x="251" y="992" type="curve" smooth="yes"/>
    </contour>
    <contour>
      <point x="911" y="1187" type="move" name="top"/>
    </contour>
    <contour>
      <point x="911" y="0" type="move" name="bottom"/>
    </contour>
  </outline>
</glyph>
<glyph name="uni0926094D09170942" format="1">
  <advance width="1177"/>
  <outline>
    <contour>
      <point x="1192" y="-108"/>
      <point x="1084" y="-5"/>
      <point x="951" y="15" type="curve"/>
      <point x="884" y="51"/>
      <point x="834" y="98"/>
      <point x="795" y="162" type="curve"/>
      <point x="809" y="170"/>
      <point x="823" y="178"/>
      <point x="837" y="187" type="curve" smooth="yes"/>
      <point x="902" y="228"/>
      <point x="981" y="313"/>
      <point x="981" y="348" type="curve" smooth="yes"/>
      <point x="981" y="361"/>
      <point x="977" y="377"/>
      <point x="962" y="393" type="curve" smooth="yes"/>
      <point x="915" y="444"/>
      <point x="805" y="508"/>
      <point x="722" y="508" type="curve" smooth="yes"/>
      <point x="670" y="508"/>
      <point x="634" y="480"/>
      <point x="634" y="423" type="curve" smooth="yes"/>
      <point x="634" y="387"/>
      <point x="654" y="324"/>
      <point x="675" y="282" type="curve"/>
      <point x="626" y="251"/>
      <point x="537" y="231"/>
      <point x="456" y="231" type="curve" smooth="yes"/>
      <point x="429" y="231"/>
      <point x="335" y="241"/>
      <point x="320" y="256" type="curve" smooth="yes"/>
      <point x="278" y="296"/>
      <point x="244" y="399"/>
      <point x="244" y="508" type="curve" smooth="yes"/>
      <point x="244" y="613"/>
      <point x="276" y="716"/>
      <point x="494" y="716" type="curve" smooth="yes"/>
      <point x="837" y="716" type="line"/>
      <point x="846" y="762"/>
      <point x="850" y="806"/>
      <point x="849" y="851" type="curve"/>
      <point x="849" y="912"/>
      <point x="840" y="976"/>
      <point x="823" y="1053" type="curve"/>
      <point x="1171" y="1053" type="line"/>
      <point x="1121" y="1187" type="line"/>
      <point x="-57" y="1187" type="line"/>
      <point x="-5" y="1053" type="line"/>
      <point x="690" y="1053" type="line"/>
      <point x="694" y="1009"/>
      <point x="696" y="986"/>
      <point x="694" y="959" type="curve" smooth="yes"/>
      <point x="692" y="932"/>
      <point x="693" y="907"/>
      <point x="685" y="864" type="curve"/>
      <point x="486" y="864" type="line" smooth="yes"/>
      <point x="143" y="864"/>
      <point x="77" y="700"/>
      <point x="77" y="558" type="curve" smooth="yes"/>
      <point x="77" y="331"/>
      <point x="250" y="158"/>
      <point x="441" y="111" type="curve"/>
      <point x="444" y="86"/>
      <point x="445" y="60"/>
      <point x="445" y="34" type="curve" smooth="yes"/>
      <point x="446" y="-3"/>
      <point x="444" y="-39"/>
      <point x="440" y="-65" type="curve"/>
      <point x="431" y="-64"/>
      <point x="413" y="-63"/>
      <point x="401" y="-63" type="curve" smooth="yes"/>
      <point x="374" y="-63"/>
      <point x="319" y="-68"/>
      <point x="288" y="-80" type="curve"/>
      <point x="276" y="-84"/>
      <point x="265" y="-95"/>
      <point x="266" y="-109" type="curve"/>
      <point x="268" y="-177"/>
      <point x="403" y="-333"/>
      <point x="485" y="-333" type="curve" smooth="yes"/>
      <point x="495" y="-333"/>
      <point x="504" y="-330"/>
      <point x="513" y="-322" type="curve"/>
      <point x="563" y="-265"/>
      <point x="575" y="-144"/>
      <point x="575" y="-68" type="curve" smooth="yes"/>
      <point x="575" y="-20"/>
      <point x="570" y="31"/>
      <point x="558" y="98" type="curve"/>
      <point x="619" y="99"/>
      <point x="673" y="110"/>
      <point x="723" y="129" type="curve"/>
      <point x="741" y="80"/>
      <point x="762" y="37"/>
      <point x="787" y="0" type="curve"/>
      <point x="694" y="-30"/>
      <point x="624" y="-98"/>
      <point x="624" y="-199" type="curve" smooth="yes"/>
      <point x="624" y="-372"/>
      <point x="776" y="-475"/>
      <point x="893" y="-475" type="curve" smooth="yes"/>
      <point x="970" y="-475"/>
      <point x="1027" y="-447"/>
      <point x="1084" y="-392" type="curve"/>
      <point x="1006" y="-268" type="line"/>
      <point x="945" y="-316"/>
      <point x="908" y="-339"/>
      <point x="843" y="-339" type="curve" smooth="yes"/>
      <point x="801" y="-339"/>
      <point x="765" y="-326"/>
      <point x="758" y="-320" type="curve"/>
      <point x="750" y="-314"/>
      <point x="745" y="-282"/>
      <point x="745" y="-263" type="curve" smooth="yes"/>
      <point x="745" y="-167"/>
      <point x="822" y="-117"/>
      <point x="924" y="-117" type="curve" smooth="yes"/>
      <point x="1082" y="-117"/>
      <point x="1162" y="-237"/>
      <point x="1307" y="-429" type="curve"/>
      <point x="1359" y="-381" type="line"/>
      <point x="1345" y="-347"/>
      <point x="1298" y="-257"/>
      <point x="1262" y="-205" type="curve" smooth="yes"/>
    </contour>
    <contour>
      <point x="755" y="1187" type="move" name="top"/>
    </contour>
  </outline>
</glyph>
<glyph name="uni0926094D09180942" format="1">
  <advance width="1357"/>
  <outline>
    <contour>
      <point x="1387" y="-204"/>
      <point x="1307" y="-123"/>
      <point x="1210" y="-84" type="curve"/>
      <point x="1096" y="-19"/>
      <point x="996" y="44"/>
      <point x="925" y="163" type="curve"/>
      <point x="938" y="171"/>
      <point x="952" y="179"/>
      <point x="965" y="187" type="curve" smooth="yes"/>
      <point x="1030" y="228"/>
      <point x="1109" y="313"/>
      <point x="1109" y="348" type="curve" smooth="yes"/>
      <point x="1109" y="361"/>
      <point x="1105" y="377"/>
      <point x="1090" y="393" type="curve" smooth="yes"/>
      <point x="1043" y="444"/>
      <point x="933" y="508"/>
      <point x="850" y="508" type="curve" smooth="yes"/>
      <point x="798" y="508"/>
      <point x="762" y="480"/>
      <point x="762" y="423" type="curve" smooth="yes"/>
      <point x="762" y="387"/>
      <point x="782" y="324"/>
      <point x="803" y="282" type="curve"/>
      <point x="754" y="251"/>
      <point x="665" y="231"/>
      <point x="584" y="231" type="curve" smooth="yes"/>
      <point x="557" y="231"/>
      <point x="463" y="241"/>
      <point x="448" y="256" type="curve" smooth="yes"/>
      <point x="406" y="296"/>
      <point x="372" y="399"/>
      <point x="372" y="508" type="curve" smooth="yes"/>
      <point x="372" y="613"/>
      <point x="404" y="716"/>
      <point x="622" y="716" type="curve" smooth="yes"/>
      <point x="965" y="716" type="line"/>
      <point x="974" y="762"/>
      <point x="978" y="806"/>
      <point x="977" y="851" type="curve"/>
      <point x="977" y="912"/>
      <point x="968" y="976"/>
      <point x="951" y="1053" type="curve"/>
      <point x="1404" y="1053" type="line"/>
      <point x="1354" y="1187" type="line"/>
      <point x="-53" y="1187" type="line"/>
      <point x="-1" y="1053" type="line"/>
      <point x="818" y="1053" type="line"/>
      <point x="822" y="1009"/>
      <point x="824" y="986"/>
      <point x="822" y="959" type="curve" smooth="yes"/>
      <point x="820" y="932"/>
      <point x="821" y="907"/>
      <point x="813" y="864" type="curve"/>
      <point x="614" y="864" type="line" smooth="yes"/>
      <point x="271" y="864"/>
      <point x="205" y="700"/>
      <point x="205" y="558" type="curve" smooth="yes"/>
      <point x="205" y="499"/>
      <point x="216" y="444"/>
      <point x="237" y="394" type="curve"/>
      <point x="236" y="395" type="line"/>
      <point x="138" y="356"/>
      <point x="3" y="277"/>
      <point x="31" y="145" type="curve" smooth="yes"/>
      <point x="51" y="60"/>
      <point x="136" y="26"/>
      <point x="216" y="11" type="curve"/>
      <point x="187" y="-29"/>
      <point x="172" y="-77"/>
      <point x="183" y="-133" type="curve" smooth="yes"/>
      <point x="217" y="-285"/>
      <point x="435" y="-360"/>
      <point x="539" y="-335" type="curve" smooth="yes"/>
      <point x="657" y="-310"/>
      <point x="805" y="-212"/>
      <point x="914" y="-6" type="curve"/>
      <point x="930" y="-33"/>
      <point x="946" y="-57"/>
      <point x="964" y="-79" type="curve"/>
      <point x="872" y="-109"/>
      <point x="805" y="-177"/>
      <point x="805" y="-276" type="curve" smooth="yes"/>
      <point x="805" y="-449"/>
      <point x="957" y="-552"/>
      <point x="1074" y="-552" type="curve" smooth="yes"/>
      <point x="1153" y="-552"/>
      <point x="1206" y="-526"/>
      <point x="1263" y="-468" type="curve"/>
      <point x="1186" y="-346" type="line"/>
      <point x="1125" y="-395"/>
      <point x="1085" y="-416"/>
      <point x="1024" y="-416" type="curve" smooth="yes"/>
      <point x="982" y="-416"/>
      <point x="946" y="-403"/>
      <point x="939" y="-397" type="curve"/>
      <point x="931" y="-391"/>
      <point x="926" y="-359"/>
      <point x="926" y="-340" type="curve" smooth="yes"/>
      <point x="926" y="-244"/>
      <point x="1003" y="-194"/>
      <point x="1105" y="-194" type="curve" smooth="yes"/>
      <point x="1263" y="-194"/>
      <point x="1343" y="-314"/>
      <point x="1486" y="-505" type="curve"/>
      <point x="1540" y="-459" type="line"/>
      <point x="1530" y="-427"/>
      <point x="1479" y="-334"/>
      <point x="1443" y="-282" type="curve" smooth="yes"/>
    </contour>
    <contour>
      <point x="421" y="-239"/>
      <point x="380" y="-242"/>
      <point x="366" y="-237" type="curve"/>
      <point x="352" y="-230"/>
      <point x="333" y="-209"/>
      <point x="323" y="-175" type="curve"/>
      <point x="310" y="-115"/>
      <point x="303" y="-54"/>
      <point x="495" y="23" type="curve"/>
      <point x="397" y="137" type="line"/>
      <point x="328" y="117"/>
      <point x="290" y="94"/>
      <point x="249" y="50" type="curve"/>
      <point x="202" y="76"/>
      <point x="182" y="112"/>
      <point x="174" y="151" type="curve" smooth="yes"/>
      <point x="162" y="220"/>
      <point x="226" y="269"/>
      <point x="289" y="300" type="curve"/>
      <point x="379" y="175"/>
      <point x="529" y="98"/>
      <point x="673" y="98" type="curve" smooth="yes"/>
      <point x="727" y="98"/>
      <point x="774" y="105"/>
      <point x="819" y="118" type="curve"/>
      <point x="707" y="-106"/>
      <point x="566" y="-206"/>
      <point x="457" y="-233" type="curve"/>
    </contour>
    <contour>
      <point x="875" y="1187" type="move" name="top"/>
    </contour>
  </outline>
</glyph>
<glyph name="uni0926094D0918094D092F" format="1">
  <advance width="2247"/>
  <outline>
    <contour>
      <point x="2242" y="1187" type="line"/>
      <point x="1083" y="1187" type="line"/>
      <point x="1137" y="1053" type="line"/>
      <point x="1934" y="1053" type="line"/>
      <point x="1934" y="489" type="line"/>
      <point x="1856" y="332"/>
      <point x="1692" y="250"/>
      <point x="1549" y="250" type="curve" smooth="yes"/>
      <point x="1456" y="250"/>
      <point x="1397" y="271"/>
      <point x="1328" y="319" type="curve"/>
      <point x="1569" y="412"/>
      <point x="1665" y="519"/>
      <point x="1666" y="618" type="curve" smooth="yes"/>
      <point x="1666" y="706"/>
      <point x="1583" y="860"/>
      <point x="1415" y="860" type="curve" smooth="yes"/>
      <point x="828" y="860" type="line"/>
      <point x="888" y="716" type="line"/>
      <point x="1441" y="716" type="line" smooth="yes"/>
      <point x="1522" y="716"/>
      <point x="1563" y="702"/>
      <point x="1563" y="684" type="curve" smooth="yes"/>
      <point x="1563" y="628"/>
      <point x="1392" y="516"/>
      <point x="1166" y="446" type="curve"/>
      <point x="1279" y="195"/>
      <point x="1443" y="104"/>
      <point x="1608" y="98" type="curve"/>
      <point x="1707" y="98"/>
      <point x="1809" y="118"/>
      <point x="1934" y="221" type="curve"/>
      <point x="1934" y="-39" type="line"/>
      <point x="2088" y="-102" type="line"/>
      <point x="2088" y="1053" type="line"/>
      <point x="2291" y="1053" type="line"/>
    </contour>
    <component base="uni0926094D0918"/>
    <contour>
      <point x="2011" y="1187" type="move" name="top"/>
    </contour>
    <contour>
      <point x="2011" y="0" type="move" name="bottom"/>
    </contour>
  </outline>
</glyph>
<glyph name="uni0926094D0927" format="1">
  <advance width="1289"/>
  <note>
    dDDha
  </note>
  <outline>
    <contour>
      <point x="979" y="170"/>
      <point x="992" y="178"/>
      <point x="1006" y="187" type="curve" smooth="yes"/>
      <point x="1071" y="228"/>
      <point x="1150" y="313"/>
      <point x="1150" y="348" type="curve" smooth="yes"/>
      <point x="1150" y="361"/>
      <point x="1146" y="377"/>
      <point x="1131" y="393" type="curve" smooth="yes"/>
      <point x="1084" y="444"/>
      <point x="974" y="508"/>
      <point x="891" y="508" type="curve" smooth="yes"/>
      <point x="839" y="508"/>
      <point x="803" y="480"/>
      <point x="803" y="423" type="curve" smooth="yes"/>
      <point x="803" y="387"/>
      <point x="823" y="324"/>
      <point x="844" y="282" type="curve"/>
      <point x="795" y="251"/>
      <point x="706" y="231"/>
      <point x="625" y="231" type="curve" smooth="yes"/>
      <point x="598" y="231"/>
      <point x="504" y="241"/>
      <point x="489" y="256" type="curve" smooth="yes"/>
      <point x="447" y="296"/>
      <point x="413" y="399"/>
      <point x="413" y="508" type="curve" smooth="yes"/>
      <point x="413" y="613"/>
      <point x="445" y="716"/>
      <point x="663" y="716" type="curve" smooth="yes"/>
      <point x="1006" y="716" type="line"/>
      <point x="1015" y="762"/>
      <point x="1019" y="806"/>
      <point x="1018" y="851" type="curve"/>
      <point x="1018" y="912"/>
      <point x="1009" y="976"/>
      <point x="992" y="1053" type="curve"/>
      <point x="1341" y="1053" type="line"/>
      <point x="1291" y="1187" type="line"/>
      <point x="-52" y="1187" type="line"/>
      <point x="-0" y="1053" type="line"/>
      <point x="859" y="1053" type="line"/>
      <point x="863" y="1009"/>
      <point x="865" y="986"/>
      <point x="863" y="959" type="curve" smooth="yes"/>
      <point x="861" y="932"/>
      <point x="862" y="907"/>
      <point x="854" y="864" type="curve"/>
      <point x="655" y="864" type="line" smooth="yes"/>
      <point x="312" y="864"/>
      <point x="246" y="700"/>
      <point x="246" y="558" type="curve" smooth="yes"/>
      <point x="246" y="290"/>
      <point x="486" y="98"/>
      <point x="714" y="98" type="curve" smooth="yes"/>
      <point x="781" y="98"/>
      <point x="838" y="109"/>
      <point x="893" y="129" type="curve"/>
      <point x="893" y="127" type="line"/>
      <point x="779" y="-125"/>
      <point x="627" y="-236"/>
      <point x="513" y="-263" type="curve" smooth="yes"/>
      <point x="475" y="-272"/>
      <point x="436" y="-272"/>
      <point x="422" y="-267" type="curve"/>
      <point x="408" y="-260"/>
      <point x="382" y="-240"/>
      <point x="379" y="-205" type="curve" smooth="yes"/>
      <point x="372" y="-119"/>
      <point x="424" y="-63"/>
      <point x="559" y="-10" type="curve"/>
      <point x="462" y="106" type="line"/>
      <point x="376" y="71"/>
      <point x="334" y="46"/>
      <point x="296" y="3" type="curve"/>
      <point x="212" y="27"/>
      <point x="180" y="74"/>
      <point x="177" y="121" type="curve" smooth="yes"/>
      <point x="173" y="197"/>
      <point x="219" y="223"/>
      <point x="276" y="223" type="curve" smooth="yes"/>
      <point x="298" y="223"/>
      <point x="323" y="220"/>
      <point x="346" y="214" type="curve"/>
      <point x="275" y="287" type="line"/>
      <point x="254" y="299"/>
      <point x="227" y="305"/>
      <point x="199" y="305" type="curve" smooth="yes"/>
      <point x="105" y="305"/>
      <point x="9" y="239"/>
      <point x="21" y="130" type="curve" smooth="yes"/>
      <point x="28" y="37"/>
      <point x="118" y="-29"/>
      <point x="266" y="-38" type="curve"/>
      <point x="253" y="-63"/>
      <point x="244" y="-94"/>
      <point x="244" y="-123" type="curve" smooth="yes"/>
      <point x="244" y="-243"/>
      <point x="363" y="-369"/>
      <point x="538" y="-369" type="curve" smooth="yes"/>
      <point x="658" y="-369"/>
      <point x="839" y="-287"/>
      <point x="969" y="-37" type="curve"/>
      <point x="1020" y="-117"/>
      <point x="1080" y="-172"/>
      <point x="1148" y="-231" type="curve"/>
      <point x="1263" y="-91" type="line"/>
      <point x="1144" y="-24"/>
      <point x="1039" y="40"/>
      <point x="965" y="163" type="curve"/>
    </contour>
    <contour>
      <point x="925" y="1187" type="move" name="top"/>
    </contour>
    <contour>
      <point x="1036" y="-60" type="move" name="bottom"/>
    </contour>
  </outline>
</glyph>
<glyph name="uni0926094D09270941" format="1">
  <advance width="1294"/>
  <outline>
    <contour>
      <point x="1123" y="-11"/>
      <point x="1032" y="52"/>
      <point x="965" y="163" type="curve"/>
      <point x="979" y="170"/>
      <point x="992" y="178"/>
      <point x="1006" y="187" type="curve" smooth="yes"/>
      <point x="1071" y="228"/>
      <point x="1150" y="313"/>
      <point x="1150" y="348" type="curve" smooth="yes"/>
      <point x="1150" y="361"/>
      <point x="1146" y="377"/>
      <point x="1131" y="393" type="curve" smooth="yes"/>
      <point x="1084" y="444"/>
      <point x="974" y="508"/>
      <point x="891" y="508" type="curve" smooth="yes"/>
      <point x="839" y="508"/>
      <point x="803" y="480"/>
      <point x="803" y="423" type="curve" smooth="yes"/>
      <point x="803" y="387"/>
      <point x="823" y="324"/>
      <point x="844" y="282" type="curve"/>
      <point x="795" y="251"/>
      <point x="706" y="231"/>
      <point x="625" y="231" type="curve" smooth="yes"/>
      <point x="598" y="231"/>
      <point x="504" y="241"/>
      <point x="489" y="256" type="curve" smooth="yes"/>
      <point x="447" y="296"/>
      <point x="413" y="399"/>
      <point x="413" y="508" type="curve" smooth="yes"/>
      <point x="413" y="613"/>
      <point x="445" y="716"/>
      <point x="663" y="716" type="curve" smooth="yes"/>
      <point x="1006" y="716" type="line"/>
      <point x="1015" y="762"/>
      <point x="1019" y="806"/>
      <point x="1018" y="851" type="curve"/>
      <point x="1018" y="912"/>
      <point x="1009" y="976"/>
      <point x="992" y="1053" type="curve"/>
      <point x="1341" y="1053" type="line"/>
      <point x="1291" y="1187" type="line"/>
      <point x="-52" y="1187" type="line"/>
      <point x="-0" y="1053" type="line"/>
      <point x="859" y="1053" type="line"/>
      <point x="863" y="1009"/>
      <point x="865" y="986"/>
      <point x="863" y="959" type="curve" smooth="yes"/>
      <point x="861" y="932"/>
      <point x="862" y="907"/>
      <point x="854" y="864" type="curve"/>
      <point x="655" y="864" type="line" smooth="yes"/>
      <point x="312" y="864"/>
      <point x="246" y="700"/>
      <point x="246" y="558" type="curve" smooth="yes"/>
      <point x="246" y="290"/>
      <point x="486" y="98"/>
      <point x="714" y="98" type="curve" smooth="yes"/>
      <point x="761" y="98"/>
      <point x="803" y="103"/>
      <point x="843" y="113" type="curve"/>
      <point x="731" y="-108"/>
      <point x="591" y="-207"/>
      <point x="483" y="-233" type="curve" smooth="yes"/>
      <point x="445" y="-242"/>
      <point x="406" y="-242"/>
      <point x="392" y="-237" type="curve"/>
      <point x="378" y="-230"/>
      <point x="352" y="-210"/>
      <point x="349" y="-175" type="curve" smooth="yes"/>
      <point x="345" y="-125"/>
      <point x="337" y="-56"/>
      <point x="549" y="30" type="curve"/>
      <point x="452" y="146" type="line"/>
      <point x="368" y="110"/>
      <point x="318" y="92"/>
      <point x="265" y="34" type="curve"/>
      <point x="182" y="57"/>
      <point x="150" y="105"/>
      <point x="147" y="151" type="curve" smooth="yes"/>
      <point x="143" y="227"/>
      <point x="189" y="253"/>
      <point x="246" y="253" type="curve" smooth="yes"/>
      <point x="264" y="253"/>
      <point x="278" y="250"/>
      <point x="296" y="244" type="curve"/>
      <point x="245" y="317" type="line"/>
      <point x="223" y="329"/>
      <point x="196" y="336"/>
      <point x="167" y="336" type="curve" smooth="yes"/>
      <point x="74" y="336"/>
      <point x="-21" y="269"/>
      <point x="-9" y="160" type="curve" smooth="yes"/>
      <point x="-2" y="67"/>
      <point x="88" y="1"/>
      <point x="236" y="-8" type="curve"/>
      <point x="223" y="-33"/>
      <point x="214" y="-64"/>
      <point x="214" y="-93" type="curve" smooth="yes"/>
      <point x="214" y="-213"/>
      <point x="333" y="-339"/>
      <point x="508" y="-339" type="curve" smooth="yes"/>
      <point x="630" y="-339"/>
      <point x="814" y="-255"/>
      <point x="945" y="3" type="curve"/>
      <point x="960" y="-27"/>
      <point x="977" y="-52"/>
      <point x="993" y="-74" type="curve"/>
      <point x="965" y="-85"/>
      <point x="937" y="-102"/>
      <point x="908" y="-125" type="curve"/>
      <point x="997" y="-242" type="line"/>
      <point x="1035" y="-210"/>
      <point x="1068" y="-191"/>
      <point x="1097" y="-180" type="curve"/>
      <point x="1098" y="-181" type="line"/>
      <point x="1106" y="-177" type="line"/>
      <point x="1132" y="-168"/>
      <point x="1155" y="-165"/>
      <point x="1178" y="-165" type="curve" smooth="yes"/>
      <point x="1223" y="-165"/>
      <point x="1273" y="-188"/>
      <point x="1284" y="-206" type="curve" smooth="yes"/>
      <point x="1289" y="-214"/>
      <point x="1293" y="-246"/>
      <point x="1292" y="-268" type="curve" smooth="yes"/>
      <point x="1288" y="-357"/>
      <point x="1222" y="-417"/>
      <point x="1099" y="-417" type="curve" smooth="yes"/>
      <point x="1007" y="-417"/>
      <point x="924" y="-360"/>
      <point x="840" y="-259" type="curve"/>
      <point x="768" y="-320" type="line"/>
      <point x="847" y="-427"/>
      <point x="954" y="-548"/>
      <point x="1132" y="-548" type="curve" smooth="yes"/>
      <point x="1290" y="-548"/>
      <point x="1384" y="-461"/>
      <point x="1384" y="-310" type="curve" smooth="yes"/>
      <point x="1384" y="-201"/>
      <point x="1315" y="-110"/>
      <point x="1228" y="-71" type="curve"/>
    </contour>
    <contour>
      <point x="925" y="1187" type="move" name="top"/>
    </contour>
    <contour>
      <point x="1036" y="-60" type="move" name="bottom"/>
    </contour>
  </outline>
</glyph>
<glyph name="uni0926094D09270942" format="1">
  <advance width="1357"/>
  <outline>
    <contour>
      <point x="1401" y="-191"/>
      <point x="1317" y="-106"/>
      <point x="1213" y="-68" type="curve"/>
      <point x="1112" y="-10"/>
      <point x="1023" y="52"/>
      <point x="958" y="159" type="curve"/>
      <point x="974" y="167"/>
      <point x="990" y="177"/>
      <point x="1006" y="187" type="curve" smooth="yes"/>
      <point x="1071" y="228"/>
      <point x="1150" y="313"/>
      <point x="1150" y="348" type="curve" smooth="yes"/>
      <point x="1150" y="361"/>
      <point x="1146" y="377"/>
      <point x="1131" y="393" type="curve" smooth="yes"/>
      <point x="1084" y="444"/>
      <point x="974" y="508"/>
      <point x="891" y="508" type="curve" smooth="yes"/>
      <point x="839" y="508"/>
      <point x="803" y="480"/>
      <point x="803" y="423" type="curve" smooth="yes"/>
      <point x="803" y="387"/>
      <point x="823" y="324"/>
      <point x="844" y="282" type="curve"/>
      <point x="795" y="251"/>
      <point x="706" y="231"/>
      <point x="625" y="231" type="curve" smooth="yes"/>
      <point x="598" y="231"/>
      <point x="504" y="241"/>
      <point x="489" y="256" type="curve" smooth="yes"/>
      <point x="447" y="296"/>
      <point x="413" y="399"/>
      <point x="413" y="508" type="curve" smooth="yes"/>
      <point x="413" y="613"/>
      <point x="445" y="716"/>
      <point x="663" y="716" type="curve" smooth="yes"/>
      <point x="1006" y="716" type="line"/>
      <point x="1015" y="762"/>
      <point x="1019" y="806"/>
      <point x="1018" y="851" type="curve"/>
      <point x="1018" y="912"/>
      <point x="1009" y="976"/>
      <point x="992" y="1053" type="curve"/>
      <point x="1403" y="1053" type="line"/>
      <point x="1353" y="1187" type="line"/>
      <point x="-52" y="1187" type="line"/>
      <point x="0" y="1053" type="line"/>
      <point x="859" y="1053" type="line"/>
      <point x="863" y="1009"/>
      <point x="865" y="986"/>
      <point x="863" y="959" type="curve" smooth="yes"/>
      <point x="861" y="932"/>
      <point x="862" y="907"/>
      <point x="854" y="864" type="curve"/>
      <point x="655" y="864" type="line" smooth="yes"/>
      <point x="312" y="864"/>
      <point x="246" y="700"/>
      <point x="246" y="558" type="curve" smooth="yes"/>
      <point x="246" y="290"/>
      <point x="486" y="98"/>
      <point x="714" y="98" type="curve" smooth="yes"/>
      <point x="750" y="98"/>
      <point x="783" y="101"/>
      <point x="814" y="107" type="curve"/>
      <point x="704" y="-103"/>
      <point x="568" y="-198"/>
      <point x="463" y="-223" type="curve" smooth="yes"/>
      <point x="425" y="-232"/>
      <point x="386" y="-232"/>
      <point x="372" y="-227" type="curve"/>
      <point x="358" y="-220"/>
      <point x="332" y="-200"/>
      <point x="329" y="-165" type="curve" smooth="yes"/>
      <point x="325" y="-115"/>
      <point x="317" y="-46"/>
      <point x="529" y="40" type="curve"/>
      <point x="432" y="156" type="line"/>
      <point x="348" y="120"/>
      <point x="298" y="102"/>
      <point x="245" y="44" type="curve"/>
      <point x="162" y="67"/>
      <point x="130" y="115"/>
      <point x="127" y="161" type="curve" smooth="yes"/>
      <point x="123" y="237"/>
      <point x="169" y="263"/>
      <point x="226" y="263" type="curve" smooth="yes"/>
      <point x="248" y="263"/>
      <point x="273" y="260"/>
      <point x="296" y="254" type="curve"/>
      <point x="225" y="327" type="line"/>
      <point x="186" y="349"/>
      <point x="127" y="351"/>
      <point x="76" y="331" type="curve" smooth="yes"/>
      <point x="-3" y="300"/>
      <point x="-36" y="236"/>
      <point x="-29" y="170" type="curve" smooth="yes"/>
      <point x="-22" y="77"/>
      <point x="68" y="11"/>
      <point x="216" y="2" type="curve"/>
      <point x="203" y="-23"/>
      <point x="194" y="-54"/>
      <point x="194" y="-83" type="curve" smooth="yes"/>
      <point x="194" y="-203"/>
      <point x="313" y="-329"/>
      <point x="488" y="-329" type="curve" smooth="yes"/>
      <point x="610" y="-329"/>
      <point x="796" y="-243"/>
      <point x="927" y="18" type="curve"/>
      <point x="944" y="-16"/>
      <point x="961" y="-45"/>
      <point x="979" y="-69" type="curve"/>
      <point x="888" y="-100"/>
      <point x="822" y="-167"/>
      <point x="822" y="-266" type="curve" smooth="yes"/>
      <point x="822" y="-439"/>
      <point x="974" y="-542"/>
      <point x="1091" y="-542" type="curve" smooth="yes"/>
      <point x="1170" y="-542"/>
      <point x="1223" y="-516"/>
      <point x="1280" y="-458" type="curve"/>
      <point x="1203" y="-336" type="line"/>
      <point x="1142" y="-385"/>
      <point x="1102" y="-406"/>
      <point x="1041" y="-406" type="curve" smooth="yes"/>
      <point x="999" y="-406"/>
      <point x="963" y="-393"/>
      <point x="956" y="-387" type="curve"/>
      <point x="948" y="-381"/>
      <point x="943" y="-349"/>
      <point x="943" y="-330" type="curve" smooth="yes"/>
      <point x="943" y="-234"/>
      <point x="1020" y="-184"/>
      <point x="1122" y="-184" type="curve" smooth="yes"/>
      <point x="1280" y="-184"/>
      <point x="1360" y="-304"/>
      <point x="1503" y="-495" type="curve"/>
      <point x="1557" y="-449" type="line"/>
      <point x="1547" y="-417"/>
      <point x="1496" y="-324"/>
      <point x="1460" y="-272" type="curve" smooth="yes"/>
    </contour>
    <contour>
      <point x="912" y="1187" type="move" name="top"/>
    </contour>
  </outline>
</glyph>
<glyph name="uni0926094D0927094D092F" format="1">
  <advance width="2243"/>
  <note>
    dDDhYa
  </note>
  <outline>
    <contour>
      <point x="2244" y="1187" type="line"/>
      <point x="1121" y="1187" type="line"/>
      <point x="1176" y="1053" type="line"/>
      <point x="1941" y="1053" type="line"/>
      <point x="1941" y="499" type="line"/>
      <point x="1863" y="342"/>
      <point x="1699" y="255"/>
      <point x="1556" y="255" type="curve" smooth="yes"/>
      <point x="1463" y="255"/>
      <point x="1404" y="271"/>
      <point x="1335" y="319" type="curve"/>
      <point x="1586" y="398"/>
      <point x="1652" y="526"/>
      <point x="1652" y="629" type="curve" smooth="yes"/>
      <point x="1652" y="717"/>
      <point x="1589" y="861"/>
      <point x="1421" y="861" type="curve" smooth="yes"/>
      <point x="845" y="861" type="line"/>
      <point x="904" y="717" type="line"/>
      <point x="1407" y="717" type="line" smooth="yes"/>
      <point x="1454" y="717"/>
      <point x="1518" y="709"/>
      <point x="1530" y="677" type="curve" smooth="yes"/>
      <point x="1542" y="646"/>
      <point x="1401" y="505"/>
      <point x="1175" y="447" type="curve"/>
      <point x="1292" y="195"/>
      <point x="1454" y="104"/>
      <point x="1635" y="98" type="curve" smooth="yes"/>
      <point x="1734" y="95"/>
      <point x="1847" y="114"/>
      <point x="1941" y="217" type="curve"/>
      <point x="1941" y="-39" type="line"/>
      <point x="2095" y="-102" type="line"/>
      <point x="2095" y="1053" type="line"/>
      <point x="2295" y="1053" type="line"/>
    </contour>
    <component base="uni0926094D0927"/>
    <contour>
      <point x="2018" y="1187" type="move" name="top"/>
    </contour>
    <contour>
      <point x="2018" y="0" type="move" name="bottom"/>
    </contour>
  </outline>
</glyph>
<glyph name="uni0926094D09280942" format="1">
  <advance width="1177"/>
  <outline>
    <contour>
      <point x="1211" y="-146"/>
      <point x="1121" y="-57"/>
      <point x="1010" y="-23" type="curve"/>
      <point x="944" y="15"/>
      <point x="889" y="56"/>
      <point x="836" y="136" type="curve"/>
      <point x="857" y="149" type="line" smooth="yes"/>
      <point x="922" y="190"/>
      <point x="1009" y="275"/>
      <point x="1009" y="320" type="curve" smooth="yes"/>
      <point x="1009" y="328"/>
      <point x="1007" y="334"/>
      <point x="1002" y="340" type="curve" smooth="yes"/>
      <point x="945" y="408"/>
      <point x="825" y="470"/>
      <point x="742" y="470" type="curve" smooth="yes"/>
      <point x="690" y="470"/>
      <point x="654" y="448"/>
      <point x="654" y="391" type="curve" smooth="yes"/>
      <point x="654" y="355"/>
      <point x="670" y="288"/>
      <point x="689" y="242" type="curve"/>
      <point x="631" y="206"/>
      <point x="524" y="183"/>
      <point x="435" y="196" type="curve" smooth="yes"/>
      <point x="402" y="200"/>
      <point x="371" y="208"/>
      <point x="342" y="221" type="curve" smooth="yes"/>
      <point x="309" y="236"/>
      <point x="264" y="348"/>
      <point x="264" y="446" type="curve" smooth="yes"/>
      <point x="264" y="556"/>
      <point x="286" y="668"/>
      <point x="514" y="668" type="curve" smooth="yes"/>
      <point x="850" y="668" type="line"/>
      <point x="866" y="734"/>
      <point x="872" y="785"/>
      <point x="872" y="836" type="curve" smooth="yes"/>
      <point x="872" y="901"/>
      <point x="862" y="964"/>
      <point x="843" y="1053" type="curve"/>
      <point x="1227" y="1053" type="line"/>
      <point x="1175" y="1187" type="line"/>
      <point x="-52" y="1187" type="line"/>
      <point x="2" y="1053" type="line"/>
      <point x="708" y="1053" type="line"/>
      <point x="712" y="1009"/>
      <point x="716" y="966"/>
      <point x="714" y="919" type="curve" smooth="yes"/>
      <point x="713" y="892"/>
      <point x="713" y="859"/>
      <point x="705" y="816" type="curve"/>
      <point x="506" y="816" type="line" smooth="yes"/>
      <point x="163" y="816"/>
      <point x="97" y="660"/>
      <point x="97" y="518" type="curve" smooth="yes"/>
      <point x="97" y="210"/>
      <point x="337" y="60"/>
      <point x="565" y="60" type="curve" smooth="yes"/>
      <point x="589" y="60" type="line"/>
      <point x="466" y="-38" type="line" smooth="yes"/>
      <point x="332" y="-146"/>
      <point x="290" y="-186"/>
      <point x="290" y="-218" type="curve" smooth="yes"/>
      <point x="290" y="-229"/>
      <point x="293" y="-236"/>
      <point x="300" y="-245" type="curve" smooth="yes"/>
      <point x="336" y="-290"/>
      <point x="427" y="-311"/>
      <point x="510" y="-308" type="curve" smooth="yes"/>
      <point x="542" y="-307"/>
      <point x="577" y="-293"/>
      <point x="577" y="-258" type="curve" smooth="yes"/>
      <point x="577" y="-217"/>
      <point x="556" y="-173"/>
      <point x="532" y="-138" type="curve"/>
      <point x="765" y="69" type="line"/>
      <point x="781" y="33"/>
      <point x="797" y="3"/>
      <point x="813" y="-23" type="curve"/>
      <point x="712" y="-50"/>
      <point x="635" y="-120"/>
      <point x="635" y="-226" type="curve" smooth="yes"/>
      <point x="635" y="-399"/>
      <point x="787" y="-502"/>
      <point x="904" y="-502" type="curve" smooth="yes"/>
      <point x="983" y="-502"/>
      <point x="1036" y="-476"/>
      <point x="1093" y="-418" type="curve"/>
      <point x="1016" y="-296" type="line"/>
      <point x="955" y="-345"/>
      <point x="915" y="-366"/>
      <point x="854" y="-366" type="curve" smooth="yes"/>
      <point x="812" y="-366"/>
      <point x="776" y="-353"/>
      <point x="769" y="-347" type="curve"/>
      <point x="761" y="-341"/>
      <point x="756" y="-309"/>
      <point x="756" y="-290" type="curve" smooth="yes"/>
      <point x="756" y="-194"/>
      <point x="833" y="-144"/>
      <point x="935" y="-144" type="curve" smooth="yes"/>
      <point x="1093" y="-144"/>
      <point x="1173" y="-264"/>
      <point x="1316" y="-455" type="curve"/>
      <point x="1370" y="-409" type="line"/>
      <point x="1360" y="-377"/>
      <point x="1309" y="-284"/>
      <point x="1273" y="-232" type="curve" smooth="yes"/>
    </contour>
    <contour>
      <point x="776" y="1187" type="move" name="top"/>
    </contour>
  </outline>
</glyph>
<glyph name="uni0926094D092C094D0930" format="1">
  <advance width="1129"/>
  <note>
    dDBRa
  </note>
  <outline>
    <contour>
      <point x="757" y="-24" type="line"/>
      <point x="485" y="-386" type="line"/>
      <point x="625" y="-480" type="line"/>
      <point x="837" y="-68" type="line"/>
    </contour>
    <component base="uni0926094D092C"/>
  </outline>
</glyph>
<glyph name="uni0926094D092D" format="1">
  <advance width="1303"/>
  <note>
    dDBha
  </note>
  <outline>
    <contour>
      <point x="993" y="168"/>
      <point x="1008" y="177"/>
      <point x="1024" y="187" type="curve" smooth="yes"/>
      <point x="1089" y="228"/>
      <point x="1168" y="313"/>
      <point x="1168" y="348" type="curve" smooth="yes"/>
      <point x="1168" y="361"/>
      <point x="1164" y="377"/>
      <point x="1149" y="393" type="curve" smooth="yes"/>
      <point x="1102" y="444"/>
      <point x="992" y="508"/>
      <point x="909" y="508" type="curve" smooth="yes"/>
      <point x="857" y="508"/>
      <point x="821" y="480"/>
      <point x="821" y="423" type="curve" smooth="yes"/>
      <point x="821" y="387"/>
      <point x="841" y="324"/>
      <point x="862" y="282" type="curve"/>
      <point x="813" y="251"/>
      <point x="724" y="231"/>
      <point x="643" y="231" type="curve" smooth="yes"/>
      <point x="616" y="231"/>
      <point x="522" y="241"/>
      <point x="507" y="256" type="curve" smooth="yes"/>
      <point x="465" y="296"/>
      <point x="431" y="399"/>
      <point x="431" y="508" type="curve" smooth="yes"/>
      <point x="431" y="613"/>
      <point x="463" y="716"/>
      <point x="681" y="716" type="curve" smooth="yes"/>
      <point x="1024" y="716" type="line"/>
      <point x="1033" y="762"/>
      <point x="1037" y="806"/>
      <point x="1036" y="851" type="curve"/>
      <point x="1036" y="912"/>
      <point x="1027" y="976"/>
      <point x="1010" y="1053" type="curve"/>
      <point x="1359" y="1053" type="line"/>
      <point x="1309" y="1187" type="line"/>
      <point x="-56" y="1187" type="line"/>
      <point x="-4" y="1053" type="line"/>
      <point x="877" y="1053" type="line"/>
      <point x="881" y="1009"/>
      <point x="883" y="986"/>
      <point x="881" y="959" type="curve" smooth="yes"/>
      <point x="879" y="932"/>
      <point x="880" y="907"/>
      <point x="872" y="864" type="curve"/>
      <point x="673" y="864" type="line" smooth="yes"/>
      <point x="330" y="864"/>
      <point x="264" y="700"/>
      <point x="264" y="558" type="curve" smooth="yes"/>
      <point x="264" y="290"/>
      <point x="504" y="98"/>
      <point x="732" y="98" type="curve" smooth="yes"/>
      <point x="779" y="98"/>
      <point x="821" y="103"/>
      <point x="861" y="114" type="curve"/>
      <point x="775" y="42"/>
      <point x="618" y="-54"/>
      <point x="517" y="-93" type="curve"/>
      <point x="506" y="-57"/>
      <point x="481" y="-9"/>
      <point x="462" y="27" type="curve" smooth="yes"/>
      <point x="403" y="147"/>
      <point x="303" y="231"/>
      <point x="186" y="231" type="curve" smooth="yes"/>
      <point x="102" y="231"/>
      <point x="3" y="172"/>
      <point x="-5" y="72" type="curve" smooth="yes"/>
      <point x="-12" y="-8"/>
      <point x="45" y="-89"/>
      <point x="152" y="-95" type="curve" smooth="yes"/>
      <point x="208" y="-98"/>
      <point x="276" y="-81"/>
      <point x="353" y="-47" type="curve"/>
      <point x="366" y="-79"/>
      <point x="376" y="-105"/>
      <point x="386" y="-143" type="curve"/>
      <point x="376" y="-148" type="line" smooth="yes"/>
      <point x="343" y="-165"/>
      <point x="238" y="-227"/>
      <point x="259" y="-269" type="curve" smooth="yes"/>
      <point x="294" y="-338"/>
      <point x="493" y="-415"/>
      <point x="535" y="-391" type="curve"/>
      <point x="585" y="-367"/>
      <point x="579" y="-261"/>
      <point x="557" y="-194" type="curve"/>
      <point x="701" y="-131"/>
      <point x="850" y="-60"/>
      <point x="947" y="21" type="curve"/>
      <point x="1004" y="-92"/>
      <point x="1077" y="-157"/>
      <point x="1158" y="-232" type="curve"/>
      <point x="1273" y="-91" type="line"/>
      <point x="1155" y="-25"/>
      <point x="1051" y="39"/>
      <point x="977" y="160" type="curve"/>
    </contour>
    <contour>
      <point x="167" y="-5"/>
      <point x="124" y="42"/>
      <point x="124" y="90" type="curve"/>
      <point x="126" y="131"/>
      <point x="161" y="159"/>
      <point x="192" y="159" type="curve" smooth="yes"/>
      <point x="248" y="159"/>
      <point x="284" y="99"/>
      <point x="321" y="22" type="curve" smooth="yes"/>
      <point x="326" y="11" type="line"/>
      <point x="291" y="-2"/>
      <point x="261" y="-7"/>
      <point x="236" y="-6" type="curve" smooth="yes"/>
    </contour>
    <contour>
      <point x="945" y="1187" type="move" name="top"/>
    </contour>
    <contour>
      <point x="1074" y="-80" type="move" name="bottom"/>
    </contour>
  </outline>
</glyph>
<glyph name="uni0926094D092F" format="1">
  <advance width="1103"/>
  <note>
    dDYa
  </note>
  <outline>
    <contour>
      <point x="1155" y="1053" type="line"/>
      <point x="1105" y="1187" type="line"/>
      <point x="-57" y="1187" type="line"/>
      <point x="-1" y="1053" type="line"/>
      <point x="483" y="1053" type="line"/>
      <point x="487" y="1027"/>
      <point x="489" y="999"/>
      <point x="489" y="971" type="curve" smooth="yes"/>
      <point x="489" y="944"/>
      <point x="487" y="916"/>
      <point x="484" y="891" type="curve"/>
      <point x="298" y="891" type="line" smooth="yes"/>
      <point x="197" y="891"/>
      <point x="66" y="860"/>
      <point x="66" y="723" type="curve" smooth="yes"/>
      <point x="66" y="641"/>
      <point x="122" y="563"/>
      <point x="232" y="518" type="curve"/>
      <point x="169" y="479"/>
      <point x="126" y="420"/>
      <point x="126" y="335" type="curve" smooth="yes"/>
      <point x="126" y="174"/>
      <point x="335" y="11"/>
      <point x="518" y="11" type="curve" smooth="yes"/>
      <point x="610" y="11"/>
      <point x="728" y="17"/>
      <point x="851" y="118" type="curve"/>
      <point x="851" y="-39" type="line"/>
      <point x="1005" y="-102" type="line"/>
      <point x="1005" y="1053" type="line"/>
    </contour>
    <contour>
      <point x="851" y="380" type="line"/>
      <point x="705" y="180"/>
      <point x="544" y="140"/>
      <point x="387" y="140" type="curve" smooth="yes"/>
      <point x="368" y="140"/>
      <point x="340" y="143"/>
      <point x="336" y="149" type="curve" smooth="yes"/>
      <point x="310" y="186"/>
      <point x="305" y="231"/>
      <point x="305" y="295" type="curve" smooth="yes"/>
      <point x="305" y="412"/>
      <point x="448" y="445"/>
      <point x="611" y="443" type="curve"/>
      <point x="565" y="587" type="line"/>
      <point x="503" y="589"/>
      <point x="436" y="584"/>
      <point x="373" y="571" type="curve"/>
      <point x="267" y="579"/>
      <point x="221" y="624"/>
      <point x="221" y="670" type="curve" smooth="yes"/>
      <point x="221" y="730"/>
      <point x="270" y="751"/>
      <point x="363" y="751" type="curve" smooth="yes"/>
      <point x="591" y="751" type="line" smooth="yes"/>
      <point x="625" y="751"/>
      <point x="640" y="774"/>
      <point x="640" y="817" type="curve" smooth="yes"/>
      <point x="640" y="895"/>
      <point x="626" y="989"/>
      <point x="608" y="1053" type="curve"/>
      <point x="851" y="1053" type="line"/>
    </contour>
    <contour>
      <point x="928" y="1187" type="move" name="top"/>
    </contour>
    <contour>
      <point x="928" y="0" type="move" name="bottom"/>
    </contour>
  </outline>
</glyph>
<glyph name="uni0926094D0930094D092F" format="1">
  <advance width="1103"/>
  <note>
    dDRYa
  </note>
  <outline>
    <contour>
      <point x="822" y="217" type="line"/>
      <point x="338" y="-106" type="line"/>
      <point x="466" y="-228" type="line"/>
      <point x="883" y="147" type="line"/>
    </contour>
    <component base="uni0926094D092F"/>
  </outline>
</glyph>
<glyph name="uni0926094D0935" format="1">
  <advance width="1128"/>
  <note>
    dDVa
  </note>
  <outline>
    <contour>
      <point x="813" y="168"/>
      <point x="829" y="177"/>
      <point x="845" y="187" type="curve" smooth="yes"/>
      <point x="910" y="228"/>
      <point x="989" y="313"/>
      <point x="989" y="348" type="curve" smooth="yes"/>
      <point x="989" y="361"/>
      <point x="985" y="377"/>
      <point x="970" y="393" type="curve" smooth="yes"/>
      <point x="923" y="444"/>
      <point x="813" y="508"/>
      <point x="730" y="508" type="curve" smooth="yes"/>
      <point x="678" y="508"/>
      <point x="642" y="480"/>
      <point x="642" y="423" type="curve" smooth="yes"/>
      <point x="642" y="387"/>
      <point x="662" y="324"/>
      <point x="683" y="282" type="curve"/>
      <point x="634" y="251"/>
      <point x="545" y="231"/>
      <point x="464" y="231" type="curve" smooth="yes"/>
      <point x="437" y="231"/>
      <point x="343" y="241"/>
      <point x="328" y="256" type="curve" smooth="yes"/>
      <point x="286" y="296"/>
      <point x="252" y="399"/>
      <point x="252" y="508" type="curve" smooth="yes"/>
      <point x="252" y="613"/>
      <point x="284" y="716"/>
      <point x="502" y="716" type="curve" smooth="yes"/>
      <point x="845" y="716" type="line"/>
      <point x="854" y="762"/>
      <point x="858" y="806"/>
      <point x="857" y="851" type="curve"/>
      <point x="857" y="912"/>
      <point x="848" y="976"/>
      <point x="831" y="1053" type="curve"/>
      <point x="1180" y="1053" type="line"/>
      <point x="1130" y="1187" type="line"/>
      <point x="-53" y="1187" type="line"/>
      <point x="-1" y="1053" type="line"/>
      <point x="698" y="1053" type="line"/>
      <point x="702" y="1009"/>
      <point x="704" y="986"/>
      <point x="702" y="959" type="curve" smooth="yes"/>
      <point x="700" y="932"/>
      <point x="701" y="907"/>
      <point x="693" y="864" type="curve"/>
      <point x="494" y="864" type="line" smooth="yes"/>
      <point x="151" y="864"/>
      <point x="85" y="700"/>
      <point x="85" y="558" type="curve" smooth="yes"/>
      <point x="85" y="395"/>
      <point x="174" y="260"/>
      <point x="295" y="179" type="curve"/>
      <point x="193" y="126"/>
      <point x="155" y="29"/>
      <point x="155" y="-23" type="curve" smooth="yes"/>
      <point x="155" y="-144"/>
      <point x="307" y="-311"/>
      <point x="485" y="-311" type="curve" smooth="yes"/>
      <point x="566" y="-311"/>
      <point x="740" y="-267"/>
      <point x="827" y="-74" type="curve"/>
      <point x="873" y="-135"/>
      <point x="924" y="-182"/>
      <point x="979" y="-231" type="curve"/>
      <point x="1093" y="-91" type="line"/>
      <point x="975" y="-25"/>
      <point x="871" y="39"/>
      <point x="798" y="159" type="curve"/>
    </contour>
    <contour>
      <point x="401" y="-231"/>
      <point x="382" y="-218"/>
      <point x="376" y="-212" type="curve"/>
      <point x="332" y="-172"/>
      <point x="288" y="-112"/>
      <point x="302" y="-43" type="curve" smooth="yes"/>
      <point x="320" y="51"/>
      <point x="446" y="96"/>
      <point x="515" y="100" type="curve"/>
      <point x="528" y="99"/>
      <point x="540" y="98"/>
      <point x="553" y="98" type="curve" smooth="yes"/>
      <point x="617" y="98"/>
      <point x="672" y="108"/>
      <point x="724" y="126" type="curve"/>
      <point x="736" y="93" type="line"/>
      <point x="678" y="-86"/>
      <point x="563" y="-201"/>
      <point x="418" y="-228" type="curve" smooth="yes"/>
    </contour>
    <contour>
      <point x="755" y="1187" type="move" name="top"/>
    </contour>
    <contour>
      <point x="904" y="-90" type="move" name="bottom"/>
    </contour>
  </outline>
</glyph>
<glyph name="uni0926094D09350941" format="1">
  <advance width="1133"/>
  <outline>
    <contour>
      <point x="944" y="-4"/>
      <point x="860" y="57"/>
      <point x="798" y="159" type="curve"/>
      <point x="813" y="168"/>
      <point x="829" y="177"/>
      <point x="845" y="187" type="curve" smooth="yes"/>
      <point x="910" y="228"/>
      <point x="989" y="313"/>
      <point x="989" y="348" type="curve" smooth="yes"/>
      <point x="989" y="361"/>
      <point x="985" y="377"/>
      <point x="970" y="393" type="curve" smooth="yes"/>
      <point x="923" y="444"/>
      <point x="813" y="508"/>
      <point x="730" y="508" type="curve" smooth="yes"/>
      <point x="678" y="508"/>
      <point x="642" y="480"/>
      <point x="642" y="423" type="curve" smooth="yes"/>
      <point x="642" y="387"/>
      <point x="662" y="324"/>
      <point x="683" y="282" type="curve"/>
      <point x="634" y="251"/>
      <point x="545" y="231"/>
      <point x="464" y="231" type="curve" smooth="yes"/>
      <point x="437" y="231"/>
      <point x="343" y="241"/>
      <point x="328" y="256" type="curve" smooth="yes"/>
      <point x="286" y="296"/>
      <point x="252" y="399"/>
      <point x="252" y="508" type="curve" smooth="yes"/>
      <point x="252" y="613"/>
      <point x="284" y="716"/>
      <point x="502" y="716" type="curve" smooth="yes"/>
      <point x="845" y="716" type="line"/>
      <point x="854" y="762"/>
      <point x="858" y="806"/>
      <point x="857" y="851" type="curve"/>
      <point x="857" y="912"/>
      <point x="848" y="976"/>
      <point x="831" y="1053" type="curve"/>
      <point x="1180" y="1053" type="line"/>
      <point x="1130" y="1187" type="line"/>
      <point x="-53" y="1187" type="line"/>
      <point x="-1" y="1053" type="line"/>
      <point x="698" y="1053" type="line"/>
      <point x="702" y="1009"/>
      <point x="704" y="986"/>
      <point x="702" y="959" type="curve" smooth="yes"/>
      <point x="700" y="932"/>
      <point x="701" y="907"/>
      <point x="693" y="864" type="curve"/>
      <point x="494" y="864" type="line" smooth="yes"/>
      <point x="151" y="864"/>
      <point x="85" y="700"/>
      <point x="85" y="558" type="curve" smooth="yes"/>
      <point x="85" y="400"/>
      <point x="168" y="269"/>
      <point x="283" y="188" type="curve"/>
      <point x="167" y="138"/>
      <point x="125" y="32"/>
      <point x="125" y="-23" type="curve" smooth="yes"/>
      <point x="125" y="-144"/>
      <point x="277" y="-311"/>
      <point x="455" y="-311" type="curve" smooth="yes"/>
      <point x="539" y="-311"/>
      <point x="720" y="-246"/>
      <point x="804" y="-37" type="curve"/>
      <point x="823" y="-63"/>
      <point x="843" y="-86"/>
      <point x="864" y="-105" type="curve"/>
      <point x="844" y="-116"/>
      <point x="825" y="-129"/>
      <point x="805" y="-145" type="curve"/>
      <point x="894" y="-252" type="line"/>
      <point x="972" y="-188"/>
      <point x="1025" y="-175"/>
      <point x="1075" y="-175" type="curve" smooth="yes"/>
      <point x="1120" y="-175"/>
      <point x="1170" y="-198"/>
      <point x="1181" y="-216" type="curve" smooth="yes"/>
      <point x="1186" y="-224"/>
      <point x="1190" y="-256"/>
      <point x="1189" y="-278" type="curve" smooth="yes"/>
      <point x="1185" y="-367"/>
      <point x="1119" y="-427"/>
      <point x="996" y="-427" type="curve" smooth="yes"/>
      <point x="904" y="-427"/>
      <point x="821" y="-370"/>
      <point x="737" y="-269" type="curve"/>
      <point x="665" y="-330" type="line"/>
      <point x="744" y="-437"/>
      <point x="851" y="-558"/>
      <point x="1029" y="-558" type="curve" smooth="yes"/>
      <point x="1187" y="-558"/>
      <point x="1281" y="-471"/>
      <point x="1281" y="-320" type="curve" smooth="yes"/>
      <point x="1281" y="-177"/>
      <point x="1161" y="-65"/>
      <point x="1039" y="-60" type="curve"/>
    </contour>
    <contour>
      <point x="371" y="-231"/>
      <point x="352" y="-218"/>
      <point x="346" y="-212" type="curve"/>
      <point x="302" y="-172"/>
      <point x="258" y="-112"/>
      <point x="272" y="-43" type="curve" smooth="yes"/>
      <point x="290" y="52"/>
      <point x="419" y="97"/>
      <point x="492" y="103" type="curve"/>
      <point x="512" y="100"/>
      <point x="533" y="98"/>
      <point x="553" y="98" type="curve" smooth="yes"/>
      <point x="612" y="98"/>
      <point x="664" y="106"/>
      <point x="712" y="122" type="curve"/>
      <point x="656" y="-77"/>
      <point x="539" y="-200"/>
      <point x="388" y="-228" type="curve" smooth="yes"/>
    </contour>
    <contour>
      <point x="755" y="1187" type="move" name="top"/>
    </contour>
    <contour>
      <point x="904" y="-90" type="move" name="bottom"/>
    </contour>
  </outline>
</glyph>
<glyph name="uni0927094D" format="1">
  <advance width="783"/>
  <note>
    dDh.half
  </note>
  <outline>
    <contour>
      <point x="921" y="519" type="line"/>
      <point x="794" y="349"/>
      <point x="684" y="259"/>
      <point x="496" y="259" type="curve" smooth="yes"/>
      <point x="455" y="259"/>
      <point x="393" y="270"/>
      <point x="376" y="284" type="curve" smooth="yes"/>
      <point x="363" y="295"/>
      <point x="331" y="342"/>
      <point x="331" y="420" type="curve" smooth="yes"/>
      <point x="331" y="548"/>
      <point x="455" y="618"/>
      <point x="660" y="647" type="curve"/>
      <point x="586" y="793" type="line"/>
      <point x="505" y="786"/>
      <point x="421" y="777"/>
      <point x="335" y="718" type="curve"/>
      <point x="267" y="774"/>
      <point x="239" y="845"/>
      <point x="239" y="908" type="curve" smooth="yes"/>
      <point x="239" y="1009"/>
      <point x="325" y="1082"/>
      <point x="420" y="1082" type="curve" smooth="yes"/>
      <point x="493" y="1082"/>
      <point x="535" y="1064"/>
      <point x="598" y="1035" type="curve"/>
      <point x="532" y="1159" type="line"/>
      <point x="488" y="1187"/>
      <point x="428" y="1207"/>
      <point x="366" y="1207" type="curve" smooth="yes"/>
      <point x="208" y="1207"/>
      <point x="83" y="1110"/>
      <point x="83" y="967" type="curve" smooth="yes"/>
      <point x="83" y="833"/>
      <point x="167" y="730"/>
      <point x="282" y="675" type="curve"/>
      <point x="230" y="622"/>
      <point x="202" y="555"/>
      <point x="202" y="492" type="curve" smooth="yes"/>
      <point x="202" y="287"/>
      <point x="402" y="126"/>
      <point x="580" y="126" type="curve" smooth="yes"/>
      <point x="700" y="126"/>
      <point x="832" y="152"/>
      <point x="1000" y="341" type="curve"/>
    </contour>
    <contour>
      <point x="836" y="1053" type="line"/>
      <point x="784" y="1187" type="line"/>
      <point x="666" y="1187" type="line"/>
      <point x="721" y="1053" type="line"/>
    </contour>
  </outline>
</glyph>
<glyph name="uni0927094D0930094D" format="1">
  <advance width="783"/>
  <note>
    dDhR.half
  </note>
  <outline>
    <contour>
      <point x="869" y="361" type="line"/>
      <point x="293" y="-14" type="line"/>
      <point x="416" y="-157" type="line"/>
      <point x="940" y="279" type="line"/>
    </contour>
    <component base="uni0927094D"/>
  </outline>
</glyph>
<glyph name="uni0928094D0928" format="1">
  <advance width="1123"/>
  <note>
    dNNa
  </note>
  <outline>
    <contour>
      <point x="1126" y="1187" type="line"/>
      <point x="-56" y="1187" type="line"/>
      <point x="-1" y="1053" type="line"/>
      <point x="815" y="1053" type="line"/>
      <point x="815" y="618" type="line"/>
      <point x="600" y="727"/>
      <point x="349" y="822"/>
      <point x="217" y="845" type="curve" smooth="yes"/>
      <point x="176" y="852"/>
      <point x="134" y="859"/>
      <point x="106" y="856" type="curve"/>
      <point x="86" y="855"/>
      <point x="76" y="838"/>
      <point x="73" y="826" type="curve"/>
      <point x="53" y="729"/>
      <point x="140" y="550"/>
      <point x="216" y="505" type="curve"/>
      <point x="219" y="503"/>
      <point x="227" y="500"/>
      <point x="233" y="498" type="curve"/>
      <point x="242" y="496"/>
      <point x="251" y="497"/>
      <point x="261" y="501" type="curve"/>
      <point x="298" y="519"/>
      <point x="335" y="595"/>
      <point x="352" y="651" type="curve"/>
      <point x="455" y="641"/>
      <point x="609" y="582"/>
      <point x="751" y="524" type="curve"/>
      <point x="262" y="284" type="line" smooth="yes"/>
      <point x="226" y="266"/>
      <point x="188" y="243"/>
      <point x="169" y="223" type="curve" smooth="yes"/>
      <point x="155" y="209"/>
      <point x="158" y="189"/>
      <point x="164" y="178" type="curve" smooth="yes"/>
      <point x="211" y="92"/>
      <point x="400" y="17"/>
      <point x="488" y="32" type="curve"/>
      <point x="492" y="33"/>
      <point x="500" y="35"/>
      <point x="505" y="38" type="curve"/>
      <point x="513" y="42"/>
      <point x="520" y="48"/>
      <point x="524" y="58" type="curve"/>
      <point x="541" y="95"/>
      <point x="509" y="188"/>
      <point x="486" y="242" type="curve"/>
      <point x="815" y="421" type="line"/>
      <point x="815" y="-39" type="line"/>
      <point x="969" y="-102" type="line"/>
      <point x="969" y="1053" type="line"/>
      <point x="1175" y="1053" type="line"/>
    </contour>
    <contour>
      <point x="892" y="1187" type="move" name="top"/>
    </contour>
    <contour>
      <point x="892" y="0" type="move" name="bottom"/>
    </contour>
  </outline>
</glyph>
<glyph name="uni092A094D0930" format="1">
  <advance width="1053"/>
  <note>
    dPRa
  </note>
  <outline>
    <contour>
      <point x="1056" y="1187" type="line"/>
      <point x="-56" y="1187" type="line"/>
      <point x="-1" y="1053" type="line"/>
      <point x="139" y="1053" type="line"/>
      <point x="139" y="648" type="line" smooth="yes"/>
      <point x="139" y="402"/>
      <point x="371" y="312"/>
      <point x="490" y="296" type="curve"/>
      <point x="152" y="55" type="line"/>
      <point x="275" y="-88" type="line"/>
      <point x="735" y="325" type="line"/>
      <point x="735" y="-40" type="line"/>
      <point x="889" y="-101" type="line"/>
      <point x="889" y="1053" type="line"/>
      <point x="1105" y="1053" type="line"/>
    </contour>
    <contour>
      <point x="323" y="464"/>
      <point x="301" y="531"/>
      <point x="301" y="607" type="curve" smooth="yes"/>
      <point x="301" y="1053" type="line"/>
      <point x="735" y="1053" type="line"/>
      <point x="735" y="552" type="line"/>
      <point x="653" y="469"/>
      <point x="563" y="405"/>
      <point x="446" y="405" type="curve" smooth="yes"/>
      <point x="399" y="405"/>
      <point x="356" y="421"/>
      <point x="347" y="433" type="curve" smooth="yes"/>
    </contour>
    <contour>
      <point x="812" y="1187" type="move" name="top"/>
    </contour>
    <contour>
      <point x="812" y="0" type="move" name="bottom"/>
    </contour>
  </outline>
</glyph>
<glyph name="uni092A094D0932.loclMAR" format="1">
  <advance width="1148"/>
  <note>
    dPLa.MAR
  </note>
  <outline>
    <contour>
      <point x="912" y="1053" type="line"/>
      <point x="1201" y="1053" type="line"/>
      <point x="1150" y="1187" type="line"/>
      <point x="-56" y="1187" type="line"/>
      <point x="-1" y="1053" type="line"/>
      <point x="154" y="1053" type="line"/>
      <point x="154" y="708" type="line" smooth="yes"/>
      <point x="154" y="433"/>
      <point x="445" y="353"/>
      <point x="537" y="353" type="curve" smooth="yes"/>
      <point x="601" y="353"/>
      <point x="677" y="355"/>
      <point x="758" y="416" type="curve"/>
      <point x="758" y="188" type="line"/>
      <point x="698" y="176"/>
      <point x="646" y="147"/>
      <point x="601" y="104" type="curve"/>
      <point x="506" y="169"/>
      <point x="426" y="201"/>
      <point x="351" y="201" type="curve" smooth="yes"/>
      <point x="218" y="201"/>
      <point x="75" y="126"/>
      <point x="75" y="-58" type="curve" smooth="yes"/>
      <point x="75" y="-246"/>
      <point x="223" y="-392"/>
      <point x="470" y="-508" type="curve"/>
      <point x="508" y="-431" type="line"/>
      <point x="320" y="-321"/>
      <point x="238" y="-211"/>
      <point x="238" y="-78" type="curve" smooth="yes"/>
      <point x="238" y="40"/>
      <point x="337" y="83"/>
      <point x="415" y="83" type="curve" smooth="yes"/>
      <point x="455" y="83"/>
      <point x="498" y="75"/>
      <point x="553" y="51" type="curve"/>
      <point x="512" y="-4"/>
      <point x="490" y="-63"/>
      <point x="477" y="-153" type="curve"/>
      <point x="614" y="-201" type="line"/>
      <point x="695" y="66"/>
      <point x="819" y="82"/>
      <point x="884" y="82" type="curve" smooth="yes"/>
      <point x="919" y="82"/>
      <point x="960" y="70"/>
      <point x="971" y="61" type="curve" smooth="yes"/>
      <point x="987" y="47"/>
      <point x="992" y="-7"/>
      <point x="992" y="-32" type="curve" smooth="yes"/>
      <point x="992" y="-188"/>
      <point x="880" y="-280"/>
      <point x="697" y="-405" type="curve"/>
      <point x="842" y="-519" type="line"/>
      <point x="1014" y="-392"/>
      <point x="1118" y="-278"/>
      <point x="1118" y="-110" type="curve" smooth="yes"/>
      <point x="1118" y="-9"/>
      <point x="1031" y="126"/>
      <point x="912" y="175" type="curve"/>
    </contour>
    <contour>
      <point x="414" y="465"/>
      <point x="370" y="482"/>
      <point x="362" y="493" type="curve" smooth="yes"/>
      <point x="338" y="528"/>
      <point x="316" y="591"/>
      <point x="316" y="667" type="curve" smooth="yes"/>
      <point x="316" y="1053" type="line"/>
      <point x="758" y="1053" type="line"/>
      <point x="758" y="661" type="line"/>
      <point x="709" y="566"/>
      <point x="617" y="465"/>
      <point x="461" y="465" type="curve" smooth="yes"/>
    </contour>
    <contour>
      <point x="835" y="1187" type="move" name="top"/>
    </contour>
    <contour>
      <point x="824" y="-370" type="move" name="bottom"/>
    </contour>
  </outline>
</glyph>
